<?xml version="1.0" standalone="no"?>
<!DOCTYPE svg PUBLIC "-//W3C//DTD SVG 1.1//EN" "http://www.w3.org/Graphics/SVG/1.1/DTD/svg11.dtd" >
<svg>
<metadata>
Created by FontForge 20090914 at Tue Jul 16 18:53:25 2013
 By www-data
&#194;&#169; 2012 Microsoft Corporation. All Rights Reserved.
</metadata>
<defs>
<font id="SegoeUI-Semilight" horiz-adv-x="0" >
  <font-face 
    font-family="Segoe UI Semilight"
    font-weight="350"
    font-stretch="normal"
    units-per-em="2048"
    panose-1="2 11 4 2 4 2 4 2 2 3"
    ascent="1638"
    descent="-410"
    x-height="1024"
    cap-height="1434"
    bbox="-888 -648.002 2726 2270"
    underline-thickness="119"
    underline-position="-119"
    unicode-range="U+000D-U+FFFD"
  />
<missing-glyph horiz-adv-x="1322" 
d="M166 0v1398h990v-1398h-990zM314 148h694v1102h-694v-1102z" />
    <glyph glyph-name="uniFDF2" unicode="&#x627;&#xfedf;&#xfee0;&#x651;&#x670;&#xfeea;" horiz-adv-x="2514" arabic-form="isolated" 
d="M2233 1516h120v-1516h-120v1516zM1332 362c0 -83.333 14.998 -145.001 44.998 -185.001s81.333 -60 154 -60c30.667 0 58.667 4.16699 84 12.5s47.166 21.5 65.499 39.5s32.5 41 42.5 69s15 61.667 15 101v1067h120v-1074c0 -62 -8.66699 -114.833 -26 -158.5
s-41 -79.5 -71 -107.5s-65.333 -48.333 -106 -61s-84 -19 -130 -19c-125.333 0 -210.666 44.333 -255.999 133h-4c-32 -46 -72 -79.667 -120 -101s-99.333 -32 -154 -32c-37.333 0 -72.5 4.5 -105.5 13.5s-62.667 22.833 -89 41.5s-48.5 42.334 -66.5 71.001
s-30.667 62.667 -38 102c-29.333 -12.667 -62.166 -22.334 -98.499 -29.001s-72.833 -10 -109.5 -10c-45.333 0 -87.833 5.33301 -127.5 16s-74.167 26.834 -103.5 48.501s-52.5 48.834 -69.5 81.501s-25.5 71 -25.5 115c0 52.667 12.333 101.167 37 145.5
s59.834 83.666 105.501 117.999s101 63.333 166 87s137.5 41.5 217.5 53.5v104h122v-592c0 -80.667 14.667 -140 44 -178s78.666 -57 147.999 -57c28 0 54.833 3.83301 80.5 11.5s48.334 20 68.001 37s35.5 39.333 47.5 67s18 61.5 18 101.5v922h120v-894zM275.998 450.999
c0 -25.333 5.33105 -47.499 15.998 -66.499s25.5 -34.833 44.5 -47.5s42 -22.167 69 -28.5s56.833 -9.5 89.5 -9.5c36 0 70.833 3.33301 104.5 10s61.834 14.667 84.501 24v388c-62.667 -9.33301 -119.167 -22.5 -169.5 -39.5s-93.166 -37.167 -128.499 -60.5
s-62.5 -49.333 -81.5 -78s-28.5 -59.334 -28.5 -92.001zM1564 1677c1.33301 -8.66699 2.16797 -17.501 2.50098 -26.501s0.5 -16.5 0.5 -22.5c0 -72.667 -15.5 -128.667 -46.5 -168s-72.5 -59 -124.5 -59c-25.333 0 -49.833 6 -73.5 18s-41.167 30.333 -52.5 55h-6
c-12.667 -23.333 -30.334 -41.333 -53.001 -54s-48 -19 -76 -19c-51.333 0 -90 19 -116 57s-39 90.333 -39 157c0 12 0.5 23.333 1.5 34s2.16699 20 3.5 28h86c-3.33301 -21.333 -5.16602 -36.333 -5.49902 -45s-0.5 -15.667 -0.5 -21c0 -42.667 7.16699 -74 21.5 -94
s34.833 -30 61.5 -30c56 0 84 43.667 84 131c0 9.33301 -0.166992 19.5 -0.5 30.5s-0.5 20.5 -0.5 28.5h86c-0.666992 -8.66699 -1.16699 -18.667 -1.5 -30s-0.5 -20.666 -0.5 -27.999c0 -48 6.66699 -82 20 -102s34.666 -30 63.999 -30c56 0 84 42.333 84 127
c0 10.667 -0.333008 21.667 -1 33s-1.66699 21.333 -3 30h85zM1324 1760h-96v330h96v-330z" />
    <glyph glyph-name="uniFEDF_uniFEE0_afii57457_uni0670_uniFEEA.liga" unicode="&#xfedf;&#xfee0;&#x651;&#x670;&#xfeea;" horiz-adv-x="2054" 
d="M1332 362c0 -83.333 14.998 -145.001 44.998 -185.001s81.333 -60 154 -60c30.667 0 58.667 4.16699 84 12.5s47.166 21.5 65.499 39.5s32.5 41 42.5 69s15 61.667 15 101v1067h120v-1074c0 -62 -8.66699 -114.833 -26 -158.5s-41 -79.5 -71 -107.5
s-65.333 -48.333 -106 -61s-84 -19 -130 -19c-125.333 0 -210.666 44.333 -255.999 133h-4c-32 -46 -72 -79.667 -120 -101s-99.333 -32 -154 -32c-37.333 0 -72.5 4.5 -105.5 13.5s-62.667 22.833 -89 41.5s-48.5 42.334 -66.5 71.001s-30.667 62.667 -38 102
c-29.333 -12.667 -62.166 -22.334 -98.499 -29.001s-72.833 -10 -109.5 -10c-45.333 0 -87.833 5.33301 -127.5 16s-74.167 26.834 -103.5 48.501s-52.5 48.834 -69.5 81.501s-25.5 71 -25.5 115c0 52.667 12.333 101.167 37 145.5s59.834 83.666 105.501 117.999
s101 63.333 166 87s137.5 41.5 217.5 53.5v104h122v-592c0 -80.667 14.667 -140 44 -178s78.666 -57 147.999 -57c28 0 54.833 3.83301 80.5 11.5s48.334 20 68.001 37s35.5 39.333 47.5 67s18 61.5 18 101.5v922h120v-894zM275.998 450.999
c0 -25.333 5.33105 -47.499 15.998 -66.499s25.5 -34.833 44.5 -47.5s42 -22.167 69 -28.5s56.833 -9.5 89.5 -9.5c36 0 70.833 3.33301 104.5 10s61.834 14.667 84.501 24v388c-62.667 -9.33301 -119.167 -22.5 -169.5 -39.5s-93.166 -37.167 -128.499 -60.5
s-62.5 -49.333 -81.5 -78s-28.5 -59.334 -28.5 -92.001zM1564 1677c1.33301 -8.66699 2.16797 -17.501 2.50098 -26.501s0.5 -16.5 0.5 -22.5c0 -72.667 -15.5 -128.667 -46.5 -168s-72.5 -59 -124.5 -59c-25.333 0 -49.833 6 -73.5 18s-41.167 30.333 -52.5 55h-6
c-12.667 -23.333 -30.334 -41.333 -53.001 -54s-48 -19 -76 -19c-51.333 0 -90 19 -116 57s-39 90.333 -39 157c0 12 0.5 23.333 1.5 34s2.16699 20 3.5 28h86c-3.33301 -21.333 -5.16602 -36.333 -5.49902 -45s-0.5 -15.667 -0.5 -21c0 -42.667 7.16699 -74 21.5 -94
s34.833 -30 61.5 -30c56 0 84 43.667 84 131c0 9.33301 -0.166992 19.5 -0.5 30.5s-0.5 20.5 -0.5 28.5h86c-0.666992 -8.66699 -1.16699 -18.667 -1.5 -30s-0.5 -20.666 -0.5 -27.999c0 -48 6.66699 -82 20 -102s34.666 -30 63.999 -30c56 0 84 42.333 84 127
c0 10.667 -0.333008 21.667 -1 33s-1.66699 21.333 -3 30h85zM1324 1760h-96v330h96v-330z" />
    <glyph glyph-name="afii57409" unicode="&#x621;" horiz-adv-x="855" arabic-form="isolated" 
d="M663 525c-16.667 3.33301 -36.5029 6.66699 -59.5029 10s-45.167 5 -66.5 5c-37.333 0 -71.666 -4.83301 -102.999 -14.5s-58.166 -23.5 -80.499 -41.5s-39.666 -39.667 -51.999 -65s-18.5 -54 -18.5 -86c0 -64.667 23.5 -114.834 70.5 -150.501s111.5 -53.5 193.5 -53.5
h180v-129h-615l-29 119h193l1 6c-38 29.333 -66.667 64.833 -86 106.5s-29 84.834 -29 129.501c0 44 9 84.833 27 122.5s43.5 70.5 76.5 98.5s72.5 50 118.5 66s96.667 24 152 24c22 0 44.5 -1.5 67.5 -4.5s42.833 -6.16699 59.5 -9.5v-133z" />
    <glyph glyph-name="afii57410" unicode="&#x622;" horiz-adv-x="462" arabic-form="isolated" 
d="M171 1516h120v-1516h-120v1516zM573 1724c-30 -32.667 -59.502 -55 -88.502 -67s-58.5 -18 -88.5 -18c-32 0 -62.5 4.5 -91.5 13.5s-57.833 18.833 -86.5 29.5s-57 20.5 -85 29.5s-57 13.5 -87 13.5c-42.667 0 -81.667 -14.667 -117 -44l-53 58
c30 30 59.667 50.833 89 62.5s58 17.5 86 17.5c33.333 0 64.5 -4.5 93.5 -13.5s57.333 -19 85 -30s55.334 -21 83.001 -30s56.834 -13.5 87.501 -13.5c26 0 48.167 4 66.5 12s36.5 20.667 54.5 38z" />
    <glyph glyph-name="afii57411" unicode="&#x623;" horiz-adv-x="462" arabic-form="isolated" 
d="M171 1516h120v-1516h-120v1516zM346 1929c-8.66699 2 -17.834 3.66699 -27.501 5s-19.834 2 -30.501 2c-33.333 0 -61.166 -7.66699 -83.499 -23s-33.5 -38 -33.5 -68c0 -62 45.333 -93 136 -93h83v-87h-342v81h90l1 5c-15.333 15.333 -27.5 32.666 -36.5 51.999
s-13.5 40 -13.5 62c0 22.667 4.66699 43.834 14 63.501s22.5 36.667 39.5 51s37.333 25.5 61 33.5s49.834 12 78.501 12c20.667 0 42 -2 64 -6v-90z" />
    <glyph glyph-name="afii57412" unicode="&#x624;" horiz-adv-x="936" arabic-form="isolated" 
d="M0 -295c52.667 -21.333 106 -36.502 160 -45.502s108 -13.5 162 -13.5c63.333 0 116 8.83301 158 26.5s76 43 102 76s44.833 72.667 56.5 119s19.167 98.5 22.5 156.5c-28 -12.667 -58 -22.167 -90 -28.5s-64.667 -9.5 -98 -9.5c-42.667 0 -83.834 7 -123.501 21
s-74.667 34 -105 60s-54.5 57.5 -72.5 94.5s-27 78.5 -27 124.5c0 42 7.83301 84.833 23.5 128.5s37.167 83.334 64.5 119.001s59.333 64.834 96 87.501s76 34 118 34c50.667 0 95.5 -15 134.5 -45s74.833 -73 107.5 -129c32.667 -56.667 56.334 -121 71.001 -193
s22 -146.333 22 -223c0 -84.667 -9.16699 -161.167 -27.5 -229.5s-46.333 -126.5 -84 -174.5s-85.5 -84.833 -143.5 -110.5s-126.333 -38.5 -205 -38.5c-58 0 -113.833 5.33301 -167.5 16s-105.167 27 -154.5 49v128zM656 149.998
c-1.33301 40.667 -8.16992 82.835 -20.5029 126.502s-28.333 83.667 -48 120s-42.167 66.166 -67.5 89.499s-51.666 35 -78.999 35c-22 0 -43.333 -6.33301 -64 -19s-39 -29.334 -55 -50.001s-28.833 -44.5 -38.5 -71.5s-14.5 -54.5 -14.5 -82.5s5.66699 -53.167 17 -75.5
s26.833 -41.333 46.5 -57s42.834 -27.667 69.501 -36s55.334 -12.5 86.001 -12.5c31.333 0 61.333 2.5 90 7.5s54.667 13.5 78 25.5zM563.996 1120c-8.66699 2 -17.834 3.66699 -27.501 5s-19.834 2 -30.501 2c-33.333 0 -61.166 -7.66699 -83.499 -23s-33.5 -38 -33.5 -68
c0 -62 45.333 -93 136 -93h83v-87h-342v81h90l1 5c-15.333 15.333 -27.5 32.666 -36.5 51.999s-13.5 40 -13.5 62c0 22.667 4.66699 43.834 14 63.501s22.5 36.667 39.5 51s37.333 25.5 61 33.5s49.834 12 78.501 12c20.667 0 42 -2 64 -6v-90z" />
    <glyph glyph-name="afii57413" unicode="&#x625;" horiz-adv-x="462" arabic-form="isolated" 
d="M171 1516h120v-1516h-120v1516zM343 -250c-8.66699 2 -17.833 3.66602 -27.5 4.99902s-19.834 2 -30.501 2c-33.333 0 -61.333 -7.66699 -84 -23s-34 -37.666 -34 -66.999c0 -31.333 11.833 -54.833 35.5 -70.5s57.5 -23.5 101.5 -23.5h86v-87h-345v81h90l1 5
c-15.333 15.333 -27.5 32.666 -36.5 51.999s-13.5 40 -13.5 62c0 22.667 4.66699 43.834 14 63.501s22.5 36.667 39.5 51s37.333 25.5 61 33.5s49.834 12 78.501 12c20.667 0 42 -2 64 -6v-90z" />
    <glyph glyph-name="afii57414" unicode="&#x626;" horiz-adv-x="1501" arabic-form="isolated" 
d="M654 -133c-88 0 -162.504 10.833 -223.504 32.5s-110.833 52.167 -149.5 91.5s-66.667 86.5 -84 141.5s-26 116.167 -26 183.5c0 56.667 6.5 114.334 19.5 173.001s29.833 115 50.5 169h114c-19.333 -56.667 -34.833 -111.5 -46.5 -164.5s-17.5 -105.5 -17.5 -157.5
c0 -52.667 6.33301 -99.667 19 -141s34.334 -76.5 65.001 -105.5s71 -51.167 121 -66.5s112.667 -23 188 -23c73.333 0 141.333 7.33301 204 22s116.834 34.167 162.501 58.5s81.5 52.166 107.5 83.499s39 63.666 39 96.999c0 28 -8.5 51.333 -25.5 70
s-38.167 35.834 -63.5 51.501s-52.666 31 -81.999 46s-56.666 32.667 -81.999 53s-46.5 44.833 -63.5 73.5s-25.5 64 -25.5 106c0 50.667 12.5 95.834 37.5 135.501s60.167 74.167 105.5 103.5s99.5 53.666 162.5 72.999s132.167 34.333 207.5 45v-126
c-130 -14 -228.5 -40.667 -295.5 -80s-100.5 -86.333 -100.5 -141c0 -28 8.5 -51.5 25.5 -70.5s38.167 -36.333 63.5 -52s53 -31 83 -46s57.667 -32.167 83 -51.5s46.5 -42.166 63.5 -68.499s25.5 -58.833 25.5 -97.5c0 -48.667 -14.5 -97.834 -43.5 -147.501
s-71.5 -94.5 -127.5 -134.5s-125.167 -72.667 -207.5 -98s-176.833 -38 -283.5 -38zM439.996 1199c-8.66699 2 -17.834 3.66699 -27.501 5s-19.834 2 -30.501 2c-33.333 0 -61.166 -7.66699 -83.499 -23s-33.5 -38 -33.5 -68c0 -62 45.333 -93 136 -93h83v-87h-342v81h90
l1 5c-15.333 15.333 -27.5 32.666 -36.5 51.999s-13.5 40 -13.5 62c0 22.667 4.66699 43.834 14 63.501s22.5 36.667 39.5 51s37.333 25.5 61 33.5s49.834 12 78.501 12c20.667 0 42 -2 64 -6v-90z" />
    <glyph glyph-name="afii57415" unicode="&#x627;" horiz-adv-x="462" arabic-form="isolated" 
d="M171 1516h120v-1516h-120v1516z" />
    <glyph glyph-name="afii57416" unicode="&#x628;" horiz-adv-x="1830" arabic-form="isolated" 
d="M318 573c-7.33301 -26.667 -13.4971 -56.0029 -18.4971 -88.0029s-7.5 -65.667 -7.5 -101c0 -46 6.16699 -85.5 18.5 -118.5s33.833 -60.167 64.5 -81.5c19.333 -13.333 44.166 -24.666 74.499 -33.999s69.666 -17 117.999 -23s107.333 -10.333 177 -13
s153.5 -4 251.5 -4c99.333 0 183.5 3 252.5 9s125 17.167 168 33.5s74.167 39.5 93.5 69.5s29 69 29 117v399h120v-399c0 -76 -14.667 -137.667 -44 -185s-73 -84 -131 -110s-130.333 -43.5 -217 -52.5s-187.334 -13.5 -302.001 -13.5c-94.667 0 -178.167 1.33301 -250.5 4
s-135.833 7.83398 -190.5 15.501s-101.167 18.334 -139.5 32.001s-70.833 31.167 -97.5 52.5c-40.667 32 -70.167 71.5 -88.5 118.5s-27.5 100.833 -27.5 161.5c0 36 2.83301 72.167 8.5 108.5s12.5 70.5 20.5 102.5h118zM995.003 -327.003h-147v143h147v-143z" />
    <glyph glyph-name="afii57417" unicode="&#x629;" horiz-adv-x="1026" arabic-form="isolated" 
d="M401 971c81.333 -54 150.832 -107.832 208.499 -161.499s104.667 -107.5 141 -161.5s62.833 -108.333 79.5 -163s25 -110 25 -166c0 -52 -8.5 -98.833 -25.5 -140.5s-40.833 -77.334 -71.5 -107.001s-67.5 -52.5 -110.5 -68.5s-90.5 -24 -142.5 -24
c-50.667 0 -96.5 7.5 -137.5 22.5s-76 36.333 -105 64s-51.5 61 -67.5 100s-24 82.167 -24 129.5c0 50 6.83301 98.5 20.5 145.5s32.834 91.833 57.501 134.5s53.5 82.167 86.5 118.5s69.167 68.5 108.5 96.5c-6.66699 6 -14.667 12.667 -24 20l-29 22l-31 22.5l-29 20.5z
M289.999 318.001c0 -34.667 5.66699 -65.001 17 -91.001s26.833 -47.5 46.5 -64.5s43 -29.833 70 -38.5s56.5 -13 88.5 -13c70.667 0 125.667 18 165 54s59 86.333 59 151c0 72.667 -16.833 142.334 -50.5 209.001s-86.5 131.334 -158.5 194.001
c-36 -24.667 -68.667 -52.334 -98 -83.001s-54.333 -63.334 -75 -98.001s-36.5 -70.667 -47.5 -108s-16.5 -74.666 -16.5 -111.999zM452.999 1174h-147v143h147v-143zM712.999 1174h-147v143h147v-143z" />
    <glyph glyph-name="afii57418" unicode="&#x62a;" horiz-adv-x="1830" arabic-form="isolated" 
d="M318 573c-7.33301 -26.667 -13.4971 -56.0029 -18.4971 -88.0029s-7.5 -65.667 -7.5 -101c0 -46 6.16699 -85.5 18.5 -118.5s33.833 -60.167 64.5 -81.5c19.333 -13.333 44.166 -24.666 74.499 -33.999s69.666 -17 117.999 -23s107.333 -10.333 177 -13
s153.5 -4 251.5 -4c99.333 0 183.5 3 252.5 9s125 17.167 168 33.5s74.167 39.5 93.5 69.5s29 69 29 117v399h120v-399c0 -76 -14.667 -137.667 -44 -185s-73 -84 -131 -110s-130.333 -43.5 -217 -52.5s-187.334 -13.5 -302.001 -13.5c-94.667 0 -178.167 1.33301 -250.5 4
s-135.833 7.83398 -190.5 15.501s-101.167 18.334 -139.5 32.001s-70.833 31.167 -97.5 52.5c-40.667 32 -70.167 71.5 -88.5 118.5s-27.5 100.833 -27.5 161.5c0 36 2.83301 72.167 8.5 108.5s12.5 70.5 20.5 102.5h118zM876.003 933.997h-147v143h147v-143zM1136 933.997
h-147v143h147v-143z" />
    <glyph glyph-name="afii57419" unicode="&#x62b;" horiz-adv-x="1830" arabic-form="isolated" 
d="M318 573c-7.33301 -26.667 -13.4971 -56.0029 -18.4971 -88.0029s-7.5 -65.667 -7.5 -101c0 -46 6.16699 -85.5 18.5 -118.5s33.833 -60.167 64.5 -81.5c19.333 -13.333 44.166 -24.666 74.499 -33.999s69.666 -17 117.999 -23s107.333 -10.333 177 -13
s153.5 -4 251.5 -4c99.333 0 183.5 3 252.5 9s125 17.167 168 33.5s74.167 39.5 93.5 69.5s29 69 29 117v399h120v-399c0 -76 -14.667 -137.667 -44 -185s-73 -84 -131 -110s-130.333 -43.5 -217 -52.5s-187.334 -13.5 -302.001 -13.5c-94.667 0 -178.167 1.33301 -250.5 4
s-135.833 7.83398 -190.5 15.501s-101.167 18.334 -139.5 32.001s-70.833 31.167 -97.5 52.5c-40.667 32 -70.167 71.5 -88.5 118.5s-27.5 100.833 -27.5 161.5c0 36 2.83301 72.167 8.5 108.5s12.5 70.5 20.5 102.5h118zM854.003 933.997h-147v143h147v-143zM1114 933.997
h-147v143h147v-143zM984.003 1165h-147v143h147v-143z" />
    <glyph glyph-name="afii57420" unicode="&#x62c;" horiz-adv-x="1197" arabic-form="isolated" 
d="M1029 514c-136 -30 -252.334 -65.165 -349.001 -105.498s-175.667 -84.5 -237 -132.5s-106.166 -99 -134.499 -153s-42.5 -110 -42.5 -168c0 -47.333 8.33301 -91.333 25 -132s42.5 -75.834 77.5 -105.501s79.5 -53 133.5 -70s118.333 -25.5 193 -25.5
c136 0 265.333 23.667 388 71v-122c-123.333 -49.333 -253.666 -74 -390.999 -74c-95.333 0 -177.666 11.333 -246.999 34s-126.666 53.667 -171.999 93s-78.833 85.833 -100.5 139.5s-32.5 111.5 -32.5 173.5s13.5 124.333 40.5 187s69 122.167 126 178.5
s129.667 108 218 155s193.5 86.5 315.5 118.5v8c-36 9.33301 -69.5 19.666 -100.5 30.999s-62 22 -93 32s-63.667 18.333 -98 25s-73.166 10 -116.499 10c-49.333 0 -96.5 -3.83301 -141.5 -11.5s-84.833 -16.834 -119.5 -27.501v123
c39.333 13.333 81.166 24.166 125.499 32.499s90.5 12.5 138.5 12.5c41.333 0 79.666 -3.83301 114.999 -11.5s69 -17.167 101 -28.5s63.167 -23.666 93.5 -36.999s61.666 -25.833 93.999 -37.5s66.166 -21.667 101.499 -30s74.333 -13.166 117 -14.499zM786.999 -40.998
h-147v143h147v-143z" />
    <glyph glyph-name="afii57421" unicode="&#x62d;" horiz-adv-x="1197" arabic-form="isolated" 
d="M1029 514c-136 -30 -252.334 -65.165 -349.001 -105.498s-175.667 -84.5 -237 -132.5s-106.166 -99 -134.499 -153s-42.5 -110 -42.5 -168c0 -47.333 8.33301 -91.333 25 -132s42.5 -75.834 77.5 -105.501s79.5 -53 133.5 -70s118.333 -25.5 193 -25.5
c136 0 265.333 23.667 388 71v-122c-123.333 -49.333 -253.666 -74 -390.999 -74c-95.333 0 -177.666 11.333 -246.999 34s-126.666 53.667 -171.999 93s-78.833 85.833 -100.5 139.5s-32.5 111.5 -32.5 173.5s13.5 124.333 40.5 187s69 122.167 126 178.5
s129.667 108 218 155s193.5 86.5 315.5 118.5v8c-36 9.33301 -69.5 19.666 -100.5 30.999s-62 22 -93 32s-63.667 18.333 -98 25s-73.166 10 -116.499 10c-49.333 0 -96.5 -3.83301 -141.5 -11.5s-84.833 -16.834 -119.5 -27.501v123
c39.333 13.333 81.166 24.166 125.499 32.499s90.5 12.5 138.5 12.5c41.333 0 79.666 -3.83301 114.999 -11.5s69 -17.167 101 -28.5s63.167 -23.666 93.5 -36.999s61.666 -25.833 93.999 -37.5s66.166 -21.667 101.499 -30s74.333 -13.166 117 -14.499z" />
    <glyph glyph-name="afii57422" unicode="&#x62e;" horiz-adv-x="1197" arabic-form="isolated" 
d="M1029 514c-136 -30 -252.334 -65.165 -349.001 -105.498s-175.667 -84.5 -237 -132.5s-106.166 -99 -134.499 -153s-42.5 -110 -42.5 -168c0 -47.333 8.33301 -91.333 25 -132s42.5 -75.834 77.5 -105.501s79.5 -53 133.5 -70s118.333 -25.5 193 -25.5
c136 0 265.333 23.667 388 71v-122c-123.333 -49.333 -253.666 -74 -390.999 -74c-95.333 0 -177.666 11.333 -246.999 34s-126.666 53.667 -171.999 93s-78.833 85.833 -100.5 139.5s-32.5 111.5 -32.5 173.5s13.5 124.333 40.5 187s69 122.167 126 178.5
s129.667 108 218 155s193.5 86.5 315.5 118.5v8c-36 9.33301 -69.5 19.666 -100.5 30.999s-62 22 -93 32s-63.667 18.333 -98 25s-73.166 10 -116.499 10c-49.333 0 -96.5 -3.83301 -141.5 -11.5s-84.833 -16.834 -119.5 -27.501v123
c39.333 13.333 81.166 24.166 125.499 32.499s90.5 12.5 138.5 12.5c41.333 0 79.666 -3.83301 114.999 -11.5s69 -17.167 101 -28.5s63.167 -23.666 93.5 -36.999s61.666 -25.833 93.999 -37.5s66.166 -21.667 101.499 -30s74.333 -13.166 117 -14.499zM659.999 1031h-147
v143h147v-143z" />
    <glyph glyph-name="afii57423" unicode="&#x62f;" horiz-adv-x="975" arabic-form="isolated" 
d="M79 132c28 -3.33301 56.3369 -6.33203 85.0039 -8.99902s56.667 -5 84 -7s53.666 -3.5 78.999 -4.5s48 -1.5 68 -1.5c53.333 0 98.5 3.66699 135.5 11s67 18.666 90 33.999s39.5 35.166 49.5 59.499s15 53.166 15 86.499c0 43.333 -7.83301 88.833 -23.5 136.5
s-37.834 97.334 -66.501 149.001s-62.834 105.334 -102.501 161.001s-83.834 113.167 -132.501 172.5h144c105.333 -123.333 182 -236.833 230 -340.5s72 -199.167 72 -286.5c0 -58.667 -10 -108 -30 -148s-48 -72.333 -84 -97s-78.833 -42.5 -128.5 -53.5
s-104.5 -16.5 -164.5 -16.5c-39.333 0 -84.5 2 -135.5 6s-100.833 9.33301 -149.5 16z" />
    <glyph glyph-name="afii57424" unicode="&#x630;" horiz-adv-x="975" arabic-form="isolated" 
d="M79 132c28 -3.33301 56.3369 -6.33203 85.0039 -8.99902s56.667 -5 84 -7s53.666 -3.5 78.999 -4.5s48 -1.5 68 -1.5c53.333 0 98.5 3.66699 135.5 11s67 18.666 90 33.999s39.5 35.166 49.5 59.499s15 53.166 15 86.499c0 43.333 -7.83301 88.833 -23.5 136.5
s-37.834 97.334 -66.501 149.001s-62.834 105.334 -102.501 161.001s-83.834 113.167 -132.501 172.5h144c105.333 -123.333 182 -236.833 230 -340.5s72 -199.167 72 -286.5c0 -58.667 -10 -108 -30 -148s-48 -72.333 -84 -97s-78.833 -42.5 -128.5 -53.5
s-104.5 -16.5 -164.5 -16.5c-39.333 0 -84.5 2 -135.5 6s-100.833 9.33301 -149.5 16zM489.004 1174h-147v143h147v-143z" />
    <glyph glyph-name="afii57425" unicode="&#x631;" horiz-adv-x="812" arabic-form="isolated" 
d="M0 -315c38 -12.667 74.665 -22.334 109.998 -29.001s69.666 -10 102.999 -10c106.667 0 184.5 34.667 233.5 104s73.5 172.333 73.5 309c0 93.333 -11.167 186.333 -33.5 279s-50.833 183.667 -85.5 273h131c17.333 -43.333 32.833 -88.666 46.5 -135.999
s25.334 -95 35.001 -143s17 -95.333 22 -142s7.5 -91 7.5 -133c0 -92 -10.333 -172.167 -31 -240.5s-49.667 -125 -87 -170s-81.666 -78.667 -132.999 -101s-107.666 -33.5 -168.999 -33.5c-38 0 -75.833 4 -113.5 12s-74.167 19 -109.5 33v128z" />
    <glyph glyph-name="afii57426" unicode="&#x632;" horiz-adv-x="812" arabic-form="isolated" 
d="M0 -315c38 -12.667 74.665 -22.334 109.998 -29.001s69.666 -10 102.999 -10c106.667 0 184.5 34.667 233.5 104s73.5 172.333 73.5 309c0 93.333 -11.167 186.333 -33.5 279s-50.833 183.667 -85.5 273h131c17.333 -43.333 32.833 -88.666 46.5 -135.999
s25.334 -95 35.001 -143s17 -95.333 22 -142s7.5 -91 7.5 -133c0 -92 -10.333 -172.167 -31 -240.5s-49.667 -125 -87 -170s-81.666 -78.667 -132.999 -101s-107.666 -33.5 -168.999 -33.5c-38 0 -75.833 4 -113.5 12s-74.167 19 -109.5 33v128zM488.998 855h-147v143h147
v-143z" />
    <glyph glyph-name="afii57427" unicode="&#x633;" horiz-adv-x="2352" arabic-form="isolated" 
d="M289 245c-8.66699 -47.333 -14.832 -90.999 -18.499 -130.999s-5.5 -78 -5.5 -114c0 -63.333 6.5 -117.5 19.5 -162.5s33.667 -81.667 62 -110s64.833 -49.166 109.5 -62.499s99 -20 163 -20c64.667 0 121 7.83301 169 23.5s87.833 41 119.5 76
s55.334 80.167 71.001 135.5s23.5 122.666 23.5 201.999c0 55.333 -3.5 114.833 -10.5 178.5s-17.167 133.167 -30.5 208.5h119l9 -53.5l7.5 -48c2.33301 -15.667 4.5 -31.334 6.5 -47.001s4 -32.5 6 -50.5c6.66699 -52.667 28.167 -91.334 64.5 -116.001
s87.5 -37 153.5 -37c28 0 54.167 3.66699 78.5 11s45.5 19.333 63.5 36s32 38.667 42 66s15 60.666 15 99.999v242h120v-207c0 -43.333 3.5 -80.666 10.5 -111.999s18.833 -57 35.5 -77s38.667 -34.833 66 -44.5s61.333 -14.5 102 -14.5c30.667 0 58 3.5 82 10.5
s44.167 18.833 60.5 35.5s28.666 38.167 36.999 64.5s12.5 59.166 12.5 98.499v412h120v-419c0 -63.333 -8.16699 -116.166 -24.5 -158.499s-38.833 -76.5 -67.5 -102.5s-62 -44.5 -100 -55.5s-79 -16.5 -123 -16.5c-134 0 -224.333 45.667 -271 137h-4
c-28.667 -46.667 -65.667 -81.167 -111 -103.5s-95 -33.5 -149 -33.5c-48 0 -88.333 6.83301 -121 20.5s-58.667 31.5 -78 53.5l-5 -1c-2 -181.333 -44.833 -317.833 -128.5 -409.5s-210.5 -137.5 -380.5 -137.5c-81.333 0 -151.333 10.333 -210 31
s-106.834 50.834 -144.501 90.501s-65.5 88.5 -83.5 146.5s-27 124.667 -27 200c0 40 2.66699 81.833 8 125.5s13 90.167 23 139.5h114z" />
    <glyph glyph-name="afii57428" unicode="&#x634;" horiz-adv-x="2352" arabic-form="isolated" 
d="M289 245c-8.66699 -47.333 -14.832 -90.999 -18.499 -130.999s-5.5 -78 -5.5 -114c0 -63.333 6.5 -117.5 19.5 -162.5s33.667 -81.667 62 -110s64.833 -49.166 109.5 -62.499s99 -20 163 -20c64.667 0 121 7.83301 169 23.5s87.833 41 119.5 76
s55.334 80.167 71.001 135.5s23.5 122.666 23.5 201.999c0 55.333 -3.5 114.833 -10.5 178.5s-17.167 133.167 -30.5 208.5h119l9 -53.5l7.5 -48c2.33301 -15.667 4.5 -31.334 6.5 -47.001s4 -32.5 6 -50.5c6.66699 -52.667 28.167 -91.334 64.5 -116.001
s87.5 -37 153.5 -37c28 0 54.167 3.66699 78.5 11s45.5 19.333 63.5 36s32 38.667 42 66s15 60.666 15 99.999v242h120v-207c0 -43.333 3.5 -80.666 10.5 -111.999s18.833 -57 35.5 -77s38.667 -34.833 66 -44.5s61.333 -14.5 102 -14.5c30.667 0 58 3.5 82 10.5
s44.167 18.833 60.5 35.5s28.666 38.167 36.999 64.5s12.5 59.166 12.5 98.499v412h120v-419c0 -63.333 -8.16699 -116.166 -24.5 -158.499s-38.833 -76.5 -67.5 -102.5s-62 -44.5 -100 -55.5s-79 -16.5 -123 -16.5c-134 0 -224.333 45.667 -271 137h-4
c-28.667 -46.667 -65.667 -81.167 -111 -103.5s-95 -33.5 -149 -33.5c-48 0 -88.333 6.83301 -121 20.5s-58.667 31.5 -78 53.5l-5 -1c-2 -181.333 -44.833 -317.833 -128.5 -409.5s-210.5 -137.5 -380.5 -137.5c-81.333 0 -151.333 10.333 -210 31
s-106.834 50.834 -144.501 90.501s-65.5 88.5 -83.5 146.5s-27 124.667 -27 200c0 40 2.66699 81.833 8 125.5s13 90.167 23 139.5h114zM1534 855.001h-147v143h147v-143zM1794 855.001h-147v143h147v-143zM1664 1086h-147v143h147v-143z" />
    <glyph glyph-name="afii57429" unicode="&#x635;" horiz-adv-x="2639" arabic-form="isolated" 
d="M299 245c-8.66699 -47.333 -14.832 -90.9971 -18.499 -130.997s-5.5 -78 -5.5 -114c0 -63.333 6.5 -117.5 19.5 -162.5s33.667 -81.667 62 -110s64.833 -49.166 109.5 -62.499s99 -20 163 -20c64.667 0 121 7.83301 169 23.5s87.833 41 119.5 76
s55.334 80.167 71.001 135.5s23.5 122.666 23.5 201.999c0 55.333 -3.5 115.666 -10.5 180.999s-18.167 134 -33.5 206h118l10.5 -54.5c3 -16.333 5.66699 -32.333 8 -48l7 -47.5l7.5 -51c6 -42.667 21 -77.5 45 -104.5s61.667 -42.167 113 -45.5
c23.333 55.333 50.5 109.666 81.5 162.999s65.167 103.666 102.5 150.999s77.666 91.166 120.999 131.499s89.333 75 138 104s99.834 51.667 153.501 68s109.5 24.5 167.5 24.5c68.667 0 129.5 -10.667 182.5 -32s97.667 -51 134 -89s64 -83.333 83 -136
s28.5 -110.667 28.5 -174c0 -74 -11.667 -133.667 -35 -179s-57.833 -80.5 -103.5 -105.5s-101.834 -41.667 -168.5 -50c-66.667 -8.33301 -143.334 -12.5 -230.001 -12.5h-216.5c-62.333 0 -117 0.166992 -164 0.5s-87.5 1 -121.5 2s-63.167 2.16699 -87.5 3.5s-45 3 -62 5
s-32.167 4.33301 -45.5 7c-24 5.33301 -44.167 13.333 -60.5 24s-30.166 22.667 -41.499 36c-1.33301 0 -2.33301 -0.166992 -3 -0.5s-1.33398 -0.5 -2.00098 -0.5c-2 -181.333 -45 -317.833 -129 -409.5s-211.667 -137.5 -383 -137.5c-81.333 0 -151 10.333 -209 31
s-105.833 50.834 -143.5 90.501s-65.334 88.5 -83.001 146.5s-26.5 124.667 -26.5 200c0 40 2.66699 81.833 8 125.5s13 90.167 23 139.5h114zM1399 116.003c15.333 0 38.5029 -0.166992 69.5029 -0.5s65.5 -0.5 103.5 -0.5s77.667 -0.166992 119 -0.5
s80.666 -0.5 117.999 -0.5h100h64c66 0 122.5 2.66699 169.5 8s85.833 15.333 116.5 30s53.167 35.334 67.5 62.001s21.5 61 21.5 103c0 54 -8 100.5 -24 139.5s-38.167 71.167 -66.5 96.5s-62.333 44.166 -102 56.499s-82.834 18.5 -129.5 18.5
c-70 0 -136.333 -13.167 -199 -39.5s-120.834 -62.5 -174.501 -108.5s-101.834 -100.167 -144.501 -162.5s-79 -129.5 -109 -201.5z" />
    <glyph glyph-name="afii57430" unicode="&#x636;" horiz-adv-x="2639" arabic-form="isolated" 
d="M299 245c-8.66699 -47.333 -14.832 -90.9971 -18.499 -130.997s-5.5 -78 -5.5 -114c0 -63.333 6.5 -117.5 19.5 -162.5s33.667 -81.667 62 -110s64.833 -49.166 109.5 -62.499s99 -20 163 -20c64.667 0 121 7.83301 169 23.5s87.833 41 119.5 76
s55.334 80.167 71.001 135.5s23.5 122.666 23.5 201.999c0 55.333 -3.5 115.666 -10.5 180.999s-18.167 134 -33.5 206h118l10.5 -54.5c3 -16.333 5.66699 -32.333 8 -48l7 -47.5l7.5 -51c6 -42.667 21 -77.5 45 -104.5s61.667 -42.167 113 -45.5
c23.333 55.333 50.5 109.666 81.5 162.999s65.167 103.666 102.5 150.999s77.666 91.166 120.999 131.499s89.333 75 138 104s99.834 51.667 153.501 68s109.5 24.5 167.5 24.5c68.667 0 129.5 -10.667 182.5 -32s97.667 -51 134 -89s64 -83.333 83 -136
s28.5 -110.667 28.5 -174c0 -74 -11.667 -133.667 -35 -179s-57.833 -80.5 -103.5 -105.5s-101.834 -41.667 -168.5 -50c-66.667 -8.33301 -143.334 -12.5 -230.001 -12.5h-216.5c-62.333 0 -117 0.166992 -164 0.5s-87.5 1 -121.5 2s-63.167 2.16699 -87.5 3.5s-45 3 -62 5
s-32.167 4.33301 -45.5 7c-24 5.33301 -44.167 13.333 -60.5 24s-30.166 22.667 -41.499 36c-1.33301 0 -2.33301 -0.166992 -3 -0.5s-1.33398 -0.5 -2.00098 -0.5c-2 -181.333 -45 -317.833 -129 -409.5s-211.667 -137.5 -383 -137.5c-81.333 0 -151 10.333 -209 31
s-105.833 50.834 -143.5 90.501s-65.334 88.5 -83.001 146.5s-26.5 124.667 -26.5 200c0 40 2.66699 81.833 8 125.5s13 90.167 23 139.5h114zM1399 116.003c15.333 0 38.5029 -0.166992 69.5029 -0.5s65.5 -0.5 103.5 -0.5s77.667 -0.166992 119 -0.5
s80.666 -0.5 117.999 -0.5h100h64c66 0 122.5 2.66699 169.5 8s85.833 15.333 116.5 30s53.167 35.334 67.5 62.001s21.5 61 21.5 103c0 54 -8 100.5 -24 139.5s-38.167 71.167 -66.5 96.5s-62.333 44.166 -102 56.499s-82.834 18.5 -129.5 18.5
c-70 0 -136.333 -13.167 -199 -39.5s-120.834 -62.5 -174.501 -108.5s-101.834 -100.167 -144.501 -162.5s-79 -129.5 -109 -201.5zM1784 934.003h-147v143h147v-143z" />
    <glyph glyph-name="afii57431" unicode="&#x637;" horiz-adv-x="1663" arabic-form="isolated" 
d="M463 1516l-0.00195312 -1098l3 -1c32.667 48.667 70 94.5 112 137.5s87.833 80.833 137.5 113.5s103 58.5 160 77.5s117.5 28.5 181.5 28.5c68.667 0 129.667 -11 183 -33s98.5 -52.667 135.5 -92s65.167 -86.166 84.5 -140.499s29 -114.166 29 -179.499
c0 -73.333 -11.833 -132.666 -35.5 -177.999s-58.5 -80.5 -104.5 -105.5s-102.667 -41.833 -170 -50.5s-144.333 -13 -231 -13c-98.667 0 -185.167 0.166992 -259.5 0.5s-139.666 0.833008 -195.999 1.5s-105.333 1.5 -147 2.5s-79.167 2.16699 -112.5 3.5
s-63.833 3 -91.5 5l-83.5 6l-32 135c14.667 -2 32.334 -3.66699 53.001 -5s42.667 -2.66602 66 -3.99902s47.833 -2.5 73.5 -3.5s51.5 -1.83301 77.5 -2.5l22 47l24 50v1298h121zM988.998 113.996c66 0 122.831 2.66406 170.498 7.99707s87 15.333 118 30
s53.833 35.334 68.5 62.001s22 61 22 103c0 56 -8.16699 104.5 -24.5 145.5s-39 74.833 -68 101.5s-63.5 46.334 -103.5 59.001s-83.333 19 -130 19c-70 0 -136.167 -13.667 -198.5 -41s-120.166 -64.666 -173.499 -111.999s-101.166 -103 -143.499 -167
s-78.5 -132.667 -108.5 -206c32.667 -0.666992 71 -1.16699 115 -1.5s91 -0.5 141 -0.5h156h159z" />
    <glyph glyph-name="afii57432" unicode="&#x638;" horiz-adv-x="1663" arabic-form="isolated" 
d="M463 1516l-0.00195312 -1098l3 -1c32.667 48.667 70 94.5 112 137.5s87.833 80.833 137.5 113.5s103 58.5 160 77.5s117.5 28.5 181.5 28.5c68.667 0 129.667 -11 183 -33s98.5 -52.667 135.5 -92s65.167 -86.166 84.5 -140.499s29 -114.166 29 -179.499
c0 -73.333 -11.833 -132.666 -35.5 -177.999s-58.5 -80.5 -104.5 -105.5s-102.667 -41.833 -170 -50.5s-144.333 -13 -231 -13c-98.667 0 -185.167 0.166992 -259.5 0.5s-139.666 0.833008 -195.999 1.5s-105.333 1.5 -147 2.5s-79.167 2.16699 -112.5 3.5
s-63.833 3 -91.5 5l-83.5 6l-32 135c14.667 -2 32.334 -3.66699 53.001 -5s42.667 -2.66602 66 -3.99902s47.833 -2.5 73.5 -3.5s51.5 -1.83301 77.5 -2.5l22 47l24 50v1298h121zM988.998 113.996c66 0 122.831 2.66406 170.498 7.99707s87 15.333 118 30
s53.833 35.334 68.5 62.001s22 61 22 103c0 56 -8.16699 104.5 -24.5 145.5s-39 74.833 -68 101.5s-63.5 46.334 -103.5 59.001s-83.333 19 -130 19c-70 0 -136.167 -13.667 -198.5 -41s-120.166 -64.666 -173.499 -111.999s-101.166 -103 -143.499 -167
s-78.5 -132.667 -108.5 -206c32.667 -0.666992 71 -1.16699 115 -1.5s91 -0.5 141 -0.5h156h159zM1046 933.993h-147v143h147v-143z" />
    <glyph glyph-name="afii57433" unicode="&#x639;" horiz-adv-x="1026" arabic-form="isolated" 
d="M815 436c-114 -28.667 -209.502 -61.001 -286.502 -97.001s-138.667 -74.5 -185 -115.5s-79.333 -84 -99 -129s-29.5 -91.5 -29.5 -139.5c0 -50 8.83301 -95.333 26.5 -136s44.167 -75.667 79.5 -105s80 -52 134 -68s117 -24 189 -24
c72.667 0 141.834 6.33301 207.501 19s126.834 30 183.501 52v-122c-62 -24 -125.167 -42.333 -189.5 -55s-131.833 -19 -202.5 -19c-94 0 -175.667 11.167 -245 33.5s-127 53.166 -173 92.499s-80.167 85.833 -102.5 139.5s-33.5 111.5 -33.5 173.5
c0 34.667 4 69.667 12 105s21 70.5 39 105.5s41.167 69.333 69.5 103s62.833 65.5 103.5 95.5c-46 40.667 -81.167 87.334 -105.5 140.001s-36.5 107 -36.5 163c0 50.667 9.66699 98.834 29 144.501s47 86 83 121s79.833 62.833 131.5 83.5s109.5 31 173.5 31
c54 0 107.667 -6 161 -18v-134c-26 6 -53.5 10.833 -82.5 14.5s-58.5 5.5 -88.5 5.5c-40 0 -77.167 -5.33301 -111.5 -16s-64.333 -26.5 -90 -47.5s-45.667 -47.167 -60 -78.5s-21.5 -68 -21.5 -110c0 -51.333 10 -97.333 30 -138s48 -73 84 -97
c50 28 108.833 55.833 176.5 83.5s144.167 52.167 229.5 73.5v-130z" />
    <glyph glyph-name="afii57434" unicode="&#x63a;" horiz-adv-x="1026" arabic-form="isolated" 
d="M815 436c-114 -28.667 -209.502 -61.001 -286.502 -97.001s-138.667 -74.5 -185 -115.5s-79.333 -84 -99 -129s-29.5 -91.5 -29.5 -139.5c0 -50 8.83301 -95.333 26.5 -136s44.167 -75.667 79.5 -105s80 -52 134 -68s117 -24 189 -24
c72.667 0 141.834 6.33301 207.501 19s126.834 30 183.501 52v-122c-62 -24 -125.167 -42.333 -189.5 -55s-131.833 -19 -202.5 -19c-94 0 -175.667 11.167 -245 33.5s-127 53.166 -173 92.499s-80.167 85.833 -102.5 139.5s-33.5 111.5 -33.5 173.5
c0 34.667 4 69.667 12 105s21 70.5 39 105.5s41.167 69.333 69.5 103s62.833 65.5 103.5 95.5c-46 40.667 -81.167 87.334 -105.5 140.001s-36.5 107 -36.5 163c0 50.667 9.66699 98.834 29 144.501s47 86 83 121s79.833 62.833 131.5 83.5s109.5 31 173.5 31
c54 0 107.667 -6 161 -18v-134c-26 6 -53.5 10.833 -82.5 14.5s-58.5 5.5 -88.5 5.5c-40 0 -77.167 -5.33301 -111.5 -16s-64.333 -26.5 -90 -47.5s-45.667 -47.167 -60 -78.5s-21.5 -68 -21.5 -110c0 -51.333 10 -97.333 30 -138s48 -73 84 -97
c50 28 108.833 55.833 176.5 83.5s144.167 52.167 229.5 73.5v-130zM534.998 1174h-147v143h147v-143z" />
    <glyph glyph-name="uni063B.init" unicode="&#x63b;" horiz-adv-x="975" 
d="M0 -14c-20 0 -35 6.33301 -45 19s-15 28 -15 46c0 18.667 5 34.334 15 47.001s25 19 45 19h289c72.667 0 132.667 4.5 180 13.5s84.833 22 112.5 39s47 38 58 63s16.5 53.167 16.5 84.5c0 45.333 -12.5 89.666 -37.5 132.999s-64.167 87.333 -117.5 132
s-121.333 91 -204 139s-181.667 99.333 -297 154v117l855 547v-141l-728 -457c120 -56 221.333 -109.667 304 -161s149.667 -102 201 -152s88.333 -100 111 -150s34 -102 34 -156c0 -42 -7 -83 -21 -123s-38.833 -75.833 -74.5 -107.5s-84 -57.167 -145 -76.5
s-138.833 -29 -233.5 -29h-303zM215 1498h-147v143h147v-143zM475 1498h-147v143h147v-143z" />
    <glyph glyph-name="uni063B.medi" unicode="&#x63b;" horiz-adv-x="1026" 
d="M-44.5 5c-10.333 12.667 -15.499 28.335 -15.499 47.002c0 16 4.83301 30.833 14.5 44.5s24.834 20.5 45.501 20.5h289c68 0 125.5 4.16699 172.5 12.5s84.833 21 113.5 38s49.334 37.833 62.001 62.5s19 53.667 19 87c0 45.333 -12.5 89.666 -37.5 132.999
s-64.167 87.333 -117.5 132s-121.333 91 -204 139s-181.667 99.333 -297 154v117l855 547v-141l-728 -457c87.333 -41.333 163.166 -80 227.499 -116s119.666 -70.667 165.999 -104s84.666 -65.333 114.999 -96s55.166 -61.334 74.499 -92.001s34.166 -61.667 44.499 -93
s18.5 -64 24.5 -98c5.33301 -30 12.666 -58.5 21.999 -85.5s23 -50.833 41 -71.5s41.833 -37.167 71.5 -49.5s67.167 -18.5 112.5 -18.5v-131h-35c-59.333 0 -111.833 13.167 -157.5 39.5s-80.5 67.5 -104.5 123.5h-4c-15.333 -24.667 -35.166 -47 -59.499 -67
s-53.833 -37.167 -88.5 -51.5s-74.667 -25.333 -120 -33s-96.666 -11.5 -153.999 -11.5h-303c-19.333 0 -34.166 6.33301 -44.499 19zM215.001 1498h-147v143h147v-143zM475.001 1498h-147v143h147v-143z" />
    <glyph glyph-name="uni063B.fina" unicode="&#x63b;" horiz-adv-x="1881" 
d="M1366 142c48.667 15.333 84.3369 37.332 107.004 65.999s34 65 34 109c0 45.333 -12.333 89.666 -37 132.999s-63.334 87.5 -116.001 132.5s-120.167 91.667 -202.5 140s-181.166 99.5 -296.499 153.5v117l855 546v-141l-728 -455
c87.333 -41.333 163.166 -80.166 227.499 -116.499s119.5 -71 165.5 -104s84 -65.167 114 -96.5s54.333 -62.333 73 -93s33.167 -61.667 43.5 -93s18.5 -64 24.5 -98c5.33301 -30 12.666 -58.5 21.999 -85.5s23.333 -50.833 42 -71.5s43 -37.167 73 -49.5
s68 -18.5 114 -18.5v-131h-38c-59.333 0 -112 13.167 -158 39.5s-81 67.5 -105 123.5h-4c-20 -29.333 -43.5 -54.166 -70.5 -74.499s-60.5 -37.166 -100.5 -50.499c-27.333 -9.33301 -56.5 -16.833 -87.5 -22.5s-66 -10.334 -105 -14.001s-83 -6.16699 -132 -7.5
s-104.833 -2 -167.5 -2c-86.667 0 -163 1.5 -229 4.5s-124 8.5 -174 16.5s-92.833 18.667 -128.5 32s-66.167 30.333 -91.5 51c-40.667 32 -70.667 71.5 -90 118.5s-29 100.833 -29 161.5c0 36 2.83301 72.167 8.5 108.5s12.5 70.5 20.5 102.5h118
c-7.33301 -26.667 -13.5 -56 -18.5 -88s-7.5 -65.667 -7.5 -101c0 -46 6.83301 -85.5 20.5 -118.5s35.5 -60.167 65.5 -81.5c18 -12.667 41 -23.667 69 -33s64.167 -17 108.5 -23s98.166 -10.5 161.499 -13.5s139.666 -4.5 228.999 -4.5c52 0 99.333 0.5 142 1.5
s81 2.66699 115 5s64.333 5.5 91 9.5s50.667 9.33301 72 16zM1066 1498h-147v143h147v-143zM1326 1498h-147v143h147v-143z" />
    <glyph glyph-name="uni063C.init" unicode="&#x63c;" horiz-adv-x="975" 
d="M0 -14c-20 0 -35 6.33301 -45 19s-15 28 -15 46c0 18.667 5 34.334 15 47.001s25 19 45 19h289c72.667 0 132.667 4.5 180 13.5s84.833 22 112.5 39s47 38 58 63s16.5 53.167 16.5 84.5c0 45.333 -12.5 89.666 -37.5 132.999s-64.167 87.333 -117.5 132
s-121.333 91 -204 139s-181.667 99.333 -297 154v117l855 547v-141l-728 -457c120 -56 221.333 -109.667 304 -161s149.667 -102 201 -152s88.333 -100 111 -150s34 -102 34 -156c0 -42 -7 -83 -21 -123s-38.833 -75.833 -74.5 -107.5s-84 -57.167 -145 -76.5
s-138.833 -29 -233.5 -29h-303zM384 -327h-148v143h148v-143zM643 -327h-147v143h147v-143zM514 -550h-147v143h147v-143z" />
    <glyph glyph-name="uni063C.medi" unicode="&#x63c;" horiz-adv-x="1026" 
d="M-44.5 5c-10.333 12.667 -15.499 28.335 -15.499 47.002c0 16 4.83301 30.833 14.5 44.5s24.834 20.5 45.501 20.5h289c68 0 125.5 4.16699 172.5 12.5s84.833 21 113.5 38s49.334 37.833 62.001 62.5s19 53.667 19 87c0 45.333 -12.5 89.666 -37.5 132.999
s-64.167 87.333 -117.5 132s-121.333 91 -204 139s-181.667 99.333 -297 154v117l855 547v-141l-728 -457c87.333 -41.333 163.166 -80 227.499 -116s119.666 -70.667 165.999 -104s84.666 -65.333 114.999 -96s55.166 -61.334 74.499 -92.001s34.166 -61.667 44.499 -93
s18.5 -64 24.5 -98c5.33301 -30 12.666 -58.5 21.999 -85.5s23 -50.833 41 -71.5s41.833 -37.167 71.5 -49.5s67.167 -18.5 112.5 -18.5v-131h-35c-59.333 0 -111.833 13.167 -157.5 39.5s-80.5 67.5 -104.5 123.5h-4c-15.333 -24.667 -35.166 -47 -59.499 -67
s-53.833 -37.167 -88.5 -51.5s-74.667 -25.333 -120 -33s-96.666 -11.5 -153.999 -11.5h-303c-19.333 0 -34.166 6.33301 -44.499 19zM384.001 -326.999h-148v143h148v-143zM643.001 -326.999h-147v143h147v-143zM514.001 -549.999h-147v143h147v-143z" />
    <glyph glyph-name="uni063C.fina" unicode="&#x63c;" horiz-adv-x="1881" 
d="M1366 142c48.667 15.333 84.3369 37.332 107.004 65.999s34 65 34 109c0 45.333 -12.333 89.666 -37 132.999s-63.334 87.5 -116.001 132.5s-120.167 91.667 -202.5 140s-181.166 99.5 -296.499 153.5v117l855 546v-141l-728 -455
c87.333 -41.333 163.166 -80.166 227.499 -116.499s119.5 -71 165.5 -104s84 -65.167 114 -96.5s54.333 -62.333 73 -93s33.167 -61.667 43.5 -93s18.5 -64 24.5 -98c5.33301 -30 12.666 -58.5 21.999 -85.5s23.333 -50.833 42 -71.5s43 -37.167 73 -49.5
s68 -18.5 114 -18.5v-131h-38c-59.333 0 -112 13.167 -158 39.5s-81 67.5 -105 123.5h-4c-20 -29.333 -43.5 -54.166 -70.5 -74.499s-60.5 -37.166 -100.5 -50.499c-27.333 -9.33301 -56.5 -16.833 -87.5 -22.5s-66 -10.334 -105 -14.001s-83 -6.16699 -132 -7.5
s-104.833 -2 -167.5 -2c-86.667 0 -163 1.5 -229 4.5s-124 8.5 -174 16.5s-92.833 18.667 -128.5 32s-66.167 30.333 -91.5 51c-40.667 32 -70.667 71.5 -90 118.5s-29 100.833 -29 161.5c0 36 2.83301 72.167 8.5 108.5s12.5 70.5 20.5 102.5h118
c-7.33301 -26.667 -13.5 -56 -18.5 -88s-7.5 -65.667 -7.5 -101c0 -46 6.83301 -85.5 20.5 -118.5s35.5 -60.167 65.5 -81.5c18 -12.667 41 -23.667 69 -33s64.167 -17 108.5 -23s98.166 -10.5 161.499 -13.5s139.666 -4.5 228.999 -4.5c52 0 99.333 0.5 142 1.5
s81 2.66699 115 5s64.333 5.5 91 9.5s50.667 9.33301 72 16zM873.003 -327.001h-148v143h148v-143zM1132 -327.001h-147v143h147v-143zM1003 -550.001h-147v143h147v-143z" />
    <glyph glyph-name="uni063D.init" unicode="&#x63d;" horiz-adv-x="684" 
d="M441 738l-0.00195312 -407.001c0 -68.667 -8.66699 -125.167 -26 -169.5s-41 -79.5 -71 -105.5s-65.167 -44.167 -105.5 -54.5s-83.166 -15.5 -128.499 -15.5h-110c-23.333 0 -40.833 6.33301 -52.5 19s-17.5 28.334 -17.5 47.001c0 18 5.83301 33.333 17.5 46
s29.167 19 52.5 19h115c34.667 0 64.834 3.5 90.501 10.5s47 18.667 64 35s29.833 38.333 38.5 66s13 62.167 13 103.5v406h120zM427.998 1285l233 -352h-105l-177 264l-177 -264h-103l231 352h98zM261.998 -327.001h-147v143h147v-143zM521.998 -327.001h-147v143h147v-143
z" />
    <glyph glyph-name="uni063D.medi" unicode="&#x63d;" horiz-adv-x="684" 
d="M441 338c0 -44 4.16504 -80.3359 12.498 -109.003s22 -51.167 41 -67.5s44 -27.833 75 -34.5s69.167 -10 114.5 -10v-131h-52c-67.333 0 -122.166 11 -164.499 33s-72.5 52.667 -90.5 92h-4c-25.333 -42 -59.666 -73.333 -102.999 -94s-91 -31 -143 -31h-127
c-23.333 0 -40.833 6.33301 -52.5 19s-17.5 28.334 -17.5 47.001c0 18 5.83301 33.333 17.5 46s29.167 19 52.5 19h124c26.667 0 52 3.33301 76 10s45 17.334 63 32.001s32.167 33.834 42.5 57.501s15.5 52.5 15.5 86.5v435h120v-400zM427.998 1285l233 -352h-105l-177 264
l-177 -264h-103l231 352h98zM317.998 -327.003h-147v143h147v-143zM577.998 -327.003h-147v143h147v-143z" />
    <glyph glyph-name="uni063D.fina" unicode="&#x63d;" horiz-adv-x="1710" 
d="M323 493c-9.33301 -42.667 -16.9971 -82.4961 -22.9971 -119.496s-9 -76.167 -9 -117.5c0 -58.667 6.83301 -111.334 20.5 -158.001s37.167 -86.167 70.5 -118.5s78.333 -57 135 -74s128 -25.5 214 -25.5c59.333 0 112 4 158 12s84.667 19 116 33
s55.166 30.667 71.499 50s24.5 40.333 24.5 63s-6.66699 42.167 -20 58.5s-27.833 33.166 -43.5 50.499s-30.167 37.166 -43.5 59.499s-20 50.833 -20 85.5c0 32 6 61.667 18 89s28.167 50.666 48.5 69.999s44 34.5 71 45.5s55.5 16.5 85.5 16.5c42 0 80.167 -12 114.5 -36
s66.833 -64.667 97.5 -122l67.5 -117c18.333 -30.667 37.666 -55 57.999 -73s43.833 -30.5 70.5 -37.5s61.667 -10.5 105 -10.5v-131h-52c-38 0 -72 4.66699 -102 14s-57.833 25 -83.5 47s-50.667 50.667 -75 86s-49.833 79 -76.5 131
c-11.333 23.333 -22.166 42.833 -32.499 58.5s-20.5 28.334 -30.5 38.001s-20.333 16.5 -31 20.5s-22.334 6 -35.001 6c-28 0 -51.5 -8.16699 -70.5 -24.5s-28.5 -37.833 -28.5 -64.5c0 -16 3.16699 -30.167 9.5 -42.5s14.166 -24.166 23.499 -35.499s19.5 -22.5 30.5 -33.5
s21.167 -23.333 30.5 -37s17.166 -28.834 23.499 -45.501s9.5 -36.334 9.5 -59.001c0 -48 -13.5 -90.667 -40.5 -128s-64 -68.5 -111 -93.5s-102.333 -44 -166 -57s-132.5 -19.5 -206.5 -19.5c-97.333 0 -179.333 12 -246 36s-120.667 57.5 -162 100.5
s-71.166 94.667 -89.499 155s-27.5 126.833 -27.5 199.5c0 42 3 83.5 9 124.5s14.667 84.5 26 130.5h117zM799.003 1057l233 -352h-105l-177 264l-177 -264h-103l231 352h98z" />
    <glyph glyph-name="uni063E.init" unicode="&#x63e;" horiz-adv-x="612" 
d="M441 738l-0.00195312 -407.001c0 -68.667 -8.66699 -125.167 -26 -169.5s-41 -79.5 -71 -105.5s-65.167 -44.167 -105.5 -54.5s-83.166 -15.5 -128.499 -15.5h-110c-23.333 0 -40.833 6.33301 -52.5 19s-17.5 28.334 -17.5 47.001c0 18 5.83301 33.333 17.5 46
s29.167 19 52.5 19h115c34.667 0 64.834 3.5 90.501 10.5s47 18.667 64 35s29.833 38.333 38.5 66s13 62.167 13 103.5v406h120zM261.998 -327.001h-147v143h147v-143zM521.998 -327.001h-147v143h147v-143zM321.998 933.999h-147v143h147v-143zM581.998 933.999h-147v143
h147v-143z" />
    <glyph glyph-name="uni063E.medi" unicode="&#x63e;" horiz-adv-x="684" 
d="M441 338c0 -44 4.16504 -80.3359 12.498 -109.003s22 -51.167 41 -67.5s44 -27.833 75 -34.5s69.167 -10 114.5 -10v-131h-52c-67.333 0 -122.166 11 -164.499 33s-72.5 52.667 -90.5 92h-4c-25.333 -42 -59.666 -73.333 -102.999 -94s-91 -31 -143 -31h-127
c-23.333 0 -40.833 6.33301 -52.5 19s-17.5 28.334 -17.5 47.001c0 18 5.83301 33.333 17.5 46s29.167 19 52.5 19h124c26.667 0 52 3.33301 76 10s45 17.334 63 32.001s32.167 33.834 42.5 57.501s15.5 52.5 15.5 86.5v435h120v-400zM321.998 933.997h-147v143h147v-143z
M581.998 933.997h-147v143h147v-143zM317.998 -327.003h-147v143h147v-143zM577.998 -327.003h-147v143h147v-143z" />
    <glyph glyph-name="uni063E.fina" unicode="&#x63e;" horiz-adv-x="1710" 
d="M323 493c-9.33301 -42.667 -16.9971 -82.4961 -22.9971 -119.496s-9 -76.167 -9 -117.5c0 -58.667 6.83301 -111.334 20.5 -158.001s37.167 -86.167 70.5 -118.5s78.333 -57 135 -74s128 -25.5 214 -25.5c59.333 0 112 4 158 12s84.667 19 116 33
s55.166 30.667 71.499 50s24.5 40.333 24.5 63s-6.66699 42.167 -20 58.5s-27.833 33.166 -43.5 50.499s-30.167 37.166 -43.5 59.499s-20 50.833 -20 85.5c0 32 6 61.667 18 89s28.167 50.666 48.5 69.999s44 34.5 71 45.5s55.5 16.5 85.5 16.5c42 0 80.167 -12 114.5 -36
s66.833 -64.667 97.5 -122l67.5 -117c18.333 -30.667 37.666 -55 57.999 -73s43.833 -30.5 70.5 -37.5s61.667 -10.5 105 -10.5v-131h-52c-38 0 -72 4.66699 -102 14s-57.833 25 -83.5 47s-50.667 50.667 -75 86s-49.833 79 -76.5 131
c-11.333 23.333 -22.166 42.833 -32.499 58.5s-20.5 28.334 -30.5 38.001s-20.333 16.5 -31 20.5s-22.334 6 -35.001 6c-28 0 -51.5 -8.16699 -70.5 -24.5s-28.5 -37.833 -28.5 -64.5c0 -16 3.16699 -30.167 9.5 -42.5s14.166 -24.166 23.499 -35.499s19.5 -22.5 30.5 -33.5
s21.167 -23.333 30.5 -37s17.166 -28.834 23.499 -45.501s9.5 -36.334 9.5 -59.001c0 -48 -13.5 -90.667 -40.5 -128s-64 -68.5 -111 -93.5s-102.333 -44 -166 -57s-132.5 -19.5 -206.5 -19.5c-97.333 0 -179.333 12 -246 36s-120.667 57.5 -162 100.5
s-71.166 94.667 -89.499 155s-27.5 126.833 -27.5 199.5c0 42 3 83.5 9 124.5s14.667 84.5 26 130.5h117zM656.003 732.004h-147v143h147v-143zM916.003 732.004h-147v143h147v-143z" />
    <glyph glyph-name="uni063F.init" unicode="&#x63f;" horiz-adv-x="612" 
d="M441 738l-0.00195312 -407.001c0 -68.667 -8.66699 -125.167 -26 -169.5s-41 -79.5 -71 -105.5s-65.167 -44.167 -105.5 -54.5s-83.166 -15.5 -128.499 -15.5h-110c-23.333 0 -40.833 6.33301 -52.5 19s-17.5 28.334 -17.5 47.001c0 18 5.83301 33.333 17.5 46
s29.167 19 52.5 19h115c34.667 0 64.834 3.5 90.501 10.5s47 18.667 64 35s29.833 38.333 38.5 66s13 62.167 13 103.5v406h120zM321.998 933.999h-147v143h147v-143zM581.998 933.999h-147v143h147v-143zM451.998 1165h-147v143h147v-143zM261.998 -327.001h-147v143h147
v-143zM521.998 -327.001h-147v143h147v-143z" />
    <glyph glyph-name="uni063F.medi" unicode="&#x63f;" horiz-adv-x="684" 
d="M441 338c0 -44 4.16504 -80.3359 12.498 -109.003s22 -51.167 41 -67.5s44 -27.833 75 -34.5s69.167 -10 114.5 -10v-131h-52c-67.333 0 -122.166 11 -164.499 33s-72.5 52.667 -90.5 92h-4c-25.333 -42 -59.666 -73.333 -102.999 -94s-91 -31 -143 -31h-127
c-23.333 0 -40.833 6.33301 -52.5 19s-17.5 28.334 -17.5 47.001c0 18 5.83301 33.333 17.5 46s29.167 19 52.5 19h124c26.667 0 52 3.33301 76 10s45 17.334 63 32.001s32.167 33.834 42.5 57.501s15.5 52.5 15.5 86.5v435h120v-400zM321.998 933.997h-147v143h147v-143z
M581.998 933.997h-147v143h147v-143zM451.998 1165h-147v143h147v-143zM317.998 -327.003h-147v143h147v-143zM577.998 -327.003h-147v143h147v-143z" />
    <glyph glyph-name="uni063F.fina" unicode="&#x63f;" horiz-adv-x="1710" 
d="M323 493c-9.33301 -42.667 -16.9971 -82.4961 -22.9971 -119.496s-9 -76.167 -9 -117.5c0 -58.667 6.83301 -111.334 20.5 -158.001s37.167 -86.167 70.5 -118.5s78.333 -57 135 -74s128 -25.5 214 -25.5c59.333 0 112 4 158 12s84.667 19 116 33
s55.166 30.667 71.499 50s24.5 40.333 24.5 63s-6.66699 42.167 -20 58.5s-27.833 33.166 -43.5 50.499s-30.167 37.166 -43.5 59.499s-20 50.833 -20 85.5c0 32 6 61.667 18 89s28.167 50.666 48.5 69.999s44 34.5 71 45.5s55.5 16.5 85.5 16.5c42 0 80.167 -12 114.5 -36
s66.833 -64.667 97.5 -122l67.5 -117c18.333 -30.667 37.666 -55 57.999 -73s43.833 -30.5 70.5 -37.5s61.667 -10.5 105 -10.5v-131h-52c-38 0 -72 4.66699 -102 14s-57.833 25 -83.5 47s-50.667 50.667 -75 86s-49.833 79 -76.5 131
c-11.333 23.333 -22.166 42.833 -32.499 58.5s-20.5 28.334 -30.5 38.001s-20.333 16.5 -31 20.5s-22.334 6 -35.001 6c-28 0 -51.5 -8.16699 -70.5 -24.5s-28.5 -37.833 -28.5 -64.5c0 -16 3.16699 -30.167 9.5 -42.5s14.166 -24.166 23.499 -35.499s19.5 -22.5 30.5 -33.5
s21.167 -23.333 30.5 -37s17.166 -28.834 23.499 -45.501s9.5 -36.334 9.5 -59.001c0 -48 -13.5 -90.667 -40.5 -128s-64 -68.5 -111 -93.5s-102.333 -44 -166 -57s-132.5 -19.5 -206.5 -19.5c-97.333 0 -179.333 12 -246 36s-120.667 57.5 -162 100.5
s-71.166 94.667 -89.499 155s-27.5 126.833 -27.5 199.5c0 42 3 83.5 9 124.5s14.667 84.5 26 130.5h117zM656.003 732.004h-147v143h147v-143zM916.003 732.004h-147v143h147v-143zM786.003 963.004h-147v143h147v-143z" />
    <glyph glyph-name="afii57441" unicode="&#x641;" horiz-adv-x="1988" arabic-form="isolated" 
d="M318 573c-7.33301 -26.667 -13.5 -55.9961 -18.5 -87.9961s-7.5 -65.667 -7.5 -101c0 -46 6.83301 -85.667 20.5 -119s35.5 -60.333 65.5 -81c20.667 -14 46.667 -25.833 78 -35.5s72.666 -17.334 123.999 -23.001s115.333 -9.66699 192 -12s171 -3.5 283 -3.5
c56 0 104.5 0.166992 145.5 0.5s76.667 0.666016 107 0.999023s56.333 1 78 2s41.167 2.16699 58.5 3.5c0.666992 1.33301 1 2.33301 1 3s0.333008 1.66699 1 3c-82 36.667 -140.833 79.167 -176.5 127.5s-53.5 102.5 -53.5 162.5c0 43.333 7.83301 87.666 23.5 132.999
s37 86.5 64 123.5s58.167 67.167 93.5 90.5s72.666 35 111.999 35c83.333 0 160 -51.667 230 -155c28 -41.333 50.333 -87.5 67 -138.5s25 -103.5 25 -157.5c0 -70 -14 -128.5 -42 -175.5s-68.167 -84.5 -120.5 -112.5s-116 -48 -191 -60s-159.5 -18 -253.5 -18h-276
c-93.333 0 -175.166 1.5 -245.499 4.5s-131.666 8.33301 -183.999 16s-97 18.167 -134 31.5s-68.5 30.666 -94.5 51.999c-40.667 32 -70.667 71.5 -90 118.5s-29 100.833 -29 161.5c0 36 2.83301 72.167 8.5 108.5s12.5 70.5 20.5 102.5h118zM1710 340.004
c0 32 -5.99902 66.667 -17.999 104s-28 72 -48 104s-42.5 58.833 -67.5 80.5s-50.5 32.5 -76.5 32.5c-20 0 -39.833 -7.16699 -59.5 -21.5s-37.334 -33 -53.001 -56s-28.5 -48.5 -38.5 -76.5s-15 -56 -15 -84c0 -26 4.33301 -50 13 -72s23.5 -43.333 44.5 -64
s48.833 -41.667 83.5 -63s78 -44.333 130 -69c32 16 57.5 39.833 76.5 71.5s28.5 69.5 28.5 113.5zM1571 1031h-147v143h147v-143z" />
    <glyph glyph-name="afii57442" unicode="&#x642;" horiz-adv-x="1462" arabic-form="isolated" 
d="M1201 24c-27.333 -12.667 -56.8311 -22.1699 -88.498 -28.5029s-64.167 -9.5 -97.5 -9.5c-43.333 0 -84.833 7 -124.5 21s-74.834 34 -105.501 60s-55.167 57.5 -73.5 94.5s-27.5 78.5 -27.5 124.5c0 42 8 84.833 24 128.5s37.833 83.334 65.5 119.001
s59.834 64.834 96.501 87.501s76 34 118 34c50 0 94.5 -15 133.5 -45s74.833 -73 107.5 -129s56.334 -120.5 71.001 -193.5s22 -147.167 22 -222.5c0 -94.667 -11.667 -176.667 -35 -246s-59.833 -126.833 -109.5 -172.5s-112.834 -79.5 -189.501 -101.5s-168 -33 -274 -33
c-95.333 0 -177.166 10 -245.499 30s-124.5 49.667 -168.5 89s-76.5 88 -97.5 146s-31.5 125 -31.5 201c0 42 2.5 86.333 7.5 133s12.167 96 21.5 148h115c-7.33301 -50 -13 -95.833 -17 -137.5s-6 -80.5 -6 -116.5c0 -64 7.83301 -118.667 23.5 -164
s40.667 -82.666 75 -111.999s79.166 -50.833 134.499 -64.5s122.666 -20.5 201.999 -20.5c94.667 0 172 8.66699 232 26s107.333 42.5 142 75.5s59.167 72.833 73.5 119.5s23.166 99.667 26.499 159zM1197 149.997c-1.33301 40.667 -8.16797 82.835 -20.501 126.502
s-28.333 83.667 -48 120s-42.167 66.166 -67.5 89.499s-51.666 35 -78.999 35c-22 0 -43.5 -6.33301 -64.5 -19s-39.5 -29.334 -55.5 -50.001s-29 -44.5 -39 -71.5s-15 -54.5 -15 -82.5s5.83301 -53.167 17.5 -75.5s27.5 -41.333 47.5 -57s43.333 -27.667 70 -36
s55.334 -12.5 86.001 -12.5c31.333 0 61.166 2.5 89.499 7.5s54.5 13.5 78.5 25.5zM912 933.998h-147v143h147v-143zM1172 933.998h-147v143h147v-143z" />
    <glyph glyph-name="afii57443" unicode="&#x643;" horiz-adv-x="1663" arabic-form="isolated" 
d="M318 573c-7.33301 -26.667 -13.5049 -56.002 -18.5049 -88.002s-7.5 -65.667 -7.5 -101c0 -46 6.66699 -85.5 20 -118.5s35.333 -60.167 66 -81.5c18 -12.667 39.5 -23.5 64.5 -32.5s57.5 -16.167 97.5 -21.5s89.333 -9.33301 148 -12s130.334 -4 215.001 -4
c84 0 155.5 3 214.5 9s107 17.667 144 35s64 41.666 81 72.999s25.5 72.333 25.5 123v1159h120v-1172c0 -78 -13.833 -140.667 -41.5 -188s-67.5 -83.666 -119.5 -108.999s-115.667 -42 -191 -50s-160.666 -12 -255.999 -12c-84 0 -157.167 1.33301 -219.5 4
s-116.666 7.66699 -162.999 15s-86.166 17.5 -119.499 30.5s-62.666 29.833 -87.999 50.5c-41.333 32.667 -71.5 72.334 -90.5 119.001s-28.5 100.334 -28.5 161.001c0 36 2.66699 72.167 8 108.5s12.333 70.5 21 102.5h118zM683.995 684.998
c72.667 2 126.504 11.6689 161.504 29.002s52.5 36.666 52.5 57.999c0 11.333 -5.33301 21.333 -16 30s-29.334 20 -56.001 34c-28 15.333 -50.5 31.333 -67.5 48s-25.5 39 -25.5 67c0 22 6.83301 42.667 20.5 62s33.167 36.833 58.5 52.5s56 29.334 92 41.001
s76.333 20.5 121 26.5v-85c-70 -9.33301 -120.5 -22 -151.5 -38s-46.5 -33 -46.5 -51c0 -12.667 5.16699 -23.334 15.5 -32.001s28.166 -20 53.499 -34c29.333 -16 52.666 -32.333 69.999 -49s26 -38.334 26 -65.001c0 -22 -6.33301 -43.167 -19 -63.5
s-31.834 -38.666 -57.501 -54.999s-57.667 -29.833 -96 -40.5s-83.5 -17.334 -135.5 -20.001v85z" />
    <glyph glyph-name="afii57444" unicode="&#x644;" horiz-adv-x="1317" arabic-form="isolated" 
d="M287 387c-9.33301 -46 -15.6699 -88.667 -19.0029 -128s-5 -76.666 -5 -111.999c0 -63.333 6.66699 -117.5 20 -162.5s34.5 -81.833 63.5 -110.5s66.333 -49.834 112 -63.501s100.834 -20.5 165.501 -20.5c70.667 0 131.334 8.16699 182.001 24.5s92.334 42 125.001 77
s56.667 80.333 72 136s23 123.167 23 202.5v1286h120v-1292c0 -92.667 -9.83301 -174.167 -29.5 -244.5s-51 -129.333 -94 -177s-98.333 -83.667 -166 -108s-149.5 -36.5 -245.5 -36.5c-81.333 0 -151.5 10.333 -210.5 31s-107.5 51 -145.5 91s-66.167 89 -84.5 147
s-27.5 124.667 -27.5 200c0 40 2.5 81.333 7.5 124s12.5 88 22.5 136h114z" />
    <glyph glyph-name="afii57445" unicode="&#x645;" horiz-adv-x="1137" arabic-form="isolated" 
d="M350 169c18 97.333 41.666 177.499 70.999 240.499s60.833 112.667 94.5 149s68.167 61.666 103.5 75.999s68.666 21.5 99.999 21.5c46.667 0 88.834 -11.5 126.501 -34.5s69.834 -52.333 96.501 -88s47.334 -75.5 62.001 -119.5s22 -87 22 -129
c0 -39.333 -6 -77.166 -18 -113.499s-29.667 -68.333 -53 -96s-52.833 -49.667 -88.5 -66s-76.834 -24.5 -123.501 -24.5c-34.667 0 -68.667 3.16699 -102 9.5s-65.5 13.333 -96.5 21s-60.833 14.667 -89.5 21s-56 9.5 -82 9.5c-26.667 0 -49.667 -4.66699 -69 -14
s-35.333 -22.333 -48 -39s-22.167 -36.667 -28.5 -60s-9.5 -49 -9.5 -77c0 -25.333 1.83301 -53.5 5.5 -84.5s8.83398 -63 15.501 -96s14.5 -65.667 23.5 -98s18.833 -62.5 29.5 -90.5h-133c-20.667 68.667 -36 134.334 -46 197.001s-15 117 -15 163
c0 92 21.167 165.667 63.5 221s105.166 89 188.499 101zM722.999 116.999c56 0 99.832 12.667 131.499 38s47.5 66.333 47.5 123c0 32 -5.33301 62.833 -16 92.5s-25 56 -43 79s-38.833 41.333 -62.5 55s-48.5 20.5 -74.5 20.5c-57.333 0 -107.5 -29.833 -150.5 -89.5
s-74.833 -152.5 -95.5 -278.5c22.667 -3.33301 44.834 -7.33301 66.501 -12s43.167 -9 64.5 -13s43 -7.5 65 -10.5s44.333 -4.5 67 -4.5z" />
    <glyph glyph-name="afii57446" unicode="&#x646;" horiz-adv-x="1300" arabic-form="isolated" 
d="M1105 450c13.333 -60.667 23.6689 -119.67 31.002 -177.003s11 -116.333 11 -177c0 -94 -10 -176.5 -30 -247.5s-51 -130.5 -93 -178.5s-95.333 -84.167 -160 -108.5s-141.667 -36.5 -231 -36.5c-81.333 0 -151 10.333 -209 31s-105.833 50.834 -143.5 90.501
s-65.334 88.5 -83.001 146.5s-26.5 124.667 -26.5 200c0 40 2.66699 81.833 8 125.5s13 90.167 23 139.5h114c-8.66699 -47.333 -14.834 -91 -18.501 -131s-5.5 -78 -5.5 -114c0 -63.333 6.5 -117.5 19.5 -162.5s33.667 -81.667 62 -110s64.833 -49.166 109.5 -62.499
s99 -20 163 -20c64.667 0 120.834 7.83301 168.501 23.5s87.167 41 118.5 76s54.666 80.167 69.999 135.5s23 122.666 23 201.999c0 50.667 -3.5 105.334 -10.5 164.001s-16.833 122.334 -29.5 191.001h119zM728.003 632.997h-147v143h147v-143z" />
    <glyph glyph-name="afii57470" unicode="&#x647;" horiz-adv-x="1026" arabic-form="isolated" 
d="M401 971c81.333 -54 150.832 -107.832 208.499 -161.499s104.667 -107.5 141 -161.5s62.833 -108.333 79.5 -163s25 -110 25 -166c0 -52 -8.5 -98.833 -25.5 -140.5s-40.833 -77.334 -71.5 -107.001s-67.5 -52.5 -110.5 -68.5s-90.5 -24 -142.5 -24
c-50.667 0 -96.5 7.5 -137.5 22.5s-76 36.333 -105 64s-51.5 61 -67.5 100s-24 82.167 -24 129.5c0 50 6.83301 98.5 20.5 145.5s32.834 91.833 57.501 134.5s53.5 82.167 86.5 118.5s69.167 68.5 108.5 96.5c-6.66699 6 -14.667 12.667 -24 20l-29 22l-31 22.5l-29 20.5z
M289.999 318.001c0 -34.667 5.66699 -65.001 17 -91.001s26.833 -47.5 46.5 -64.5s43 -29.833 70 -38.5s56.5 -13 88.5 -13c70.667 0 125.667 18 165 54s59 86.333 59 151c0 72.667 -16.833 142.334 -50.5 209.001s-86.5 131.334 -158.5 194.001
c-36 -24.667 -68.667 -52.334 -98 -83.001s-54.333 -63.334 -75 -98.001s-36.5 -70.667 -47.5 -108s-16.5 -74.666 -16.5 -111.999z" />
    <glyph glyph-name="afii57448" unicode="&#x648;" horiz-adv-x="936" arabic-form="isolated" 
d="M0 -295c52.667 -21.333 106 -36.502 160 -45.502s108 -13.5 162 -13.5c63.333 0 116 8.83301 158 26.5s76 43 102 76s44.833 72.667 56.5 119s19.167 98.5 22.5 156.5c-28 -12.667 -58 -22.167 -90 -28.5s-64.667 -9.5 -98 -9.5c-42.667 0 -83.834 7 -123.501 21
s-74.667 34 -105 60s-54.5 57.5 -72.5 94.5s-27 78.5 -27 124.5c0 42 7.83301 84.833 23.5 128.5s37.167 83.334 64.5 119.001s59.333 64.834 96 87.501s76 34 118 34c50.667 0 95.5 -15 134.5 -45s74.833 -73 107.5 -129c32.667 -56.667 56.334 -121 71.001 -193
s22 -146.333 22 -223c0 -84.667 -9.16699 -161.167 -27.5 -229.5s-46.333 -126.5 -84 -174.5s-85.5 -84.833 -143.5 -110.5s-126.333 -38.5 -205 -38.5c-58 0 -113.833 5.33301 -167.5 16s-105.167 27 -154.5 49v128zM656 149.998
c-1.33301 40.667 -8.16992 82.835 -20.5029 126.502s-28.333 83.667 -48 120s-42.167 66.166 -67.5 89.499s-51.666 35 -78.999 35c-22 0 -43.333 -6.33301 -64 -19s-39 -29.334 -55 -50.001s-28.833 -44.5 -38.5 -71.5s-14.5 -54.5 -14.5 -82.5s5.66699 -53.167 17 -75.5
s26.833 -41.333 46.5 -57s42.834 -27.667 69.501 -36s55.334 -12.5 86.001 -12.5c31.333 0 61.333 2.5 90 7.5s54.667 13.5 78 25.5z" />
    <glyph glyph-name="afii57449" unicode="&#x649;" horiz-adv-x="1501" arabic-form="isolated" 
d="M654 -133c-88 0 -162.504 10.833 -223.504 32.5s-110.833 52.167 -149.5 91.5s-66.667 86.5 -84 141.5s-26 116.167 -26 183.5c0 56.667 6.5 114.334 19.5 173.001s29.833 115 50.5 169h114c-19.333 -56.667 -34.833 -111.5 -46.5 -164.5s-17.5 -105.5 -17.5 -157.5
c0 -52.667 6.33301 -99.667 19 -141s34.334 -76.5 65.001 -105.5s71 -51.167 121 -66.5s112.667 -23 188 -23c73.333 0 141.333 7.33301 204 22s116.834 34.167 162.501 58.5s81.5 52.166 107.5 83.499s39 63.666 39 96.999c0 28 -8.5 51.333 -25.5 70
s-38.167 35.834 -63.5 51.501s-52.666 31 -81.999 46s-56.666 32.667 -81.999 53s-46.5 44.833 -63.5 73.5s-25.5 64 -25.5 106c0 50.667 12.5 95.834 37.5 135.501s60.167 74.167 105.5 103.5s99.5 53.666 162.5 72.999s132.167 34.333 207.5 45v-126
c-130 -14 -228.5 -40.667 -295.5 -80s-100.5 -86.333 -100.5 -141c0 -28 8.5 -51.5 25.5 -70.5s38.167 -36.333 63.5 -52s53 -31 83 -46s57.667 -32.167 83 -51.5s46.5 -42.166 63.5 -68.499s25.5 -58.833 25.5 -97.5c0 -48.667 -14.5 -97.834 -43.5 -147.501
s-71.5 -94.5 -127.5 -134.5s-125.167 -72.667 -207.5 -98s-176.833 -38 -283.5 -38z" />
    <glyph glyph-name="afii57450" unicode="&#x64a;" horiz-adv-x="1501" arabic-form="isolated" 
d="M654 -133c-88 0 -162.504 10.833 -223.504 32.5s-110.833 52.167 -149.5 91.5s-66.667 86.5 -84 141.5s-26 116.167 -26 183.5c0 56.667 6.5 114.334 19.5 173.001s29.833 115 50.5 169h114c-19.333 -56.667 -34.833 -111.5 -46.5 -164.5s-17.5 -105.5 -17.5 -157.5
c0 -52.667 6.33301 -99.667 19 -141s34.334 -76.5 65.001 -105.5s71 -51.167 121 -66.5s112.667 -23 188 -23c73.333 0 141.333 7.33301 204 22s116.834 34.167 162.501 58.5s81.5 52.166 107.5 83.499s39 63.666 39 96.999c0 28 -8.5 51.333 -25.5 70
s-38.167 35.834 -63.5 51.501s-52.666 31 -81.999 46s-56.666 32.667 -81.999 53s-46.5 44.833 -63.5 73.5s-25.5 64 -25.5 106c0 50.667 12.5 95.834 37.5 135.501s60.167 74.167 105.5 103.5s99.5 53.666 162.5 72.999s132.167 34.333 207.5 45v-126
c-130 -14 -228.5 -40.667 -295.5 -80s-100.5 -86.333 -100.5 -141c0 -28 8.5 -51.5 25.5 -70.5s38.167 -36.333 63.5 -52s53 -31 83 -46s57.667 -32.167 83 -51.5s46.5 -42.166 63.5 -68.499s25.5 -58.833 25.5 -97.5c0 -48.667 -14.5 -97.834 -43.5 -147.501
s-71.5 -94.5 -127.5 -134.5s-125.167 -72.667 -207.5 -98s-176.833 -38 -283.5 -38zM673.996 -465h-147v143h147v-143zM933.996 -465h-147v143h147v-143z" />
    <glyph glyph-name="uni066E.init" unicode="&#x66e;" horiz-adv-x="612" 
d="M441 738l-0.00195312 -407.001c0 -68.667 -8.66699 -125.167 -26 -169.5s-41 -79.5 -71 -105.5s-65.167 -44.167 -105.5 -54.5s-83.166 -15.5 -128.499 -15.5h-110c-23.333 0 -40.833 6.33301 -52.5 19s-17.5 28.334 -17.5 47.001c0 18 5.83301 33.333 17.5 46
s29.167 19 52.5 19h115c34.667 0 64.834 3.5 90.501 10.5s47 18.667 64 35s29.833 38.333 38.5 66s13 62.167 13 103.5v406h120z" />
    <glyph glyph-name="uni066E.medi" unicode="&#x66e;" horiz-adv-x="684" 
d="M441 338c0 -44 4.16504 -80.3359 12.498 -109.003s22 -51.167 41 -67.5s44 -27.833 75 -34.5s69.167 -10 114.5 -10v-131h-52c-67.333 0 -122.166 11 -164.499 33s-72.5 52.667 -90.5 92h-4c-25.333 -42 -59.666 -73.333 -102.999 -94s-91 -31 -143 -31h-127
c-23.333 0 -40.833 6.33301 -52.5 19s-17.5 28.334 -17.5 47.001c0 18 5.83301 33.333 17.5 46s29.167 19 52.5 19h124c26.667 0 52 3.33301 76 10s45 17.334 63 32.001s32.167 33.834 42.5 57.501s15.5 52.5 15.5 86.5v435h120v-400z" />
    <glyph glyph-name="uni066E.fina" unicode="&#x66e;" horiz-adv-x="1881" 
d="M1659 738l0.0078125 -399.999c0 -38.667 3.66699 -72 11 -100s19.5 -51 36.5 -69s39.833 -31.167 68.5 -39.5s64 -12.5 106 -12.5v-131h-43c-64.667 0 -116.334 10.5 -155.001 31.5s-68.334 53.5 -89.001 97.5h-4c-25.333 -28 -56.166 -50.833 -92.499 -68.5
s-79.833 -31.5 -130.5 -41.5s-108.834 -17 -174.501 -21s-140.167 -6 -223.5 -6c-95.333 0 -179.5 1.5 -252.5 4.5s-136.833 8.33301 -191.5 16s-101.334 18.167 -140.001 31.5s-71.334 30.666 -98.001 51.999c-40.667 32 -70.167 71.5 -88.5 118.5
s-27.5 100.833 -27.5 161.5c0 36 2.83301 72.167 8.5 108.5s12.5 70.5 20.5 102.5h118c-7.33301 -26.667 -13.5 -56 -18.5 -88s-7.5 -65.667 -7.5 -101c0 -46 6.33301 -85.5 19 -118.5s34 -60.167 64 -81.5c19.333 -13.333 44.166 -24.666 74.499 -33.999
s69.666 -17 117.999 -23s107.333 -10.333 177 -13s153.5 -4 251.5 -4c101.333 0 186.666 2.66699 255.999 8s125.166 16.166 167.499 32.499s72.833 39.5 91.5 69.5s28 69.667 28 119v399h120z" />
    <glyph glyph-name="uni066F.init" unicode="&#x66f;" horiz-adv-x="936" 
d="M401 127c-82 36.667 -140.832 79.167 -176.499 127.5s-53.5 102.5 -53.5 162.5c0 43.333 7.83301 87.666 23.5 132.999s37 86.5 64 123.5s58.167 67.167 93.5 90.5s72.666 35 111.999 35c41.333 0 81.333 -13 120 -39s75 -65 109 -117
c27.333 -41.333 50.5 -87.166 69.5 -137.499s28.5 -102.833 28.5 -157.5c0 -74 -15 -134.5 -45 -181.5s-71.167 -83.833 -123.5 -110.5s-113.833 -45 -184.5 -55s-146.667 -15 -228 -15h-210c-23.333 0 -40.833 6.33301 -52.5 19s-17.5 28.334 -17.5 47.001
c0 18 5.83301 33.333 17.5 46s29.167 19 52.5 19h171c36 0 74.5 0.166992 115.5 0.5s78.5 1.16602 112.5 2.49902zM670.001 344c0 21.333 -2.83203 43.999 -8.49902 67.999s-13.667 47.833 -24 71.5s-22.333 46.5 -36 68.5s-28.5 41.333 -44.5 58s-32.667 30 -50 40
s-34.666 15 -51.999 15c-19.333 0 -38.833 -7.16699 -58.5 -21.5s-37.5 -33 -53.5 -56s-29 -48.5 -39 -76.5s-15 -56 -15 -84c0 -21.333 4.66699 -42.666 14 -63.999s24.666 -43 45.999 -65s49.666 -44.5 84.999 -67.5s79 -46.833 131 -71.5c32 16 57.5 39.833 76.5 71.5
s28.5 69.5 28.5 113.5z" />
    <glyph glyph-name="uni066F.medi" unicode="&#x66f;" horiz-adv-x="936" 
d="M406 126c-83.333 34.667 -143.328 76.666 -179.995 125.999s-55 104.333 -55 165c0 43.333 7.83301 87.666 23.5 132.999s37 86.5 64 123.5s58.167 67.167 93.5 90.5s72.666 35 111.999 35c41.333 0 81.333 -13 120 -39s75 -64.667 109 -116
c28 -41.333 51.333 -87.5 70 -138.5s28 -104.167 28 -159.5c0 -45.333 -7.16699 -86.166 -21.5 -122.499s-36.5 -68.166 -66.5 -95.499c14.667 -2.66699 29.5 -4.66699 44.5 -6s31.667 -2.33301 50 -3s38.666 -1.16699 60.999 -1.5s48.166 -0.5 77.499 -0.5v-131h-27
c-59.333 0 -117.833 4.16699 -175.5 12.5s-109.834 22.166 -156.501 41.499c-26 -11.333 -54.5 -20.5 -85.5 -27.5s-63.5 -12.5 -97.5 -16.5s-69 -6.66699 -105 -8s-72.333 -2 -109 -2h-180c-23.333 0 -40.833 6.33301 -52.5 19s-17.5 28.334 -17.5 47.001
c0 18 5.83301 33.333 17.5 46s29.167 19 52.5 19h196c40.667 0 79.167 0.166992 115.5 0.5s67.166 0.833008 92.499 1.5zM670.005 343.999c0 21.333 -2.83398 44 -8.50098 68s-13.667 47.833 -24 71.5s-22.333 46.5 -36 68.5s-28.5 41.333 -44.5 58s-32.667 30 -50 40
s-34.666 15 -51.999 15c-19.333 0 -38.833 -7.16699 -58.5 -21.5s-37.5 -33 -53.5 -56s-29 -48.5 -39 -76.5s-15 -56 -15 -84c0 -21.333 4.66699 -42.833 14 -64.5s25 -43.667 47 -66s50.833 -45 86.5 -68s79.5 -46.5 131.5 -70.5c34 17.333 59.5 41.833 76.5 73.5
s25.5 69.167 25.5 112.5z" />
    <glyph glyph-name="uni066F.fina" unicode="&#x66f;" horiz-adv-x="1462" 
d="M1051 -14c-59.333 0 -111.667 7.49707 -157 22.4971s-83.666 35.833 -114.999 62.5s-55 58.334 -71 95.001s-24 76.667 -24 120c0 42 7.83301 84.833 23.5 128.5s37.167 83.334 64.5 119.001s59.333 64.834 96 87.501s75.667 34 117 34c50.667 0 95.5 -15 134.5 -45
s74.833 -73 107.5 -129c14 -24.667 26.5 -51.5 37.5 -80.5s20.167 -59.333 27.5 -91s13.166 -63.834 17.499 -96.501s7.16602 -64.667 8.49902 -96h144v-131h-144c-7.33301 -84.667 -24 -157 -50 -217s-63.167 -109 -111.5 -147s-109.166 -65.833 -182.499 -83.5
s-161.333 -26.5 -264 -26.5c-95.333 0 -177 10 -245 30s-123.833 49.667 -167.5 89s-75.667 88 -96 146s-30.5 125 -30.5 201c0 42 2.5 86.333 7.5 133s12.167 96 21.5 148h115c-7.33301 -50 -13 -95.833 -17 -137.5s-6 -80.5 -6 -116.5c0 -64 7.66699 -118.667 23 -164
s40 -82.666 74 -111.999s78.333 -50.833 133 -64.5s121.667 -20.5 201 -20.5c90.667 0 165.5 7 224.5 21s106.167 35.167 141.5 63.5s61 63.833 77 106.5s26 93 30 151h-145zM1197 116.997c-1.33301 29.333 -4.66602 61.668 -9.99902 97.001s-13.666 69 -24.999 101
c-10 26.667 -21.5 52.5 -34.5 77.5s-27.333 47 -43 66s-32.334 34.167 -50.001 45.5s-36.167 17 -55.5 17c-22 0 -43.333 -6.33301 -64 -19s-38.834 -29.334 -54.501 -50.001s-28.334 -44.5 -38.001 -71.5s-14.5 -54.5 -14.5 -82.5c0 -57.333 20.333 -101.833 61 -133.5
s103.334 -47.5 188.001 -47.5h140z" />
    <glyph glyph-name="uni0671" unicode="&#x671;" horiz-adv-x="462" arabic-form="isolated" 
d="M171 1516h120v-1516h-120v1516zM-91 1739c28 20.667 54.0039 36.3291 78.0039 46.9961s48.667 16 74 16c8 0 15.5 -0.5 22.5 -1.5s14.167 -2.5 21.5 -4.5c25.333 74.667 57.166 130 95.499 166s82.166 54 131.499 54c25.333 0 48 -4.33301 68 -13
s36.833 -20.5 50.5 -35.5s24.167 -32.167 31.5 -51.5s11 -39.666 11 -60.999c0 -26 -5 -50.667 -15 -74s-23.833 -43.666 -41.5 -60.999s-38.334 -31.166 -62.001 -41.499s-49.167 -15.5 -76.5 -15.5c-24 0 -46.833 2.83301 -68.5 8.5s-42.334 11.834 -62.001 18.501
l-56.5 18.5c-18 5.66699 -35.333 8.5 -52 8.5c-14 0 -30.333 -3.5 -49 -10.5s-38 -18.5 -58 -34.5zM292.004 1748c18.667 0 35.167 2.99902 49.5 8.99902s26.5 13.833 36.5 23.5s17.5 20.834 22.5 33.501s7.5 25.667 7.5 39c0 24 -8.16699 43 -24.5 57s-35.833 21 -58.5 21
c-28.667 0 -56 -12.667 -82 -38s-49 -65 -69 -119c18 -7.33301 37 -13.5 57 -18.5s40.333 -7.5 61 -7.5z" />
    <glyph glyph-name="uni0672.fina" unicode="&#x672;" horiz-adv-x="513" 
d="M513 -14l-36.999 -0.000976562c-58.667 0 -107.5 8.16699 -146.5 24.5s-70.333 38.833 -94 67.5s-40.334 62.834 -50.001 102.501s-14.5 82.5 -14.5 128.5v1207h120v-1148c0 -47.333 2.83301 -87 8.5 -119s16.5 -57.833 32.5 -77.5s38.5 -33.667 67.5 -42
s66.833 -12.5 113.5 -12.5v-131zM-54.999 1670l0.00195312 76c28.667 26.667 56.334 40 83.001 40c11.333 0 21.833 -2 31.5 -6s19.667 -8.5 30 -13.5s22 -9.66699 35 -14s28.167 -6.5 45.5 -6.5l1 5c-15.333 15.333 -27.5 32.666 -36.5 51.999s-13.5 40 -13.5 62
c0 22.667 4.66699 43.834 14 63.501s22.5 36.667 39.5 51s37.333 25.5 61 33.5s49.834 12 78.501 12c20.667 0 42 -2 64 -6v-90c-8.66699 2 -17.834 3.66699 -27.501 5s-19.834 2 -30.501 2c-32.667 0 -60.5 -7.66699 -83.5 -23s-34.5 -37 -34.5 -65
c0 -32 11.833 -56 35.5 -72s57.5 -24 101.5 -24h86v-87h-209c-30 0 -54.833 2.5 -74.5 7.5s-36.334 10.333 -50.001 16s-25.334 11 -35.001 16s-19.5 7.5 -29.5 7.5c-11.333 0 -23.5 -3.66699 -36.5 -11s-27.167 -18 -42.5 -32z" />
    <glyph glyph-name="uni0673.fina" unicode="&#x673;" horiz-adv-x="513" 
d="M513 -14l-36.999 -0.000976562c-58.667 0 -107.5 8.16699 -146.5 24.5s-70.333 38.833 -94 67.5s-40.334 62.834 -50.001 102.501s-14.5 82.5 -14.5 128.5v1207h120v-1148c0 -47.333 2.83301 -87 8.5 -119s16.5 -57.833 32.5 -77.5s38.5 -33.667 67.5 -42
s66.833 -12.5 113.5 -12.5v-131zM-54.999 -504.001l0.00195312 76c28.667 26.667 56.334 40 83.001 40c11.333 0 21.833 -2 31.5 -6s19.667 -8.5 30 -13.5s22 -9.66699 35 -14s28.167 -6.5 45.5 -6.5l1 5c-15.333 15.333 -27.5 32.666 -36.5 51.999s-13.5 40 -13.5 62
c0 22.667 4.66699 43.834 14 63.501s22.5 36.667 39.5 51s37.333 25.5 61 33.5s49.834 12 78.501 12c20.667 0 42 -2 64 -6v-90c-8.66699 2 -17.834 3.66699 -27.501 5s-19.834 2 -30.501 2c-32.667 0 -60.5 -7.66699 -83.5 -23s-34.5 -37 -34.5 -65
c0 -32 11.833 -56 35.5 -72s57.5 -24 101.5 -24h86v-87h-209c-30 0 -54.833 2.5 -74.5 7.5s-36.334 10.333 -50.001 16s-25.334 11 -35.001 16s-19.5 7.5 -29.5 7.5c-11.333 0 -23.5 -3.66699 -36.5 -11s-27.167 -18 -42.5 -32z" />
    <glyph glyph-name="uni0675.fina" unicode="&#x675;" horiz-adv-x="812" 
d="M829 -14h-342c-23.333 0 -40.833 6.5 -52.5 19.5s-17.5 28.5 -17.5 46.5c0 18.667 5.83301 34.167 17.5 46.5s29.167 18.5 52.5 18.5h342v-131zM513 -14l-36.999 -0.000976562c-58.667 0 -107.5 8.16699 -146.5 24.5s-70.333 38.833 -94 67.5
s-40.334 62.834 -50.001 102.501s-14.5 82.5 -14.5 128.5v1207h120v-1148c0 -47.333 2.83301 -87 8.5 -119s16.5 -57.833 32.5 -77.5s38.5 -33.667 67.5 -42s66.833 -12.5 113.5 -12.5v-131zM696.001 1439c-8.66699 2 -17.834 3.66699 -27.501 5s-19.834 2 -30.501 2
c-33.333 0 -61.166 -7.66699 -83.499 -23s-33.5 -38 -33.5 -68c0 -62 45.333 -93 136 -93h83v-87h-342v81h90l1 5c-15.333 15.333 -27.5 32.666 -36.5 51.999s-13.5 40 -13.5 62c0 22.667 4.66699 43.834 14 63.501s22.5 36.667 39.5 51s37.333 25.5 61 33.5
s49.834 12 78.501 12c20.667 0 42 -2 64 -6v-90z" />
    <glyph glyph-name="uni0676.fina" unicode="&#x676;" horiz-adv-x="936" 
d="M0 -295c52.667 -21.333 105.999 -36.5049 159.999 -45.5049s108 -13.5 162 -13.5c48 0 89.667 4.83301 125 14.5s65.5 23.834 90.5 42.501s45.5 41.834 61.5 69.501s29 59.5 39 95.5c3.33301 12.667 6.83301 29.167 10.5 49.5s6.83398 43.166 9.50098 68.499h-145
c-59.333 0 -111.833 7.5 -157.5 22.5s-84 35.833 -115 62.5s-54.667 58.334 -71 95.001s-24.5 76.667 -24.5 120c0 42 7.83301 84.833 23.5 128.5s37.167 83.334 64.5 119.001s59.333 64.834 96 87.501s76 34 118 34c50.667 0 95.5 -15 134.5 -45s74.833 -73.333 107.5 -130
c28 -49.333 49.5 -106.166 64.5 -170.499s23.833 -128.5 26.5 -192.5h156v-131h-157c-6 -74 -19.333 -140.167 -40 -198.5s-49.667 -108 -87 -149s-83.333 -72.333 -138 -94s-118.667 -32.5 -192 -32.5c-58 0 -113.833 5.33301 -167.5 16s-105.167 27 -154.5 49v128z
M622.999 314.995c-9.33301 26.667 -20.5 52.502 -33.5 77.502s-27.333 47 -43 66s-32.5 34.167 -50.5 45.5s-36.333 17 -55 17c-22 0 -43.333 -6.33301 -64 -19s-39 -29.334 -55 -50.001s-28.833 -44.5 -38.5 -71.5s-14.5 -54.5 -14.5 -82.5c0 -56.667 21.5 -101 64.5 -133
s107.167 -48 192.5 -48h133c-1.33301 29.333 -4.83301 61.666 -10.5 96.999s-14.167 69 -25.5 101zM810.999 1120c-8.66699 2 -17.834 3.66699 -27.501 5s-19.834 2 -30.501 2c-33.333 0 -61.166 -7.66699 -83.499 -23s-33.5 -38 -33.5 -68c0 -62 45.333 -93 136 -93h83v-87
h-342v81h90l1 5c-15.333 15.333 -27.5 32.666 -36.5 51.999s-13.5 40 -13.5 62c0 22.667 4.66699 43.834 14 63.501s22.5 36.667 39.5 51s37.333 25.5 61 33.5s49.834 12 78.501 12c20.667 0 42 -2 64 -6v-90z" />
    <glyph glyph-name="uni0677" unicode="&#x677;" horiz-adv-x="936" arabic-form="isolated" 
d="M0 -295c52.667 -21.333 106 -36.502 160 -45.502s108 -13.5 162 -13.5c63.333 0 116 8.83301 158 26.5s76 43 102 76s44.833 72.667 56.5 119s19.167 98.5 22.5 156.5c-28 -12.667 -58 -22.167 -90 -28.5s-64.667 -9.5 -98 -9.5c-42.667 0 -83.834 7 -123.501 21
s-74.667 34 -105 60s-54.5 57.5 -72.5 94.5s-27 78.5 -27 124.5c0 42 7.83301 84.833 23.5 128.5s37.167 83.334 64.5 119.001s59.333 64.834 96 87.501s76 34 118 34c50.667 0 95.5 -15 134.5 -45s74.833 -73 107.5 -129c32.667 -56.667 56.334 -121 71.001 -193
s22 -146.333 22 -223c0 -84.667 -9.16699 -161.167 -27.5 -229.5s-46.333 -126.5 -84 -174.5s-85.5 -84.833 -143.5 -110.5s-126.333 -38.5 -205 -38.5c-58 0 -113.833 5.33301 -167.5 16s-105.167 27 -154.5 49v128zM656 149.998
c-1.33301 40.667 -8.16992 82.835 -20.5029 126.502s-28.333 83.667 -48 120s-42.167 66.166 -67.5 89.499s-51.666 35 -78.999 35c-22 0 -43.333 -6.33301 -64 -19s-39 -29.334 -55 -50.001s-28.833 -44.5 -38.5 -71.5s-14.5 -54.5 -14.5 -82.5s5.66699 -53.167 17 -75.5
s26.833 -41.333 46.5 -57s42.834 -27.667 69.501 -36s55.334 -12.5 86.001 -12.5c31.333 0 61.333 2.5 90 7.5s54.667 13.5 78 25.5zM314.996 811.999c-15.333 11.333 -29.3359 22.835 -42.0029 34.502l-36 34.5c-17.333 -4 -34.166 -6.5 -50.499 -7.5
s-32.166 -1.5 -47.499 -1.5c-36 0 -71.333 2.33301 -106 7s-67.667 11.667 -99 21l8 37.5l8 37.5c32 -8.66699 64.333 -15.334 97 -20.001s66 -7 100 -7h13.5c5 0 9.83301 0.666992 14.5 2c0 0.666992 0.166992 1 0.5 1s0.5 0.333008 0.5 1
c-19.333 22.667 -33.666 45.667 -42.999 69s-14 46.666 -14 69.999c0 24.667 5 47 15 67s23.167 37 39.5 51s35 24.833 56 32.5s42.5 11.5 64.5 11.5c22.667 0 44 -4 64 -12s37.5 -19.167 52.5 -33.5s26.833 -31.833 35.5 -52.5s13 -43.667 13 -69
c0 -82 -46 -142.333 -138 -181c7.33301 -7.33301 15.5 -14.833 24.5 -22.5l22.5 -19.5zM378.993 1082c0 14 -2.66699 26.501 -8 37.501s-12.166 20.167 -20.499 27.5s-18 13 -29 17s-22.167 6 -33.5 6c-10.667 0 -21.334 -1.83301 -32.001 -5.5s-20.167 -9 -28.5 -16
s-15 -15.5 -20 -25.5s-7.5 -21.667 -7.5 -35c0 -22 6.33301 -44.333 19 -67s28 -41.667 46 -57c34 9.33301 61.5 24.166 82.5 44.499s31.5 44.833 31.5 73.5zM841.993 1120c-8.66699 2 -17.834 3.66699 -27.501 5s-19.834 2 -30.501 2
c-33.333 0 -61.166 -7.66699 -83.499 -23s-33.5 -38 -33.5 -68c0 -62 45.333 -93 136 -93h83v-87h-342v81h90l1 5c-15.333 15.333 -27.5 32.666 -36.5 51.999s-13.5 40 -13.5 62c0 22.667 4.66699 43.834 14 63.501s22.5 36.667 39.5 51s37.333 25.5 61 33.5
s49.834 12 78.501 12c20.667 0 42 -2 64 -6v-90z" />
    <glyph glyph-name="uni0678.init" unicode="&#x678;" horiz-adv-x="936" 
d="M441 738l-0.00195312 -407.001c0 -68.667 -8.66699 -125.167 -26 -169.5s-41 -79.5 -71 -105.5s-65.167 -44.167 -105.5 -54.5s-83.166 -15.5 -128.499 -15.5h-110c-23.333 0 -40.833 6.33301 -52.5 19s-17.5 28.334 -17.5 47.001c0 18 5.83301 33.333 17.5 46
s29.167 19 52.5 19h115c34.667 0 64.834 3.5 90.501 10.5s47 18.667 64 35s29.833 38.333 38.5 66s13 62.167 13 103.5v406h120zM810.998 1199c-8.66699 2 -17.834 3.66699 -27.501 5s-19.834 2 -30.501 2c-33.333 0 -61.166 -7.66699 -83.499 -23s-33.5 -38 -33.5 -68
c0 -62 45.333 -93 136 -93h83v-87h-342v81h90l1 5c-15.333 15.333 -27.5 32.666 -36.5 51.999s-13.5 40 -13.5 62c0 22.667 4.66699 43.834 14 63.501s22.5 36.667 39.5 51s37.333 25.5 61 33.5s49.834 12 78.501 12c20.667 0 42 -2 64 -6v-90z" />
    <glyph glyph-name="uni0678.medi" unicode="&#x678;" horiz-adv-x="992" 
d="M992 -14h-342c-23.333 0 -40.833 6.5 -52.5 19.5s-17.5 28.5 -17.5 46.5c0 18.667 5.83301 34.167 17.5 46.5s29.167 18.5 52.5 18.5h342v-131zM811 1199c-8.66699 2 -17.834 3.66699 -27.501 5s-19.834 2 -30.501 2c-33.333 0 -61.166 -7.66699 -83.499 -23
s-33.5 -38 -33.5 -68c0 -62 45.333 -93 136 -93h83v-87h-342v81h90l1 5c-15.333 15.333 -27.5 32.666 -36.5 51.999s-13.5 40 -13.5 62c0 22.667 4.66699 43.834 14 63.501s22.5 36.667 39.5 51s37.333 25.5 61 33.5s49.834 12 78.501 12c20.667 0 42 -2 64 -6v-90zM441 338
c0 -44 4.16504 -80.3359 12.498 -109.003s22 -51.167 41 -67.5s44 -27.833 75 -34.5s69.167 -10 114.5 -10v-131h-52c-67.333 0 -122.166 11 -164.499 33s-72.5 52.667 -90.5 92h-4c-25.333 -42 -59.666 -73.333 -102.999 -94s-91 -31 -143 -31h-127
c-23.333 0 -40.833 6.33301 -52.5 19s-17.5 28.334 -17.5 47.001c0 18 5.83301 33.333 17.5 46s29.167 19 52.5 19h124c26.667 0 52 3.33301 76 10s45 17.334 63 32.001s32.167 33.834 42.5 57.501s15.5 52.5 15.5 86.5v435h120v-400z" />
    <glyph glyph-name="uni0678.fina" unicode="&#x678;" horiz-adv-x="1710" 
d="M323 493c-9.33301 -42.667 -16.9971 -82.4961 -22.9971 -119.496s-9 -76.167 -9 -117.5c0 -58.667 6.83301 -111.334 20.5 -158.001s37.167 -86.167 70.5 -118.5s78.333 -57 135 -74s128 -25.5 214 -25.5c59.333 0 112 4 158 12s84.667 19 116 33
s55.166 30.667 71.499 50s24.5 40.333 24.5 63s-6.66699 42.167 -20 58.5s-27.833 33.166 -43.5 50.499s-30.167 37.166 -43.5 59.499s-20 50.833 -20 85.5c0 32 6 61.667 18 89s28.167 50.666 48.5 69.999s44 34.5 71 45.5s55.5 16.5 85.5 16.5c42 0 80.167 -12 114.5 -36
s66.833 -64.667 97.5 -122l67.5 -117c18.333 -30.667 37.666 -55 57.999 -73s43.833 -30.5 70.5 -37.5s61.667 -10.5 105 -10.5v-131h-52c-38 0 -72 4.66699 -102 14s-57.833 25 -83.5 47s-50.667 50.667 -75 86s-49.833 79 -76.5 131
c-11.333 23.333 -22.166 42.833 -32.499 58.5s-20.5 28.334 -30.5 38.001s-20.333 16.5 -31 20.5s-22.334 6 -35.001 6c-28 0 -51.5 -8.16699 -70.5 -24.5s-28.5 -37.833 -28.5 -64.5c0 -16 3.16699 -30.167 9.5 -42.5s14.166 -24.166 23.499 -35.499s19.5 -22.5 30.5 -33.5
s21.167 -23.333 30.5 -37s17.166 -28.834 23.499 -45.501s9.5 -36.334 9.5 -59.001c0 -48 -13.5 -90.667 -40.5 -128s-64 -68.5 -111 -93.5s-102.333 -44 -166 -57s-132.5 -19.5 -206.5 -19.5c-97.333 0 -179.333 12 -246 36s-120.667 57.5 -162 100.5
s-71.166 94.667 -89.499 155s-27.5 126.833 -27.5 199.5c0 42 3 83.5 9 124.5s14.667 84.5 26 130.5h117zM1711 1199c-8.66699 2 -17.834 3.66699 -27.501 5s-19.834 2 -30.501 2c-33.333 0 -61.166 -7.66699 -83.499 -23s-33.5 -38 -33.5 -68c0 -62 45.333 -93 136 -93h83
v-87h-342v81h90l1 5c-15.333 15.333 -27.5 32.666 -36.5 51.999s-13.5 40 -13.5 62c0 22.667 4.66699 43.834 14 63.501s22.5 36.667 39.5 51s37.333 25.5 61 33.5s49.834 12 78.501 12c20.667 0 42 -2 64 -6v-90z" />
    <glyph glyph-name="afii57511" unicode="&#x679;" horiz-adv-x="1830" arabic-form="isolated" 
d="M318 573c-7.33301 -26.667 -13.4971 -56.0029 -18.4971 -88.0029s-7.5 -65.667 -7.5 -101c0 -46 6.16699 -85.5 18.5 -118.5s33.833 -60.167 64.5 -81.5c19.333 -13.333 44.166 -24.666 74.499 -33.999s69.666 -17 117.999 -23s107.333 -10.333 177 -13
s153.5 -4 251.5 -4c99.333 0 183.5 3 252.5 9s125 17.167 168 33.5s74.167 39.5 93.5 69.5s29 69 29 117v399h120v-399c0 -76 -14.667 -137.667 -44 -185s-73 -84 -131 -110s-130.333 -43.5 -217 -52.5s-187.334 -13.5 -302.001 -13.5c-94.667 0 -178.167 1.33301 -250.5 4
s-135.833 7.83398 -190.5 15.501s-101.167 18.334 -139.5 32.001s-70.833 31.167 -97.5 52.5c-40.667 32 -70.167 71.5 -88.5 118.5s-27.5 100.833 -27.5 161.5c0 36 2.83301 72.167 8.5 108.5s12.5 70.5 20.5 102.5h118zM618.003 952.997
c15.333 -1.33301 33.1689 -2.5 53.502 -3.5s41.166 -1.83301 62.499 -2.5v482h83v-341l3 -1c25.333 42.667 55.666 75.5 90.999 98.5s75 34.5 119 34.5c28 0 52.5 -5.5 73.5 -16.5s38.5 -25.5 52.5 -43.5s24.5 -39 31.5 -63s10.5 -49 10.5 -75
c0 -39.333 -5.66699 -70 -17 -92s-28.166 -38.667 -50.499 -50s-49.833 -18.333 -82.5 -21s-70.334 -4 -113.001 -4c-40 0 -75.333 0.166992 -106 0.5s-58 0.833008 -82 1.5s-45.333 1.5 -64 2.5s-36 2.5 -52 4.5zM941.006 945.997c34.667 0 63.333 0.498047 86 1.49805
s40.834 4.16699 54.501 9.5s23.334 13.333 29.001 24s8.5 25.667 8.5 45c0 33.333 -10.167 58.833 -30.5 76.5s-44.833 26.5 -73.5 26.5c-20.667 0 -40.834 -4.66699 -60.501 -14s-38.334 -22.166 -56.001 -38.499s-33.667 -35.666 -48 -57.999s-26.833 -46.5 -37.5 -72.5
h128z" />
    <glyph glyph-name="uni067A" unicode="&#x67a;" horiz-adv-x="1830" arabic-form="isolated" 
d="M318 573c-7.33301 -26.667 -13.4971 -56.0029 -18.4971 -88.0029s-7.5 -65.667 -7.5 -101c0 -46 6.16699 -85.5 18.5 -118.5s33.833 -60.167 64.5 -81.5c19.333 -13.333 44.166 -24.666 74.499 -33.999s69.666 -17 117.999 -23s107.333 -10.333 177 -13
s153.5 -4 251.5 -4c99.333 0 183.5 3 252.5 9s125 17.167 168 33.5s74.167 39.5 93.5 69.5s29 69 29 117v399h120v-399c0 -76 -14.667 -137.667 -44 -185s-73 -84 -131 -110s-130.333 -43.5 -217 -52.5s-187.334 -13.5 -302.001 -13.5c-94.667 0 -178.167 1.33301 -250.5 4
s-135.833 7.83398 -190.5 15.501s-101.167 18.334 -139.5 32.001s-70.833 31.167 -97.5 52.5c-40.667 32 -70.167 71.5 -88.5 118.5s-27.5 100.833 -27.5 161.5c0 36 2.83301 72.167 8.5 108.5s12.5 70.5 20.5 102.5h118zM1002 933.997h-147v143h147v-143zM1002 1165h-147
v143h147v-143z" />
    <glyph glyph-name="uni067B" unicode="&#x67b;" horiz-adv-x="1830" arabic-form="isolated" 
d="M318 573c-7.33301 -26.667 -13.4971 -56.0029 -18.4971 -88.0029s-7.5 -65.667 -7.5 -101c0 -46 6.16699 -85.5 18.5 -118.5s33.833 -60.167 64.5 -81.5c19.333 -13.333 44.166 -24.666 74.499 -33.999s69.666 -17 117.999 -23s107.333 -10.333 177 -13
s153.5 -4 251.5 -4c99.333 0 183.5 3 252.5 9s125 17.167 168 33.5s74.167 39.5 93.5 69.5s29 69 29 117v399h120v-399c0 -76 -14.667 -137.667 -44 -185s-73 -84 -131 -110s-130.333 -43.5 -217 -52.5s-187.334 -13.5 -302.001 -13.5c-94.667 0 -178.167 1.33301 -250.5 4
s-135.833 7.83398 -190.5 15.501s-101.167 18.334 -139.5 32.001s-70.833 31.167 -97.5 52.5c-40.667 32 -70.167 71.5 -88.5 118.5s-27.5 100.833 -27.5 161.5c0 36 2.83301 72.167 8.5 108.5s12.5 70.5 20.5 102.5h118zM1002 -558.003h-147v143h147v-143zM1002 -327.003
h-147v143h147v-143z" />
    <glyph glyph-name="uni067C.init" unicode="&#x67c;" horiz-adv-x="612" 
d="M441 738l-0.00195312 -407.001c0 -68.667 -8.66699 -125.167 -26 -169.5s-41 -79.5 -71 -105.5s-65.167 -44.167 -105.5 -54.5s-83.166 -15.5 -128.499 -15.5h-110c-23.333 0 -40.833 6.33301 -52.5 19s-17.5 28.334 -17.5 47.001c0 18 5.83301 33.333 17.5 46
s29.167 19 52.5 19h115c34.667 0 64.834 3.5 90.501 10.5s47 18.667 64 35s29.833 38.333 38.5 66s13 62.167 13 103.5v406h120zM319.998 933.999h-147v143h147v-143zM579.998 933.999h-147v143h147v-143zM245.998 72.999c21.333 0 41.6641 -4.16797 60.9971 -12.501
s36.166 -19.666 50.499 -33.999s25.833 -31.5 34.5 -51.5s13 -41.333 13 -64c0 -21.333 -4.33301 -41.666 -13 -60.999s-20.167 -36.333 -34.5 -51s-31.166 -26.167 -50.499 -34.5s-39.666 -12.5 -60.999 -12.5c-23.333 0 -44.833 4.16699 -64.5 12.5
s-36.667 19.833 -51 34.5s-25.666 31.5 -33.999 50.5s-12.5 39.5 -12.5 61.5c0 22.667 4 44 12 64s19.333 37.167 34 51.5s31.834 25.666 51.501 33.999s41.167 12.5 64.5 12.5zM245.996 -173.002c23.333 0 43.166 8.16699 59.499 24.5s24.5 36.166 24.5 59.499
c0 24.667 -8.16699 45.334 -24.5 62.001s-36.166 25 -59.499 25c-24.667 0 -45.334 -8.33301 -62.001 -25s-25 -37.334 -25 -62.001c0 -23.333 8.33301 -43.166 25 -59.499s37.334 -24.5 62.001 -24.5z" />
    <glyph glyph-name="uni067C.medi" unicode="&#x67c;" horiz-adv-x="684" 
d="M441 338c0 -44 4.16504 -80.3359 12.498 -109.003s22 -51.167 41 -67.5s44 -27.833 75 -34.5s69.167 -10 114.5 -10v-131h-52c-67.333 0 -122.166 11 -164.499 33s-72.5 52.667 -90.5 92h-4c-25.333 -42 -59.666 -73.333 -102.999 -94s-91 -31 -143 -31h-127
c-23.333 0 -40.833 6.33301 -52.5 19s-17.5 28.334 -17.5 47.001c0 18 5.83301 33.333 17.5 46s29.167 19 52.5 19h124c26.667 0 52 3.33301 76 10s45 17.334 63 32.001s32.167 33.834 42.5 57.501s15.5 52.5 15.5 86.5v435h120v-400zM319.998 933.997h-147v143h147v-143z
M579.998 933.997h-147v143h147v-143zM228.998 69.9971c21.333 0 41.6641 -4.16797 60.9971 -12.501s36.166 -19.666 50.499 -33.999s25.833 -31.5 34.5 -51.5s13 -41.333 13 -64c0 -21.333 -4.33301 -41.666 -13 -60.999s-20.167 -36.333 -34.5 -51
s-31.166 -26.167 -50.499 -34.5s-39.666 -12.5 -60.999 -12.5c-23.333 0 -44.833 4.16699 -64.5 12.5s-36.667 19.833 -51 34.5s-25.666 31.5 -33.999 50.5s-12.5 39.5 -12.5 61.5c0 22.667 4 44 12 64s19.333 37.167 34 51.5s31.834 25.666 51.501 33.999
s41.167 12.5 64.5 12.5zM228.996 -176.004c23.333 0 43.166 8.16699 59.499 24.5s24.5 36.166 24.5 59.499c0 24.667 -8.16699 45.334 -24.5 62.001s-36.166 25 -59.499 25c-24.667 0 -45.334 -8.33301 -62.001 -25s-25 -37.334 -25 -62.001
c0 -23.333 8.33301 -43.166 25 -59.499s37.334 -24.5 62.001 -24.5z" />
    <glyph glyph-name="uni067C.fina" unicode="&#x67c;" horiz-adv-x="1881" 
d="M1659 738l0.0078125 -399.999c0 -38.667 3.66699 -72 11 -100s19.5 -51 36.5 -69s39.833 -31.167 68.5 -39.5s64 -12.5 106 -12.5v-131h-43c-64.667 0 -116.334 10.5 -155.001 31.5s-68.334 53.5 -89.001 97.5h-4c-25.333 -28 -56.166 -50.833 -92.499 -68.5
s-79.833 -31.5 -130.5 -41.5s-108.834 -17 -174.501 -21s-140.167 -6 -223.5 -6c-95.333 0 -179.5 1.5 -252.5 4.5s-136.833 8.33301 -191.5 16s-101.334 18.167 -140.001 31.5s-71.334 30.666 -98.001 51.999c-40.667 32 -70.167 71.5 -88.5 118.5
s-27.5 100.833 -27.5 161.5c0 36 2.83301 72.167 8.5 108.5s12.5 70.5 20.5 102.5h118c-7.33301 -26.667 -13.5 -56 -18.5 -88s-7.5 -65.667 -7.5 -101c0 -46 6.33301 -85.5 19 -118.5s34 -60.167 64 -81.5c19.333 -13.333 44.166 -24.666 74.499 -33.999
s69.666 -17 117.999 -23s107.333 -10.333 177 -13s153.5 -4 251.5 -4c101.333 0 186.666 2.66699 255.999 8s125.166 16.166 167.499 32.499s72.833 39.5 91.5 69.5s28 69.667 28 119v399h120zM854.008 934.001h-147v143h147v-143zM1114.01 934.001h-147v143h147v-143z
M937.008 51.001c21.333 0 41.6641 -4.16797 60.9971 -12.501s36.166 -19.666 50.499 -33.999s25.833 -31.5 34.5 -51.5s13 -41.333 13 -64c0 -21.333 -4.33301 -41.666 -13 -60.999s-20.167 -36.333 -34.5 -51s-31.166 -26.167 -50.499 -34.5s-39.666 -12.5 -60.999 -12.5
c-23.333 0 -44.833 4.16699 -64.5 12.5s-36.667 19.833 -51 34.5s-25.666 31.5 -33.999 50.5s-12.5 39.5 -12.5 61.5c0 22.667 4 44 12 64s19.333 37.167 34 51.5s31.834 25.666 51.501 33.999s41.167 12.5 64.5 12.5zM937.006 -195c23.333 0 43.166 8.16699 59.499 24.5
s24.5 36.166 24.5 59.499c0 24.667 -8.16699 45.334 -24.5 62.001s-36.166 25 -59.499 25c-24.667 0 -45.334 -8.33301 -62.001 -25s-25 -37.334 -25 -62.001c0 -23.333 8.33301 -43.166 25 -59.499s37.334 -24.5 62.001 -24.5z" />
    <glyph glyph-name="uni067D.init" unicode="&#x67d;" horiz-adv-x="612" 
d="M441 738l-0.00195312 -407.001c0 -68.667 -8.66699 -125.167 -26 -169.5s-41 -79.5 -71 -105.5s-65.167 -44.167 -105.5 -54.5s-83.166 -15.5 -128.499 -15.5h-110c-23.333 0 -40.833 6.33301 -52.5 19s-17.5 28.334 -17.5 47.001c0 18 5.83301 33.333 17.5 46
s29.167 19 52.5 19h115c34.667 0 64.834 3.5 90.501 10.5s47 18.667 64 35s29.833 38.333 38.5 66s13 62.167 13 103.5v406h120zM321.998 1156h-148v143h148v-143zM580.998 1156h-147v143h147v-143zM451.998 932.999h-147v143h147v-143z" />
    <glyph glyph-name="uni067D.medi" unicode="&#x67d;" horiz-adv-x="684" 
d="M441 338c0 -44 4.16504 -80.3359 12.498 -109.003s22 -51.167 41 -67.5s44 -27.833 75 -34.5s69.167 -10 114.5 -10v-131h-52c-67.333 0 -122.166 11 -164.499 33s-72.5 52.667 -90.5 92h-4c-25.333 -42 -59.666 -73.333 -102.999 -94s-91 -31 -143 -31h-127
c-23.333 0 -40.833 6.33301 -52.5 19s-17.5 28.334 -17.5 47.001c0 18 5.83301 33.333 17.5 46s29.167 19 52.5 19h124c26.667 0 52 3.33301 76 10s45 17.334 63 32.001s32.167 33.834 42.5 57.501s15.5 52.5 15.5 86.5v435h120v-400zM321.998 1156h-148v143h148v-143z
M580.998 1156h-147v143h147v-143zM451.998 932.997h-147v143h147v-143z" />
    <glyph glyph-name="uni067D.fina" unicode="&#x67d;" horiz-adv-x="1881" 
d="M1659 738l0.0078125 -399.999c0 -38.667 3.66699 -72 11 -100s19.5 -51 36.5 -69s39.833 -31.167 68.5 -39.5s64 -12.5 106 -12.5v-131h-43c-64.667 0 -116.334 10.5 -155.001 31.5s-68.334 53.5 -89.001 97.5h-4c-25.333 -28 -56.166 -50.833 -92.499 -68.5
s-79.833 -31.5 -130.5 -41.5s-108.834 -17 -174.501 -21s-140.167 -6 -223.5 -6c-95.333 0 -179.5 1.5 -252.5 4.5s-136.833 8.33301 -191.5 16s-101.334 18.167 -140.001 31.5s-71.334 30.666 -98.001 51.999c-40.667 32 -70.167 71.5 -88.5 118.5
s-27.5 100.833 -27.5 161.5c0 36 2.83301 72.167 8.5 108.5s12.5 70.5 20.5 102.5h118c-7.33301 -26.667 -13.5 -56 -18.5 -88s-7.5 -65.667 -7.5 -101c0 -46 6.33301 -85.5 19 -118.5s34 -60.167 64 -81.5c19.333 -13.333 44.166 -24.666 74.499 -33.999
s69.666 -17 117.999 -23s107.333 -10.333 177 -13s153.5 -4 251.5 -4c101.333 0 186.666 2.66699 255.999 8s125.166 16.166 167.499 32.499s72.833 39.5 91.5 69.5s28 69.667 28 119v399h120zM857.008 1156h-148v143h148v-143zM1116.01 1156h-147v143h147v-143z
M987.008 933.001h-147v143h147v-143z" />
    <glyph glyph-name="afii57506" unicode="&#x67e;" horiz-adv-x="1830" arabic-form="isolated" 
d="M318 573c-7.33301 -26.667 -13.4971 -56.0029 -18.4971 -88.0029s-7.5 -65.667 -7.5 -101c0 -46 6.16699 -85.5 18.5 -118.5s33.833 -60.167 64.5 -81.5c19.333 -13.333 44.166 -24.666 74.499 -33.999s69.666 -17 117.999 -23s107.333 -10.333 177 -13
s153.5 -4 251.5 -4c99.333 0 183.5 3 252.5 9s125 17.167 168 33.5s74.167 39.5 93.5 69.5s29 69 29 117v399h120v-399c0 -76 -14.667 -137.667 -44 -185s-73 -84 -131 -110s-130.333 -43.5 -217 -52.5s-187.334 -13.5 -302.001 -13.5c-94.667 0 -178.167 1.33301 -250.5 4
s-135.833 7.83398 -190.5 15.501s-101.167 18.334 -139.5 32.001s-70.833 31.167 -97.5 52.5c-40.667 32 -70.167 71.5 -88.5 118.5s-27.5 100.833 -27.5 161.5c0 36 2.83301 72.167 8.5 108.5s12.5 70.5 20.5 102.5h118zM832.003 -327.003h-148v143h148v-143z
M1091 -327.003h-147v143h147v-143zM962.003 -550.003h-147v143h147v-143z" />
    <glyph glyph-name="uni067F" unicode="&#x67f;" horiz-adv-x="1830" arabic-form="isolated" 
d="M318 573c-7.33301 -26.667 -13.4971 -56.0029 -18.4971 -88.0029s-7.5 -65.667 -7.5 -101c0 -46 6.16699 -85.5 18.5 -118.5s33.833 -60.167 64.5 -81.5c19.333 -13.333 44.166 -24.666 74.499 -33.999s69.666 -17 117.999 -23s107.333 -10.333 177 -13
s153.5 -4 251.5 -4c99.333 0 183.5 3 252.5 9s125 17.167 168 33.5s74.167 39.5 93.5 69.5s29 69 29 117v399h120v-399c0 -76 -14.667 -137.667 -44 -185s-73 -84 -131 -110s-130.333 -43.5 -217 -52.5s-187.334 -13.5 -302.001 -13.5c-94.667 0 -178.167 1.33301 -250.5 4
s-135.833 7.83398 -190.5 15.501s-101.167 18.334 -139.5 32.001s-70.833 31.167 -97.5 52.5c-40.667 32 -70.167 71.5 -88.5 118.5s-27.5 100.833 -27.5 161.5c0 36 2.83301 72.167 8.5 108.5s12.5 70.5 20.5 102.5h118zM876.003 933.997h-147v143h147v-143zM1136 933.997
h-147v143h147v-143zM876.003 1175h-147v143h147v-143zM1136 1175h-147v143h147v-143z" />
    <glyph glyph-name="uni0680" unicode="&#x680;" horiz-adv-x="1830" arabic-form="isolated" 
d="M318 573c-7.33301 -26.667 -13.4971 -56.0029 -18.4971 -88.0029s-7.5 -65.667 -7.5 -101c0 -46 6.16699 -85.5 18.5 -118.5s33.833 -60.167 64.5 -81.5c19.333 -13.333 44.166 -24.666 74.499 -33.999s69.666 -17 117.999 -23s107.333 -10.333 177 -13
s153.5 -4 251.5 -4c99.333 0 183.5 3 252.5 9s125 17.167 168 33.5s74.167 39.5 93.5 69.5s29 69 29 117v399h120v-399c0 -76 -14.667 -137.667 -44 -185s-73 -84 -131 -110s-130.333 -43.5 -217 -52.5s-187.334 -13.5 -302.001 -13.5c-94.667 0 -178.167 1.33301 -250.5 4
s-135.833 7.83398 -190.5 15.501s-101.167 18.334 -139.5 32.001s-70.833 31.167 -97.5 52.5c-40.667 32 -70.167 71.5 -88.5 118.5s-27.5 100.833 -27.5 161.5c0 36 2.83301 72.167 8.5 108.5s12.5 70.5 20.5 102.5h118zM832.003 -568.003h-147v143h147v-143z
M1092 -568.003h-147v143h147v-143zM832.003 -327.003h-147v143h147v-143zM1092 -327.003h-147v143h147v-143z" />
    <glyph glyph-name="uni0681.init" unicode="&#x681;" horiz-adv-x="1197" 
d="M171 696c39.333 14 79.668 24.4971 121.001 31.4971s82 10.5 122 10.5c44.667 0 86.334 -4.16699 125.001 -12.5s76 -18.666 112 -30.999s71.5 -26 106.5 -41s71 -28.833 108 -41.5s75.667 -23.334 116 -32.001s84.166 -13.334 131.499 -14.001l-24 -145
c-34 -7.33301 -70.5 -23.166 -109.5 -47.499s-81.333 -52.666 -127 -84.999l-150 -102c-54.333 -35.667 -114.333 -68.334 -180 -98.001s-137.5 -54.167 -215.5 -73.5s-163.667 -29 -257 -29h-50c-23.333 0 -40.833 6.33301 -52.5 19s-17.5 28.334 -17.5 47.001
c0 18 5.83301 33.333 17.5 46s29.167 19 52.5 19h59c64.667 0 125 5.33301 181 16s108.833 24.834 158.5 42.501s96.667 38.5 141 62.5s87.166 49.167 128.499 75.5l121.5 80.5l119.5 79v5c-40 12 -79 25.5 -117 40.5s-76.833 29.167 -116.5 42.5s-81 24.5 -124 33.5
s-89.5 13.5 -139.5 13.5c-18.667 0 -39 -1 -61 -3s-43.833 -4.66699 -65.5 -8s-42.5 -7.16602 -62.5 -11.499s-37.333 -8.83301 -52 -13.5v124zM659.002 1199c-8.66699 2 -17.834 3.66699 -27.501 5s-19.834 2 -30.501 2c-33.333 0 -61.166 -7.66699 -83.499 -23
s-33.5 -38 -33.5 -68c0 -62 45.333 -93 136 -93h83v-87h-342v81h90l1 5c-15.333 15.333 -27.5 32.666 -36.5 51.999s-13.5 40 -13.5 62c0 22.667 4.66699 43.834 14 63.501s22.5 36.667 39.5 51s37.333 25.5 61 33.5s49.834 12 78.501 12c20.667 0 42 -2 64 -6v-90z" />
    <glyph glyph-name="uni0681.medi" unicode="&#x681;" horiz-adv-x="1197" 
d="M171 696c39.333 14 79.6689 24.501 121.002 31.501s82 10.5 122 10.5c44.667 0 86.334 -4.16699 125.001 -12.5s76 -18.666 112 -30.999s71.5 -26 106.5 -41s71 -28.833 108 -41.5s75.667 -23.334 116 -32.001s84.166 -13.334 131.499 -14.001l-24 -145
c-22 -4 -45.5 -11.833 -70.5 -23.5s-51.5 -26.5 -79.5 -44.5c0 -39.333 4.5 -73.833 13.5 -103.5s23.5 -54.334 43.5 -74.001s46.5 -34.334 79.5 -44.001s73.5 -14.5 121.5 -14.5v-131h-20c-59.333 0 -109.333 7.66699 -150 23s-73.834 36.666 -99.501 63.999
s-44.334 60.333 -56.001 99s-18.5 81.667 -20.5 129c-29.333 -16.667 -61 -36.167 -95 -58.5l-109 -68.5c-38.667 -23.333 -80 -46.166 -124 -68.499s-90.667 -42.333 -140 -60s-101.833 -32 -157.5 -43s-114.167 -16.5 -175.5 -16.5h-50
c-23.333 0 -40.833 6.33301 -52.5 19s-17.5 28.334 -17.5 47.001c0 18 5.83301 33.333 17.5 46s29.167 19 52.5 19h50c62 0 120 5.5 174 16.5s105.333 25.667 154 44s95.167 39.5 139.5 63.5s88 49.167 131 75.5l128.5 80c42.667 27 86.667 52.5 132 76.5v5
c-40 12 -79 25.5 -117 40.5s-76.833 29.167 -116.5 42.5s-81 24.5 -124 33.5s-89.5 13.5 -139.5 13.5c-18.667 0 -39 -1 -61 -3s-43.833 -4.66699 -65.5 -8s-42.5 -7.16602 -62.5 -11.499s-37.333 -8.83301 -52 -13.5v124zM659.003 1199
c-8.66699 2 -17.834 3.66699 -27.501 5s-19.834 2 -30.501 2c-33.333 0 -61.166 -7.66699 -83.499 -23s-33.5 -38 -33.5 -68c0 -62 45.333 -93 136 -93h83v-87h-342v81h90l1 5c-15.333 15.333 -27.5 32.666 -36.5 51.999s-13.5 40 -13.5 62
c0 22.667 4.66699 43.834 14 63.501s22.5 36.667 39.5 51s37.333 25.5 61 33.5s49.834 12 78.501 12c20.667 0 42 -2 64 -6v-90z" />
    <glyph glyph-name="uni0681.fina" unicode="&#x681;" horiz-adv-x="1197" 
d="M1034 513c-20.667 -3.33301 -41.3301 -7.16504 -61.9971 -11.498s-39.334 -8.83301 -56.001 -13.5c1.33301 -70 6 -128.667 14 -176s21 -85.5 39 -114.5s41.667 -49.667 71 -62s66.666 -18.5 111.999 -18.5h45v-131h-37c-62.667 0 -115.5 9.66699 -158.5 29
s-77.667 48.5 -104 87.5s-45.666 88.167 -57.999 147.5s-19.5 129 -21.5 209c-98 -28 -181.833 -61 -251.5 -99s-126.834 -79 -171.501 -123s-77.334 -90 -98.001 -138s-31 -96 -31 -144c0 -47.333 8.33301 -91.333 25 -132s42.5 -75.834 77.5 -105.501s79.5 -53 133.5 -70
s118.333 -25.5 193 -25.5c136 0 265.333 23.667 388 71v-122c-123.333 -49.333 -253.666 -74 -390.999 -74c-95.333 0 -177.666 11.333 -246.999 34s-126.666 53.667 -171.999 93s-78.833 85.833 -100.5 139.5s-32.5 111.5 -32.5 173.5s13.167 124.333 39.5 187
s67.833 122.167 124.5 178.5s129.167 108 217.5 155s194.5 86.5 318.5 118.5v8c-36 9.33301 -69.5 19.666 -100.5 30.999s-62 22 -93 32s-63.667 18.333 -98 25s-73.166 10 -116.499 10c-49.333 0 -96.5 -3.83301 -141.5 -11.5s-84.833 -16.834 -119.5 -27.501v123
c39.333 13.333 81.166 24.166 125.499 32.499s90.5 12.5 138.5 12.5c41.333 0 79.666 -3.83301 114.999 -11.5s69 -17.167 101 -28.5s63.167 -23.666 93.5 -36.999s61.666 -25.833 93.999 -37.5s66.166 -21.667 101.499 -30s74.333 -13.166 117 -14.499zM718.004 1291
c-8.66699 2 -17.834 3.66699 -27.501 5s-19.834 2 -30.501 2c-33.333 0 -61.166 -7.66699 -83.499 -23s-33.5 -38 -33.5 -68c0 -62 45.333 -93 136 -93h83v-87h-342v81h90l1 5c-15.333 15.333 -27.5 32.666 -36.5 51.999s-13.5 40 -13.5 62
c0 22.667 4.66699 43.834 14 63.501s22.5 36.667 39.5 51s37.333 25.5 61 33.5s49.834 12 78.501 12c20.667 0 42 -2 64 -6v-90z" />
    <glyph glyph-name="uni0682.init" unicode="&#x682;" horiz-adv-x="1197" 
d="M171 696c39.333 14 79.668 24.4971 121.001 31.4971s82 10.5 122 10.5c44.667 0 86.334 -4.16699 125.001 -12.5s76 -18.666 112 -30.999s71.5 -26 106.5 -41s71 -28.833 108 -41.5s75.667 -23.334 116 -32.001s84.166 -13.334 131.499 -14.001l-24 -145
c-34 -7.33301 -70.5 -23.166 -109.5 -47.499s-81.333 -52.666 -127 -84.999l-150 -102c-54.333 -35.667 -114.333 -68.334 -180 -98.001s-137.5 -54.167 -215.5 -73.5s-163.667 -29 -257 -29h-50c-23.333 0 -40.833 6.33301 -52.5 19s-17.5 28.334 -17.5 47.001
c0 18 5.83301 33.333 17.5 46s29.167 19 52.5 19h59c64.667 0 125 5.33301 181 16s108.833 24.834 158.5 42.501s96.667 38.5 141 62.5s87.166 49.167 128.499 75.5l121.5 80.5l119.5 79v5c-40 12 -79 25.5 -117 40.5s-76.833 29.167 -116.5 42.5s-81 24.5 -124 33.5
s-89.5 13.5 -139.5 13.5c-18.667 0 -39 -1 -61 -3s-43.833 -4.66699 -65.5 -8s-42.5 -7.16602 -62.5 -11.499s-37.333 -8.83301 -52 -13.5v124zM669.002 892.997h-147v143h147v-143zM669.002 1124h-147v143h147v-143z" />
    <glyph glyph-name="uni0682.medi" unicode="&#x682;" horiz-adv-x="1197" 
d="M171 696c39.333 14 79.6689 24.501 121.002 31.501s82 10.5 122 10.5c44.667 0 86.334 -4.16699 125.001 -12.5s76 -18.666 112 -30.999s71.5 -26 106.5 -41s71 -28.833 108 -41.5s75.667 -23.334 116 -32.001s84.166 -13.334 131.499 -14.001l-24 -145
c-22 -4 -45.5 -11.833 -70.5 -23.5s-51.5 -26.5 -79.5 -44.5c0 -39.333 4.5 -73.833 13.5 -103.5s23.5 -54.334 43.5 -74.001s46.5 -34.334 79.5 -44.001s73.5 -14.5 121.5 -14.5v-131h-20c-59.333 0 -109.333 7.66699 -150 23s-73.834 36.666 -99.501 63.999
s-44.334 60.333 -56.001 99s-18.5 81.667 -20.5 129c-29.333 -16.667 -61 -36.167 -95 -58.5l-109 -68.5c-38.667 -23.333 -80 -46.166 -124 -68.499s-90.667 -42.333 -140 -60s-101.833 -32 -157.5 -43s-114.167 -16.5 -175.5 -16.5h-50
c-23.333 0 -40.833 6.33301 -52.5 19s-17.5 28.334 -17.5 47.001c0 18 5.83301 33.333 17.5 46s29.167 19 52.5 19h50c62 0 120 5.5 174 16.5s105.333 25.667 154 44s95.167 39.5 139.5 63.5s88 49.167 131 75.5l128.5 80c42.667 27 86.667 52.5 132 76.5v5
c-40 12 -79 25.5 -117 40.5s-76.833 29.167 -116.5 42.5s-81 24.5 -124 33.5s-89.5 13.5 -139.5 13.5c-18.667 0 -39 -1 -61 -3s-43.833 -4.66699 -65.5 -8s-42.5 -7.16602 -62.5 -11.499s-37.333 -8.83301 -52 -13.5v124zM669.003 893.001h-147v143h147v-143zM669.003 1124
h-147v143h147v-143z" />
    <glyph glyph-name="uni0682.fina" unicode="&#x682;" horiz-adv-x="1197" 
d="M1034 513c-20.667 -3.33301 -41.3301 -7.16504 -61.9971 -11.498s-39.334 -8.83301 -56.001 -13.5c1.33301 -70 6 -128.667 14 -176s21 -85.5 39 -114.5s41.667 -49.667 71 -62s66.666 -18.5 111.999 -18.5h45v-131h-37c-62.667 0 -115.5 9.66699 -158.5 29
s-77.667 48.5 -104 87.5s-45.666 88.167 -57.999 147.5s-19.5 129 -21.5 209c-98 -28 -181.833 -61 -251.5 -99s-126.834 -79 -171.501 -123s-77.334 -90 -98.001 -138s-31 -96 -31 -144c0 -47.333 8.33301 -91.333 25 -132s42.5 -75.834 77.5 -105.501s79.5 -53 133.5 -70
s118.333 -25.5 193 -25.5c136 0 265.333 23.667 388 71v-122c-123.333 -49.333 -253.666 -74 -390.999 -74c-95.333 0 -177.666 11.333 -246.999 34s-126.666 53.667 -171.999 93s-78.833 85.833 -100.5 139.5s-32.5 111.5 -32.5 173.5s13.167 124.333 39.5 187
s67.833 122.167 124.5 178.5s129.167 108 217.5 155s194.5 86.5 318.5 118.5v8c-36 9.33301 -69.5 19.666 -100.5 30.999s-62 22 -93 32s-63.667 18.333 -98 25s-73.166 10 -116.499 10c-49.333 0 -96.5 -3.83301 -141.5 -11.5s-84.833 -16.834 -119.5 -27.501v123
c39.333 13.333 81.166 24.166 125.499 32.499s90.5 12.5 138.5 12.5c41.333 0 79.666 -3.83301 114.999 -11.5s69 -17.167 101 -28.5s63.167 -23.666 93.5 -36.999s61.666 -25.833 93.999 -37.5s66.166 -21.667 101.499 -30s74.333 -13.166 117 -14.499zM669.004 1031h-147
v143h147v-143zM669.004 1262h-147v143h147v-143z" />
    <glyph glyph-name="uni0683" unicode="&#x683;" horiz-adv-x="1197" arabic-form="isolated" 
d="M1029 514c-136 -30 -252.334 -65.165 -349.001 -105.498s-175.667 -84.5 -237 -132.5s-106.166 -99 -134.499 -153s-42.5 -110 -42.5 -168c0 -47.333 8.33301 -91.333 25 -132s42.5 -75.834 77.5 -105.501s79.5 -53 133.5 -70s118.333 -25.5 193 -25.5
c136 0 265.333 23.667 388 71v-122c-123.333 -49.333 -253.666 -74 -390.999 -74c-95.333 0 -177.666 11.333 -246.999 34s-126.666 53.667 -171.999 93s-78.833 85.833 -100.5 139.5s-32.5 111.5 -32.5 173.5s13.5 124.333 40.5 187s69 122.167 126 178.5
s129.667 108 218 155s193.5 86.5 315.5 118.5v8c-36 9.33301 -69.5 19.666 -100.5 30.999s-62 22 -93 32s-63.667 18.333 -98 25s-73.166 10 -116.499 10c-49.333 0 -96.5 -3.83301 -141.5 -11.5s-84.833 -16.834 -119.5 -27.501v123
c39.333 13.333 81.166 24.166 125.499 32.499s90.5 12.5 138.5 12.5c41.333 0 79.666 -3.83301 114.999 -11.5s69 -17.167 101 -28.5s63.167 -23.666 93.5 -36.999s61.666 -25.833 93.999 -37.5s66.166 -21.667 101.499 -30s74.333 -13.166 117 -14.499zM636.999 -40.998
h-147v143h147v-143zM896.999 -40.998h-147v143h147v-143z" />
    <glyph glyph-name="uni0684" unicode="&#x684;" horiz-adv-x="1197" arabic-form="isolated" 
d="M1029 514c-136 -30 -252.334 -65.165 -349.001 -105.498s-175.667 -84.5 -237 -132.5s-106.166 -99 -134.499 -153s-42.5 -110 -42.5 -168c0 -47.333 8.33301 -91.333 25 -132s42.5 -75.834 77.5 -105.501s79.5 -53 133.5 -70s118.333 -25.5 193 -25.5
c136 0 265.333 23.667 388 71v-122c-123.333 -49.333 -253.666 -74 -390.999 -74c-95.333 0 -177.666 11.333 -246.999 34s-126.666 53.667 -171.999 93s-78.833 85.833 -100.5 139.5s-32.5 111.5 -32.5 173.5s13.5 124.333 40.5 187s69 122.167 126 178.5
s129.667 108 218 155s193.5 86.5 315.5 118.5v8c-36 9.33301 -69.5 19.666 -100.5 30.999s-62 22 -93 32s-63.667 18.333 -98 25s-73.166 10 -116.499 10c-49.333 0 -96.5 -3.83301 -141.5 -11.5s-84.833 -16.834 -119.5 -27.501v123
c39.333 13.333 81.166 24.166 125.499 32.499s90.5 12.5 138.5 12.5c41.333 0 79.666 -3.83301 114.999 -11.5s69 -17.167 101 -28.5s63.167 -23.666 93.5 -36.999s61.666 -25.833 93.999 -37.5s66.166 -21.667 101.499 -30s74.333 -13.166 117 -14.499zM786.999 -177.998
h-147v143h147v-143zM786.999 53.002h-147v143h147v-143z" />
    <glyph glyph-name="uni0685.init" unicode="&#x685;" horiz-adv-x="1197" 
d="M171 696c39.333 14 79.668 24.4971 121.001 31.4971s82 10.5 122 10.5c44.667 0 86.334 -4.16699 125.001 -12.5s76 -18.666 112 -30.999s71.5 -26 106.5 -41s71 -28.833 108 -41.5s75.667 -23.334 116 -32.001s84.166 -13.334 131.499 -14.001l-24 -145
c-34 -7.33301 -70.5 -23.166 -109.5 -47.499s-81.333 -52.666 -127 -84.999l-150 -102c-54.333 -35.667 -114.333 -68.334 -180 -98.001s-137.5 -54.167 -215.5 -73.5s-163.667 -29 -257 -29h-50c-23.333 0 -40.833 6.33301 -52.5 19s-17.5 28.334 -17.5 47.001
c0 18 5.83301 33.333 17.5 46s29.167 19 52.5 19h59c64.667 0 125 5.33301 181 16s108.833 24.834 158.5 42.501s96.667 38.5 141 62.5s87.166 49.167 128.499 75.5l121.5 80.5l119.5 79v5c-40 12 -79 25.5 -117 40.5s-76.833 29.167 -116.5 42.5s-81 24.5 -124 33.5
s-89.5 13.5 -139.5 13.5c-18.667 0 -39 -1 -61 -3s-43.833 -4.66699 -65.5 -8s-42.5 -7.16602 -62.5 -11.499s-37.333 -8.83301 -52 -13.5v124zM512.002 933.997h-147v143h147v-143zM772.002 933.997h-147v143h147v-143zM642.002 1165h-147v143h147v-143z" />
    <glyph glyph-name="uni0685.medi" unicode="&#x685;" horiz-adv-x="1197" 
d="M171 696c39.333 14 79.6689 24.501 121.002 31.501s82 10.5 122 10.5c44.667 0 86.334 -4.16699 125.001 -12.5s76 -18.666 112 -30.999s71.5 -26 106.5 -41s71 -28.833 108 -41.5s75.667 -23.334 116 -32.001s84.166 -13.334 131.499 -14.001l-24 -145
c-22 -4 -45.5 -11.833 -70.5 -23.5s-51.5 -26.5 -79.5 -44.5c0 -39.333 4.5 -73.833 13.5 -103.5s23.5 -54.334 43.5 -74.001s46.5 -34.334 79.5 -44.001s73.5 -14.5 121.5 -14.5v-131h-20c-59.333 0 -109.333 7.66699 -150 23s-73.834 36.666 -99.501 63.999
s-44.334 60.333 -56.001 99s-18.5 81.667 -20.5 129c-29.333 -16.667 -61 -36.167 -95 -58.5l-109 -68.5c-38.667 -23.333 -80 -46.166 -124 -68.499s-90.667 -42.333 -140 -60s-101.833 -32 -157.5 -43s-114.167 -16.5 -175.5 -16.5h-50
c-23.333 0 -40.833 6.33301 -52.5 19s-17.5 28.334 -17.5 47.001c0 18 5.83301 33.333 17.5 46s29.167 19 52.5 19h50c62 0 120 5.5 174 16.5s105.333 25.667 154 44s95.167 39.5 139.5 63.5s88 49.167 131 75.5l128.5 80c42.667 27 86.667 52.5 132 76.5v5
c-40 12 -79 25.5 -117 40.5s-76.833 29.167 -116.5 42.5s-81 24.5 -124 33.5s-89.5 13.5 -139.5 13.5c-18.667 0 -39 -1 -61 -3s-43.833 -4.66699 -65.5 -8s-42.5 -7.16602 -62.5 -11.499s-37.333 -8.83301 -52 -13.5v124zM512.003 934.001h-147v143h147v-143z
M772.003 934.001h-147v143h147v-143zM642.003 1165h-147v143h147v-143z" />
    <glyph glyph-name="uni0685.fina" unicode="&#x685;" horiz-adv-x="1197" 
d="M1034 513c-20.667 -3.33301 -41.3301 -7.16504 -61.9971 -11.498s-39.334 -8.83301 -56.001 -13.5c1.33301 -70 6 -128.667 14 -176s21 -85.5 39 -114.5s41.667 -49.667 71 -62s66.666 -18.5 111.999 -18.5h45v-131h-37c-62.667 0 -115.5 9.66699 -158.5 29
s-77.667 48.5 -104 87.5s-45.666 88.167 -57.999 147.5s-19.5 129 -21.5 209c-98 -28 -181.833 -61 -251.5 -99s-126.834 -79 -171.501 -123s-77.334 -90 -98.001 -138s-31 -96 -31 -144c0 -47.333 8.33301 -91.333 25 -132s42.5 -75.834 77.5 -105.501s79.5 -53 133.5 -70
s118.333 -25.5 193 -25.5c136 0 265.333 23.667 388 71v-122c-123.333 -49.333 -253.666 -74 -390.999 -74c-95.333 0 -177.666 11.333 -246.999 34s-126.666 53.667 -171.999 93s-78.833 85.833 -100.5 139.5s-32.5 111.5 -32.5 173.5s13.167 124.333 39.5 187
s67.833 122.167 124.5 178.5s129.167 108 217.5 155s194.5 86.5 318.5 118.5v8c-36 9.33301 -69.5 19.666 -100.5 30.999s-62 22 -93 32s-63.667 18.333 -98 25s-73.166 10 -116.499 10c-49.333 0 -96.5 -3.83301 -141.5 -11.5s-84.833 -16.834 -119.5 -27.501v123
c39.333 13.333 81.166 24.166 125.499 32.499s90.5 12.5 138.5 12.5c41.333 0 79.666 -3.83301 114.999 -11.5s69 -17.167 101 -28.5s63.167 -23.666 93.5 -36.999s61.666 -25.833 93.999 -37.5s66.166 -21.667 101.499 -30s74.333 -13.166 117 -14.499zM571.004 1031h-147
v143h147v-143zM831.004 1031h-147v143h147v-143zM701.004 1262h-147v143h147v-143z" />
    <glyph glyph-name="afii57507" unicode="&#x686;" horiz-adv-x="1197" arabic-form="isolated" 
d="M1029 514c-136 -30 -252.334 -65.165 -349.001 -105.498s-175.667 -84.5 -237 -132.5s-106.166 -99 -134.499 -153s-42.5 -110 -42.5 -168c0 -47.333 8.33301 -91.333 25 -132s42.5 -75.834 77.5 -105.501s79.5 -53 133.5 -70s118.333 -25.5 193 -25.5
c136 0 265.333 23.667 388 71v-122c-123.333 -49.333 -253.666 -74 -390.999 -74c-95.333 0 -177.666 11.333 -246.999 34s-126.666 53.667 -171.999 93s-78.833 85.833 -100.5 139.5s-32.5 111.5 -32.5 173.5s13.5 124.333 40.5 187s69 122.167 126 178.5
s129.667 108 218 155s193.5 86.5 315.5 118.5v8c-36 9.33301 -69.5 19.666 -100.5 30.999s-62 22 -93 32s-63.667 18.333 -98 25s-73.166 10 -116.499 10c-49.333 0 -96.5 -3.83301 -141.5 -11.5s-84.833 -16.834 -119.5 -27.501v123
c39.333 13.333 81.166 24.166 125.499 32.499s90.5 12.5 138.5 12.5c41.333 0 79.666 -3.83301 114.999 -11.5s69 -17.167 101 -28.5s63.167 -23.666 93.5 -36.999s61.666 -25.833 93.999 -37.5s66.166 -21.667 101.499 -30s74.333 -13.166 117 -14.499zM677.999 29.002
h-148v143h148v-143zM936.999 29.002h-147v143h147v-143zM807.999 -193.998h-147v143h147v-143z" />
    <glyph glyph-name="uni0687" unicode="&#x687;" horiz-adv-x="1197" arabic-form="isolated" 
d="M1029 514c-136 -30 -252.334 -65.165 -349.001 -105.498s-175.667 -84.5 -237 -132.5s-106.166 -99 -134.499 -153s-42.5 -110 -42.5 -168c0 -47.333 8.33301 -91.333 25 -132s42.5 -75.834 77.5 -105.501s79.5 -53 133.5 -70s118.333 -25.5 193 -25.5
c136 0 265.333 23.667 388 71v-122c-123.333 -49.333 -253.666 -74 -390.999 -74c-95.333 0 -177.666 11.333 -246.999 34s-126.666 53.667 -171.999 93s-78.833 85.833 -100.5 139.5s-32.5 111.5 -32.5 173.5s13.5 124.333 40.5 187s69 122.167 126 178.5
s129.667 108 218 155s193.5 86.5 315.5 118.5v8c-36 9.33301 -69.5 19.666 -100.5 30.999s-62 22 -93 32s-63.667 18.333 -98 25s-73.166 10 -116.499 10c-49.333 0 -96.5 -3.83301 -141.5 -11.5s-84.833 -16.834 -119.5 -27.501v123
c39.333 13.333 81.166 24.166 125.499 32.499s90.5 12.5 138.5 12.5c41.333 0 79.666 -3.83301 114.999 -11.5s69 -17.167 101 -28.5s63.167 -23.666 93.5 -36.999s61.666 -25.833 93.999 -37.5s66.166 -21.667 101.499 -30s74.333 -13.166 117 -14.499zM659.999 -183.998
h-147v143h147v-143zM919.999 -183.998h-147v143h147v-143zM659.999 57.002h-147v143h147v-143zM919.999 57.002h-147v143h147v-143z" />
    <glyph glyph-name="afii57512" unicode="&#x688;" horiz-adv-x="975" arabic-form="isolated" 
d="M79 132c28 -3.33301 56.3369 -6.33203 85.0039 -8.99902s56.667 -5 84 -7s53.666 -3.5 78.999 -4.5s48 -1.5 68 -1.5c53.333 0 98.5 3.66699 135.5 11s67 18.666 90 33.999s39.5 35.166 49.5 59.499s15 53.166 15 86.499c0 43.333 -7.83301 88.833 -23.5 136.5
s-37.834 97.334 -66.501 149.001s-62.834 105.334 -102.501 161.001s-83.834 113.167 -132.501 172.5h144c105.333 -123.333 182 -236.833 230 -340.5s72 -199.167 72 -286.5c0 -58.667 -10 -108 -30 -148s-48 -72.333 -84 -97s-78.833 -42.5 -128.5 -53.5
s-104.5 -16.5 -164.5 -16.5c-39.333 0 -84.5 2 -135.5 6s-100.833 9.33301 -149.5 16zM119.004 1272c15.333 -1.33301 33.1689 -2.5 53.502 -3.5s41.166 -1.83301 62.499 -2.5v482h83v-341l3 -1c25.333 42.667 55.666 75.5 90.999 98.5s75 34.5 119 34.5
c28 0 52.5 -5.5 73.5 -16.5s38.5 -25.5 52.5 -43.5s24.5 -39 31.5 -63s10.5 -49 10.5 -75c0 -39.333 -5.66699 -70 -17 -92s-28.166 -38.667 -50.499 -50s-49.833 -18.333 -82.5 -21s-70.334 -4 -113.001 -4c-40 0 -75.333 0.166992 -106 0.5s-58 0.833008 -82 1.5
s-45.333 1.5 -64 2.5s-36 2.5 -52 4.5zM442.007 1265c34.667 0 63.333 0.498047 86 1.49805s40.834 4.16699 54.501 9.5s23.334 13.333 29.001 24s8.5 25.667 8.5 45c0 33.333 -10.167 58.833 -30.5 76.5s-44.833 26.5 -73.5 26.5c-20.667 0 -40.834 -4.66699 -60.501 -14
s-38.334 -22.166 -56.001 -38.499s-33.667 -35.666 -48 -57.999s-26.833 -46.5 -37.5 -72.5h128z" />
    <glyph glyph-name="uni0689.fina" unicode="&#x689;" horiz-adv-x="1026" 
d="M79 132c56 -7.33301 112.167 -12.8311 168.5 -16.498s106.166 -5.5 149.499 -5.5c52 0 95.833 3 131.5 9s64.834 15.167 87.501 27.5s39 28.166 49 47.499s15 42 15 68c0 26.667 -4.16699 61.667 -12.5 105s-20 93.166 -35 149.499s-33 118.166 -54 185.499
s-44.5 138.333 -70.5 213h130l45 -147l40.5 -142.5l37.5 -140l37 -140.5c10 -34.667 20.833 -66 32.5 -94s26.334 -52 44.001 -72s38.667 -35.333 63 -46s53.833 -16 88.5 -16v-131h-43c-21.333 0 -42.5 2.83301 -63.5 8.5s-40.833 14.5 -59.5 26.5s-35.667 27.333 -51 46
s-28 41.334 -38 68.001h-5c-29.333 -57.333 -74 -97.833 -134 -121.5s-137 -35.5 -231 -35.5c-40.667 0 -86.334 2 -137.001 6s-100.667 9.33301 -150 16zM429 52.002c21.333 0 41.6641 -4.16797 60.9971 -12.501s36.166 -19.666 50.499 -33.999s25.833 -31.5 34.5 -51.5
s13 -41.333 13 -64c0 -21.333 -4.33301 -41.666 -13 -60.999s-20.167 -36.333 -34.5 -51s-31.166 -26.167 -50.499 -34.5s-39.666 -12.5 -60.999 -12.5c-23.333 0 -44.833 4.16699 -64.5 12.5s-36.667 19.833 -51 34.5s-25.666 31.5 -33.999 50.5s-12.5 39.5 -12.5 61.5
c0 22.667 4 44 12 64s19.333 37.167 34 51.5s31.834 25.666 51.501 33.999s41.167 12.5 64.5 12.5zM428.998 -193.999c23.333 0 43.166 8.16699 59.499 24.5s24.5 36.166 24.5 59.499c0 24.667 -8.16699 45.334 -24.5 62.001s-36.166 25 -59.499 25
c-24.667 0 -45.334 -8.33301 -62.001 -25s-25 -37.334 -25 -62.001c0 -23.333 8.33301 -43.166 25 -59.499s37.334 -24.5 62.001 -24.5z" />
    <glyph glyph-name="uni068A.fina" unicode="&#x68a;" horiz-adv-x="1026" 
d="M79 132c56 -7.33301 112.167 -12.8311 168.5 -16.498s106.166 -5.5 149.499 -5.5c52 0 95.833 3 131.5 9s64.834 15.167 87.501 27.5s39 28.166 49 47.499s15 42 15 68c0 26.667 -4.16699 61.667 -12.5 105s-20 93.166 -35 149.499s-33 118.166 -54 185.499
s-44.5 138.333 -70.5 213h130l45 -147l40.5 -142.5l37.5 -140l37 -140.5c10 -34.667 20.833 -66 32.5 -94s26.334 -52 44.001 -72s38.667 -35.333 63 -46s53.833 -16 88.5 -16v-131h-43c-21.333 0 -42.5 2.83301 -63.5 8.5s-40.833 14.5 -59.5 26.5s-35.667 27.333 -51 46
s-28 41.334 -38 68.001h-5c-29.333 -57.333 -74 -97.833 -134 -121.5s-137 -35.5 -231 -35.5c-40.667 0 -86.334 2 -137.001 6s-100.667 9.33301 -150 16zM513 -326.998h-147v143h147v-143z" />
    <glyph glyph-name="uni068B.fina" unicode="&#x68b;" horiz-adv-x="1026" 
d="M79 132c56 -7.33301 112.167 -12.8311 168.5 -16.498s106.166 -5.5 149.499 -5.5c52 0 95.833 3 131.5 9s64.834 15.167 87.501 27.5s39 28.166 49 47.499s15 42 15 68c0 26.667 -4.16699 61.667 -12.5 105s-20 93.166 -35 149.499s-33 118.166 -54 185.499
s-44.5 138.333 -70.5 213h130l45 -147l40.5 -142.5l37.5 -140l37 -140.5c10 -34.667 20.833 -66 32.5 -94s26.334 -52 44.001 -72s38.667 -35.333 63 -46s53.833 -16 88.5 -16v-131h-43c-21.333 0 -42.5 2.83301 -63.5 8.5s-40.833 14.5 -59.5 26.5s-35.667 27.333 -51 46
s-28 41.334 -38 68.001h-5c-29.333 -57.333 -74 -97.833 -134 -121.5s-137 -35.5 -231 -35.5c-40.667 0 -86.334 2 -137.001 6s-100.667 9.33301 -150 16zM513 -326.998h-147v143h147v-143zM253 1272c15.333 -1.33301 33.1689 -2.5 53.502 -3.5s41.166 -1.83301 62.499 -2.5
v482h83v-341l3 -1c25.333 42.667 55.666 75.5 90.999 98.5s75 34.5 119 34.5c28 0 52.5 -5.5 73.5 -16.5s38.5 -25.5 52.5 -43.5s24.5 -39 31.5 -63s10.5 -49 10.5 -75c0 -39.333 -5.66699 -70 -17 -92s-28.166 -38.667 -50.499 -50s-49.833 -18.333 -82.5 -21
s-70.334 -4 -113.001 -4c-40 0 -75.333 0.166992 -106 0.5s-58 0.833008 -82 1.5s-45.333 1.5 -64 2.5s-36 2.5 -52 4.5zM576.003 1265c34.667 0 63.333 0.498047 86 1.49805s40.834 4.16699 54.501 9.5s23.334 13.333 29.001 24s8.5 25.667 8.5 45
c0 33.333 -10.167 58.833 -30.5 76.5s-44.833 26.5 -73.5 26.5c-20.667 0 -40.834 -4.66699 -60.501 -14s-38.334 -22.166 -56.001 -38.499s-33.667 -35.666 -48 -57.999s-26.833 -46.5 -37.5 -72.5h128z" />
    <glyph glyph-name="uni068C" unicode="&#x68c;" horiz-adv-x="975" arabic-form="isolated" 
d="M79 132c28 -3.33301 56.3369 -6.33203 85.0039 -8.99902s56.667 -5 84 -7s53.666 -3.5 78.999 -4.5s48 -1.5 68 -1.5c53.333 0 98.5 3.66699 135.5 11s67 18.666 90 33.999s39.5 35.166 49.5 59.499s15 53.166 15 86.499c0 43.333 -7.83301 88.833 -23.5 136.5
s-37.834 97.334 -66.501 149.001s-62.834 105.334 -102.501 161.001s-83.834 113.167 -132.501 172.5h144c105.333 -123.333 182 -236.833 230 -340.5s72 -199.167 72 -286.5c0 -58.667 -10 -108 -30 -148s-48 -72.333 -84 -97s-78.833 -42.5 -128.5 -53.5
s-104.5 -16.5 -164.5 -16.5c-39.333 0 -84.5 2 -135.5 6s-100.833 9.33301 -149.5 16zM349.004 1174h-147v143h147v-143zM609.004 1174h-147v143h147v-143z" />
    <glyph glyph-name="uni068D" unicode="&#x68d;" horiz-adv-x="975" arabic-form="isolated" 
d="M79 132c28 -3.33301 56.3369 -6.33203 85.0039 -8.99902s56.667 -5 84 -7s53.666 -3.5 78.999 -4.5s48 -1.5 68 -1.5c53.333 0 98.5 3.66699 135.5 11s67 18.666 90 33.999s39.5 35.166 49.5 59.499s15 53.166 15 86.499c0 43.333 -7.83301 88.833 -23.5 136.5
s-37.834 97.334 -66.501 149.001s-62.834 105.334 -102.501 161.001s-83.834 113.167 -132.501 172.5h144c105.333 -123.333 182 -236.833 230 -340.5s72 -199.167 72 -286.5c0 -58.667 -10 -108 -30 -148s-48 -72.333 -84 -97s-78.833 -42.5 -128.5 -53.5
s-104.5 -16.5 -164.5 -16.5c-39.333 0 -84.5 2 -135.5 6s-100.833 9.33301 -149.5 16zM371.004 -326.999h-147v143h147v-143zM631.004 -326.999h-147v143h147v-143z" />
    <glyph glyph-name="uni068E" unicode="&#x68e;" horiz-adv-x="975" arabic-form="isolated" 
d="M79 132c28 -3.33301 56.3369 -6.33203 85.0039 -8.99902s56.667 -5 84 -7s53.666 -3.5 78.999 -4.5s48 -1.5 68 -1.5c53.333 0 98.5 3.66699 135.5 11s67 18.666 90 33.999s39.5 35.166 49.5 59.499s15 53.166 15 86.499c0 43.333 -7.83301 88.833 -23.5 136.5
s-37.834 97.334 -66.501 149.001s-62.834 105.334 -102.501 161.001s-83.834 113.167 -132.501 172.5h144c105.333 -123.333 182 -236.833 230 -340.5s72 -199.167 72 -286.5c0 -58.667 -10 -108 -30 -148s-48 -72.333 -84 -97s-78.833 -42.5 -128.5 -53.5
s-104.5 -16.5 -164.5 -16.5c-39.333 0 -84.5 2 -135.5 6s-100.833 9.33301 -149.5 16zM349.004 1174h-147v143h147v-143zM609.004 1174h-147v143h147v-143zM479.004 1405h-147v143h147v-143z" />
    <glyph glyph-name="uni068F.fina" unicode="&#x68f;" horiz-adv-x="1026" 
d="M79 132c56 -7.33301 112.167 -12.8311 168.5 -16.498s106.166 -5.5 149.499 -5.5c52 0 95.833 3 131.5 9s64.834 15.167 87.501 27.5s39 28.166 49 47.499s15 42 15 68c0 26.667 -4.16699 61.667 -12.5 105s-20 93.166 -35 149.499s-33 118.166 -54 185.499
s-44.5 138.333 -70.5 213h130l45 -147l40.5 -142.5l37.5 -140l37 -140.5c10 -34.667 20.833 -66 32.5 -94s26.334 -52 44.001 -72s38.667 -35.333 63 -46s53.833 -16 88.5 -16v-131h-43c-21.333 0 -42.5 2.83301 -63.5 8.5s-40.833 14.5 -59.5 26.5s-35.667 27.333 -51 46
s-28 41.334 -38 68.001h-5c-29.333 -57.333 -74 -97.833 -134 -121.5s-137 -35.5 -231 -35.5c-40.667 0 -86.334 2 -137.001 6s-100.667 9.33301 -150 16zM494 1397h-148v143h148v-143zM753 1397h-147v143h147v-143zM624 1174h-147v143h147v-143z" />
    <glyph glyph-name="uni0690.fina" unicode="&#x690;" horiz-adv-x="1026" 
d="M79 132c56 -7.33301 112.167 -12.8311 168.5 -16.498s106.166 -5.5 149.499 -5.5c52 0 95.833 3 131.5 9s64.834 15.167 87.501 27.5s39 28.166 49 47.499s15 42 15 68c0 26.667 -4.16699 61.667 -12.5 105s-20 93.166 -35 149.499s-33 118.166 -54 185.499
s-44.5 138.333 -70.5 213h130l45 -147l40.5 -142.5l37.5 -140l37 -140.5c10 -34.667 20.833 -66 32.5 -94s26.334 -52 44.001 -72s38.667 -35.333 63 -46s53.833 -16 88.5 -16v-131h-43c-21.333 0 -42.5 2.83301 -63.5 8.5s-40.833 14.5 -59.5 26.5s-35.667 27.333 -51 46
s-28 41.334 -38 68.001h-5c-29.333 -57.333 -74 -97.833 -134 -121.5s-137 -35.5 -231 -35.5c-40.667 0 -86.334 2 -137.001 6s-100.667 9.33301 -150 16zM491 1174h-147v143h147v-143zM751 1174h-147v143h147v-143zM491 1415h-147v143h147v-143zM751 1415h-147v143h147
v-143z" />
    <glyph glyph-name="afii57513" unicode="&#x691;" horiz-adv-x="812" arabic-form="isolated" 
d="M0 -315c38 -12.667 74.665 -22.334 109.998 -29.001s69.666 -10 102.999 -10c106.667 0 184.5 34.667 233.5 104s73.5 172.333 73.5 309c0 93.333 -11.167 186.333 -33.5 279s-50.833 183.667 -85.5 273h131c17.333 -43.333 32.833 -88.666 46.5 -135.999
s25.334 -95 35.001 -143s17 -95.333 22 -142s7.5 -91 7.5 -133c0 -92 -10.333 -172.167 -31 -240.5s-49.667 -125 -87 -170s-81.666 -78.667 -132.999 -101s-107.666 -33.5 -168.999 -33.5c-38 0 -75.833 4 -113.5 12s-74.167 19 -109.5 33v128zM110.998 949
c15.333 -1.33301 33.1689 -2.5 53.502 -3.5s41.166 -1.83301 62.499 -2.5v482h83v-341l3 -1c25.333 42.667 55.666 75.5 90.999 98.5s75 34.5 119 34.5c28 0 52.5 -5.5 73.5 -16.5s38.5 -25.5 52.5 -43.5s24.5 -39 31.5 -63s10.5 -49 10.5 -75
c0 -39.333 -5.66699 -70 -17 -92s-28.166 -38.667 -50.499 -50s-49.833 -18.333 -82.5 -21s-70.334 -4 -113.001 -4c-40 0 -75.333 0.166992 -106 0.5s-58 0.833008 -82 1.5s-45.333 1.5 -64 2.5s-36 2.5 -52 4.5zM434.001 942c34.667 0 63.333 0.498047 86 1.49805
s40.834 4.16699 54.501 9.5s23.334 13.333 29.001 24s8.5 25.667 8.5 45c0 33.333 -10.167 58.833 -30.5 76.5s-44.833 26.5 -73.5 26.5c-20.667 0 -40.834 -4.66699 -60.501 -14s-38.334 -22.166 -56.001 -38.499s-33.667 -35.666 -48 -57.999s-26.833 -46.5 -37.5 -72.5
h128z" />
    <glyph glyph-name="uni0692.fina" unicode="&#x692;" horiz-adv-x="812" 
d="M532 611c18 -50 34.8311 -102.666 50.498 -157.999s28.167 -111.333 37.5 -168s30.333 -98.834 63 -126.501s75.667 -41.5 129 -41.5v-131h-13c-40 0 -71.667 6 -95 18s-42.666 29.667 -57.999 53c-1.33301 0 -2.16602 -0.166992 -2.49902 -0.5
s-1.16602 -0.5 -2.49902 -0.5c0 -94 -10.333 -175.167 -31 -243.5s-49.5 -124.666 -86.5 -168.999s-81.167 -77.333 -132.5 -99s-107.333 -32.5 -168 -32.5c-38 0 -75.833 4 -113.5 12s-74.167 19 -109.5 33v128c38 -12.667 74.667 -22.334 110 -29.001
s69.666 -10 102.999 -10c106.667 0 184.5 34.667 233.5 104s73.5 172.333 73.5 309c0 93.333 -11.167 186.333 -33.5 279s-50.833 183.667 -85.5 273h131zM369.998 847.001l-234 352h105l179 -265l175 265h103l-230 -352h-98z" />
    <glyph glyph-name="uni0693.fina" unicode="&#x693;" horiz-adv-x="812" 
d="M532 611c18 -50 34.8311 -102.666 50.498 -157.999s28.167 -111.333 37.5 -168s30.333 -98.834 63 -126.501s75.667 -41.5 129 -41.5v-131h-13c-40 0 -71.667 6 -95 18s-42.666 29.667 -57.999 53c-1.33301 0 -2.16602 -0.166992 -2.49902 -0.5
s-1.16602 -0.5 -2.49902 -0.5c0 -94 -10.333 -175.167 -31 -243.5s-49.5 -124.666 -86.5 -168.999s-81.167 -77.333 -132.5 -99s-107.333 -32.5 -168 -32.5c-38 0 -75.833 4 -113.5 12s-74.167 19 -109.5 33v128c38 -12.667 74.667 -22.334 110 -29.001
s69.666 -10 102.999 -10c106.667 0 184.5 34.667 233.5 104s73.5 172.333 73.5 309c0 93.333 -11.167 186.333 -33.5 279s-50.833 183.667 -85.5 273h131zM633.998 -191.999c21.333 0 41.6641 -4.16797 60.9971 -12.501s36.166 -19.666 50.499 -33.999
s25.833 -31.5 34.5 -51.5s13 -41.333 13 -64c0 -21.333 -4.33301 -41.666 -13 -60.999s-20.167 -36.333 -34.5 -51s-31.166 -26.167 -50.499 -34.5s-39.666 -12.5 -60.999 -12.5c-23.333 0 -44.833 4.16699 -64.5 12.5s-36.667 19.833 -51 34.5s-25.666 31.5 -33.999 50.5
s-12.5 39.5 -12.5 61.5c0 22.667 4 44 12 64s19.333 37.167 34 51.5s31.834 25.666 51.501 33.999s41.167 12.5 64.5 12.5zM633.996 -438c23.333 0 43.166 8.16699 59.499 24.5s24.5 36.166 24.5 59.499c0 24.667 -8.16699 45.334 -24.5 62.001s-36.166 25 -59.499 25
c-24.667 0 -45.334 -8.33301 -62.001 -25s-25 -37.334 -25 -62.001c0 -23.333 8.33301 -43.166 25 -59.499s37.334 -24.5 62.001 -24.5z" />
    <glyph glyph-name="uni0694.fina" unicode="&#x694;" horiz-adv-x="812" 
d="M532 611c18 -50 34.8311 -102.666 50.498 -157.999s28.167 -111.333 37.5 -168s30.333 -98.834 63 -126.501s75.667 -41.5 129 -41.5v-131h-13c-40 0 -71.667 6 -95 18s-42.666 29.667 -57.999 53c-1.33301 0 -2.16602 -0.166992 -2.49902 -0.5
s-1.16602 -0.5 -2.49902 -0.5c0 -94 -10.333 -175.167 -31 -243.5s-49.5 -124.666 -86.5 -168.999s-81.167 -77.333 -132.5 -99s-107.333 -32.5 -168 -32.5c-38 0 -75.833 4 -113.5 12s-74.167 19 -109.5 33v128c38 -12.667 74.667 -22.334 110 -29.001
s69.666 -10 102.999 -10c106.667 0 184.5 34.667 233.5 104s73.5 172.333 73.5 309c0 93.333 -11.167 186.333 -33.5 279s-50.833 183.667 -85.5 273h131zM785.998 -488.999h-147v143h147v-143z" />
    <glyph glyph-name="uni0695.fina" unicode="&#x695;" horiz-adv-x="812" 
d="M532 611c18 -50 34.8311 -102.666 50.498 -157.999s28.167 -111.333 37.5 -168s30.333 -98.834 63 -126.501s75.667 -41.5 129 -41.5v-131h-13c-40 0 -71.667 6 -95 18s-42.666 29.667 -57.999 53c-1.33301 0 -2.16602 -0.166992 -2.49902 -0.5
s-1.16602 -0.5 -2.49902 -0.5c0 -94 -10.333 -175.167 -31 -243.5s-49.5 -124.666 -86.5 -168.999s-81.167 -77.333 -132.5 -99s-107.333 -32.5 -168 -32.5c-38 0 -75.833 4 -113.5 12s-74.167 19 -109.5 33v128c38 -12.667 74.667 -22.334 110 -29.001
s69.666 -10 102.999 -10c106.667 0 184.5 34.667 233.5 104s73.5 172.333 73.5 309c0 93.333 -11.167 186.333 -33.5 279s-50.833 183.667 -85.5 273h131zM723.998 -542.999l-234 352h105l179 -265l175 265h103l-230 -352h-98z" />
    <glyph glyph-name="uni0696.fina" unicode="&#x696;" horiz-adv-x="812" 
d="M532 611c18 -50 34.8311 -102.666 50.498 -157.999s28.167 -111.333 37.5 -168s30.333 -98.834 63 -126.501s75.667 -41.5 129 -41.5v-131h-13c-40 0 -71.667 6 -95 18s-42.666 29.667 -57.999 53c-1.33301 0 -2.16602 -0.166992 -2.49902 -0.5
s-1.16602 -0.5 -2.49902 -0.5c0 -94 -10.333 -175.167 -31 -243.5s-49.5 -124.666 -86.5 -168.999s-81.167 -77.333 -132.5 -99s-107.333 -32.5 -168 -32.5c-38 0 -75.833 4 -113.5 12s-74.167 19 -109.5 33v128c38 -12.667 74.667 -22.334 110 -29.001
s69.666 -10 102.999 -10c106.667 0 184.5 34.667 233.5 104s73.5 172.333 73.5 309c0 93.333 -11.167 186.333 -33.5 279s-50.833 183.667 -85.5 273h131zM785.998 -488.999h-147v143h147v-143zM284.998 0.000976562h-147v143h147v-143z" />
    <glyph glyph-name="uni0697.fina" unicode="&#x697;" horiz-adv-x="812" 
d="M532 611c18 -50 34.8311 -102.666 50.498 -157.999s28.167 -111.333 37.5 -168s30.333 -98.834 63 -126.501s75.667 -41.5 129 -41.5v-131h-13c-40 0 -71.667 6 -95 18s-42.666 29.667 -57.999 53c-1.33301 0 -2.16602 -0.166992 -2.49902 -0.5
s-1.16602 -0.5 -2.49902 -0.5c0 -94 -10.333 -175.167 -31 -243.5s-49.5 -124.666 -86.5 -168.999s-81.167 -77.333 -132.5 -99s-107.333 -32.5 -168 -32.5c-38 0 -75.833 4 -113.5 12s-74.167 19 -109.5 33v128c38 -12.667 74.667 -22.334 110 -29.001
s69.666 -10 102.999 -10c106.667 0 184.5 34.667 233.5 104s73.5 172.333 73.5 309c0 93.333 -11.167 186.333 -33.5 279s-50.833 183.667 -85.5 273h131zM362.998 855.001h-147v143h147v-143zM622.998 855.001h-147v143h147v-143z" />
    <glyph glyph-name="afii57508" unicode="&#x698;" horiz-adv-x="812" arabic-form="isolated" 
d="M0 -315c38 -12.667 74.665 -22.334 109.998 -29.001s69.666 -10 102.999 -10c106.667 0 184.5 34.667 233.5 104s73.5 172.333 73.5 309c0 93.333 -11.167 186.333 -33.5 279s-50.833 183.667 -85.5 273h131c17.333 -43.333 32.833 -88.666 46.5 -135.999
s25.334 -95 35.001 -143s17 -95.333 22 -142s7.5 -91 7.5 -133c0 -92 -10.333 -172.167 -31 -240.5s-49.667 -125 -87 -170s-81.666 -78.667 -132.999 -101s-107.666 -33.5 -168.999 -33.5c-38 0 -75.833 4 -113.5 12s-74.167 19 -109.5 33v128zM356.998 855h-147v143h147
v-143zM616.998 855h-147v143h147v-143zM486.998 1086h-147v143h147v-143z" />
    <glyph glyph-name="uni0699.fina" unicode="&#x699;" horiz-adv-x="812" 
d="M532 611c18 -50 34.8311 -102.666 50.498 -157.999s28.167 -111.333 37.5 -168s30.333 -98.834 63 -126.501s75.667 -41.5 129 -41.5v-131h-13c-40 0 -71.667 6 -95 18s-42.666 29.667 -57.999 53c-1.33301 0 -2.16602 -0.166992 -2.49902 -0.5
s-1.16602 -0.5 -2.49902 -0.5c0 -94 -10.333 -175.167 -31 -243.5s-49.5 -124.666 -86.5 -168.999s-81.167 -77.333 -132.5 -99s-107.333 -32.5 -168 -32.5c-38 0 -75.833 4 -113.5 12s-74.167 19 -109.5 33v128c38 -12.667 74.667 -22.334 110 -29.001
s69.666 -10 102.999 -10c106.667 0 184.5 34.667 233.5 104s73.5 172.333 73.5 309c0 93.333 -11.167 186.333 -33.5 279s-50.833 183.667 -85.5 273h131zM354.998 855.001h-147v143h147v-143zM614.998 855.001h-147v143h147v-143zM354.998 1096h-147v143h147v-143z
M614.998 1096h-147v143h147v-143z" />
    <glyph glyph-name="uni069A.init" unicode="&#x69a;" horiz-adv-x="1663" 
d="M436 572v-209.001c0 -42 3.33301 -78.5 10 -109.5s17.834 -56.5 33.501 -76.5s36.5 -35 62.5 -45s58 -15 96 -15c28.667 0 55.5 3.66699 80.5 11s46.667 19.333 65 36s32.666 38.667 42.999 66s15.5 60.666 15.5 99.999v242h120v-207
c0 -43.333 3.66699 -80.666 11 -111.999s19.333 -57 36 -77s38.667 -34.833 66 -44.5s61 -14.5 101 -14.5c31.333 0 59 3.5 83 10.5s44 18.833 60 35.5s28.167 38.167 36.5 64.5s12.5 59.166 12.5 98.499v412h120v-419c0 -63.333 -8.16699 -116.166 -24.5 -158.499
s-38.833 -76.5 -67.5 -102.5s-62 -44.5 -100 -55.5s-79 -16.5 -123 -16.5c-134 0 -224.333 45.667 -271 137h-4c-31.333 -48 -69.833 -82.833 -115.5 -104.5s-95.5 -32.5 -149.5 -32.5c-64.667 0 -118.834 10.667 -162.501 32s-76.167 55 -97.5 101h-4
c-28.667 -48 -65.167 -82.167 -109.5 -102.5s-92.166 -30.5 -143.499 -30.5h-116c-23.333 0 -40.833 6.33301 -52.5 19s-17.5 28.334 -17.5 47.001c0 18 5.83301 33.333 17.5 46s29.167 19 52.5 19h109c28.667 0 55.5 3.66699 80.5 11s46.833 19.166 65.5 35.499
s33.5 37.833 44.5 64.5s16.5 59.334 16.5 98.001v246h120zM983 854.999h-147v143h147v-143zM982 -327.001h-147v143h147v-143z" />
    <glyph glyph-name="uni069A.medi" unicode="&#x69a;" horiz-adv-x="1710" 
d="M436 572v-209.001c0 -42 3.33301 -78.5 10 -109.5s17.834 -56.5 33.501 -76.5s36.5 -35 62.5 -45s58 -15 96 -15c28.667 0 55.5 3.66699 80.5 11s46.667 19.333 65 36s32.666 38.667 42.999 66s15.5 60.666 15.5 99.999v242h120v-207
c0 -43.333 3.66699 -80.666 11 -111.999s19.333 -57 36 -77s38.667 -34.833 66 -44.5s61 -14.5 101 -14.5c31.333 0 59 3.5 83 10.5s44 18.833 60 35.5s28.167 38.167 36.5 64.5s12.5 59.166 12.5 98.499v373h120v-358c0 -38.667 4 -72.167 12 -100.5
s20.833 -51.666 38.5 -69.999s40.5 -31.833 68.5 -40.5s62.333 -13 103 -13v-131h-35c-61.333 0 -112.5 10.167 -153.5 30.5s-71.167 49.833 -90.5 88.5h-6c-28 -43.333 -64 -74 -108 -92s-92 -27 -144 -27c-134 0 -224.333 45.667 -271 137h-4
c-31.333 -48 -69.833 -82.833 -115.5 -104.5s-95.5 -32.5 -149.5 -32.5c-64.667 0 -118.834 10.667 -162.501 32s-76.167 55 -97.5 101h-4c-28.667 -48 -65.167 -82.167 -109.5 -102.5s-92.166 -30.5 -143.499 -30.5h-116c-23.333 0 -40.833 6.33301 -52.5 19
s-17.5 28.334 -17.5 47.001c0 18 5.83301 33.333 17.5 46s29.167 19 52.5 19h109c28.667 0 55.5 3.66699 80.5 11s46.833 19.166 65.5 35.499s33.5 37.833 44.5 64.5s16.5 59.334 16.5 98.001v246h120zM982 -327.001h-147v143h147v-143zM983 854.999h-147v143h147v-143z" />
    <glyph glyph-name="uni069A.fina" unicode="&#x69a;" horiz-adv-x="2394" 
d="M289 245c-8.66699 -47.333 -14.834 -90.999 -18.501 -130.999s-5.5 -78 -5.5 -114c0 -63.333 6.5 -117.5 19.5 -162.5s33.667 -81.667 62 -110s64.833 -49.166 109.5 -62.499s99 -20 163 -20c64.667 0 121 7.83301 169 23.5s87.833 41 119.5 76
s55.334 80.167 71.001 135.5s23.5 122.666 23.5 201.999c0 55.333 -3.5 114.833 -10.5 178.5s-17.167 133.167 -30.5 208.5h119l9 -53.5l7.5 -48c2.33301 -15.667 4.5 -31.334 6.5 -47.001s4 -32.5 6 -50.5c6.66699 -52.667 28.167 -91.334 64.5 -116.001
s87.5 -37 153.5 -37c28 0 54.167 3.66699 78.5 11s45.5 19.333 63.5 36s32 38.667 42 66s15 60.666 15 99.999v242h120v-207c0 -43.333 3.5 -80.666 10.5 -111.999s18.833 -57 35.5 -77s38.667 -34.833 66 -44.5s61.333 -14.5 102 -14.5c30.667 0 58 3.5 82 10.5
s44.167 18.833 60.5 35.5s28.666 38.167 36.999 64.5s12.5 59.166 12.5 98.499v373h120v-358c0 -38.667 4 -72.167 12 -100.5s20.833 -51.666 38.5 -69.999s40.667 -31.833 69 -40.5s62.5 -13 102.5 -13v-131h-30c-61.333 0 -113.333 9.83301 -156 29.5s-74 49.5 -94 89.5
h-6c-28 -43.333 -63.833 -74 -107.5 -92s-91.5 -27 -143.5 -27c-134 0 -224.333 45.667 -271 137h-4c-28.667 -46.667 -65.667 -81.167 -111 -103.5s-95 -33.5 -149 -33.5c-48 0 -88.333 6.83301 -121 20.5s-58.667 31.5 -78 53.5
c-1.33301 0 -2.16602 -0.166992 -2.49902 -0.5s-1.16602 -0.5 -2.49902 -0.5c-2 -181.333 -44.833 -317.833 -128.5 -409.5s-210.5 -137.5 -380.5 -137.5c-81.333 0 -151.333 10.333 -210 31s-106.834 50.834 -144.501 90.501s-65.5 88.5 -83.5 146.5s-27 124.667 -27 200
c0 40 2.66699 81.833 8 125.5s13 90.167 23 139.5h114zM1670 -326.999h-147v143h147v-143zM1663 855.001h-147v143h147v-143z" />
    <glyph glyph-name="uni069B.init" unicode="&#x69b;" horiz-adv-x="1663" 
d="M436 572v-209.001c0 -42 3.33301 -78.5 10 -109.5s17.834 -56.5 33.501 -76.5s36.5 -35 62.5 -45s58 -15 96 -15c28.667 0 55.5 3.66699 80.5 11s46.667 19.333 65 36s32.666 38.667 42.999 66s15.5 60.666 15.5 99.999v242h120v-207
c0 -43.333 3.66699 -80.666 11 -111.999s19.333 -57 36 -77s38.667 -34.833 66 -44.5s61 -14.5 101 -14.5c31.333 0 59 3.5 83 10.5s44 18.833 60 35.5s28.167 38.167 36.5 64.5s12.5 59.166 12.5 98.499v412h120v-419c0 -63.333 -8.16699 -116.166 -24.5 -158.499
s-38.833 -76.5 -67.5 -102.5s-62 -44.5 -100 -55.5s-79 -16.5 -123 -16.5c-134 0 -224.333 45.667 -271 137h-4c-31.333 -48 -69.833 -82.833 -115.5 -104.5s-95.5 -32.5 -149.5 -32.5c-64.667 0 -118.834 10.667 -162.501 32s-76.167 55 -97.5 101h-4
c-28.667 -48 -65.167 -82.167 -109.5 -102.5s-92.166 -30.5 -143.499 -30.5h-116c-23.333 0 -40.833 6.33301 -52.5 19s-17.5 28.334 -17.5 47.001c0 18 5.83301 33.333 17.5 46s29.167 19 52.5 19h109c28.667 0 55.5 3.66699 80.5 11s46.833 19.166 65.5 35.499
s33.5 37.833 44.5 64.5s16.5 59.334 16.5 98.001v246h120zM853 -327.001h-148v143h148v-143zM1112 -327.001h-147v143h147v-143zM983 -550.001h-147v143h147v-143z" />
    <glyph glyph-name="uni069B.medi" unicode="&#x69b;" horiz-adv-x="1710" 
d="M436 572v-209.001c0 -42 3.33301 -78.5 10 -109.5s17.834 -56.5 33.501 -76.5s36.5 -35 62.5 -45s58 -15 96 -15c28.667 0 55.5 3.66699 80.5 11s46.667 19.333 65 36s32.666 38.667 42.999 66s15.5 60.666 15.5 99.999v242h120v-207
c0 -43.333 3.66699 -80.666 11 -111.999s19.333 -57 36 -77s38.667 -34.833 66 -44.5s61 -14.5 101 -14.5c31.333 0 59 3.5 83 10.5s44 18.833 60 35.5s28.167 38.167 36.5 64.5s12.5 59.166 12.5 98.499v373h120v-358c0 -38.667 4 -72.167 12 -100.5
s20.833 -51.666 38.5 -69.999s40.5 -31.833 68.5 -40.5s62.333 -13 103 -13v-131h-35c-61.333 0 -112.5 10.167 -153.5 30.5s-71.167 49.833 -90.5 88.5h-6c-28 -43.333 -64 -74 -108 -92s-92 -27 -144 -27c-134 0 -224.333 45.667 -271 137h-4
c-31.333 -48 -69.833 -82.833 -115.5 -104.5s-95.5 -32.5 -149.5 -32.5c-64.667 0 -118.834 10.667 -162.501 32s-76.167 55 -97.5 101h-4c-28.667 -48 -65.167 -82.167 -109.5 -102.5s-92.166 -30.5 -143.499 -30.5h-116c-23.333 0 -40.833 6.33301 -52.5 19
s-17.5 28.334 -17.5 47.001c0 18 5.83301 33.333 17.5 46s29.167 19 52.5 19h109c28.667 0 55.5 3.66699 80.5 11s46.833 19.166 65.5 35.499s33.5 37.833 44.5 64.5s16.5 59.334 16.5 98.001v246h120zM853 -327.001h-148v143h148v-143zM1112 -327.001h-147v143h147v-143z
M983 -550.001h-147v143h147v-143z" />
    <glyph glyph-name="uni069B.fina" unicode="&#x69b;" horiz-adv-x="2394" 
d="M289 245c-8.66699 -47.333 -14.834 -90.999 -18.501 -130.999s-5.5 -78 -5.5 -114c0 -63.333 6.5 -117.5 19.5 -162.5s33.667 -81.667 62 -110s64.833 -49.166 109.5 -62.499s99 -20 163 -20c64.667 0 121 7.83301 169 23.5s87.833 41 119.5 76
s55.334 80.167 71.001 135.5s23.5 122.666 23.5 201.999c0 55.333 -3.5 114.833 -10.5 178.5s-17.167 133.167 -30.5 208.5h119l9 -53.5l7.5 -48c2.33301 -15.667 4.5 -31.334 6.5 -47.001s4 -32.5 6 -50.5c6.66699 -52.667 28.167 -91.334 64.5 -116.001
s87.5 -37 153.5 -37c28 0 54.167 3.66699 78.5 11s45.5 19.333 63.5 36s32 38.667 42 66s15 60.666 15 99.999v242h120v-207c0 -43.333 3.5 -80.666 10.5 -111.999s18.833 -57 35.5 -77s38.667 -34.833 66 -44.5s61.333 -14.5 102 -14.5c30.667 0 58 3.5 82 10.5
s44.167 18.833 60.5 35.5s28.666 38.167 36.999 64.5s12.5 59.166 12.5 98.499v373h120v-358c0 -38.667 4 -72.167 12 -100.5s20.833 -51.666 38.5 -69.999s40.667 -31.833 69 -40.5s62.5 -13 102.5 -13v-131h-30c-61.333 0 -113.333 9.83301 -156 29.5s-74 49.5 -94 89.5
h-6c-28 -43.333 -63.833 -74 -107.5 -92s-91.5 -27 -143.5 -27c-134 0 -224.333 45.667 -271 137h-4c-28.667 -46.667 -65.667 -81.167 -111 -103.5s-95 -33.5 -149 -33.5c-48 0 -88.333 6.83301 -121 20.5s-58.667 31.5 -78 53.5
c-1.33301 0 -2.16602 -0.166992 -2.49902 -0.5s-1.16602 -0.5 -2.49902 -0.5c-2 -181.333 -44.833 -317.833 -128.5 -409.5s-210.5 -137.5 -380.5 -137.5c-81.333 0 -151.333 10.333 -210 31s-106.834 50.834 -144.501 90.501s-65.5 88.5 -83.5 146.5s-27 124.667 -27 200
c0 40 2.66699 81.833 8 125.5s13 90.167 23 139.5h114zM1539 -326.999h-148v143h148v-143zM1798 -326.999h-147v143h147v-143zM1669 -549.999h-147v143h147v-143z" />
    <glyph glyph-name="uni069C.init" unicode="&#x69c;" horiz-adv-x="1663" 
d="M436 572v-209.001c0 -42 3.33301 -78.5 10 -109.5s17.834 -56.5 33.501 -76.5s36.5 -35 62.5 -45s58 -15 96 -15c28.667 0 55.5 3.66699 80.5 11s46.667 19.333 65 36s32.666 38.667 42.999 66s15.5 60.666 15.5 99.999v242h120v-207
c0 -43.333 3.66699 -80.666 11 -111.999s19.333 -57 36 -77s38.667 -34.833 66 -44.5s61 -14.5 101 -14.5c31.333 0 59 3.5 83 10.5s44 18.833 60 35.5s28.167 38.167 36.5 64.5s12.5 59.166 12.5 98.499v412h120v-419c0 -63.333 -8.16699 -116.166 -24.5 -158.499
s-38.833 -76.5 -67.5 -102.5s-62 -44.5 -100 -55.5s-79 -16.5 -123 -16.5c-134 0 -224.333 45.667 -271 137h-4c-31.333 -48 -69.833 -82.833 -115.5 -104.5s-95.5 -32.5 -149.5 -32.5c-64.667 0 -118.834 10.667 -162.501 32s-76.167 55 -97.5 101h-4
c-28.667 -48 -65.167 -82.167 -109.5 -102.5s-92.166 -30.5 -143.499 -30.5h-116c-23.333 0 -40.833 6.33301 -52.5 19s-17.5 28.334 -17.5 47.001c0 18 5.83301 33.333 17.5 46s29.167 19 52.5 19h109c28.667 0 55.5 3.66699 80.5 11s46.833 19.166 65.5 35.499
s33.5 37.833 44.5 64.5s16.5 59.334 16.5 98.001v246h120zM854 -327.001h-148v143h148v-143zM1113 -327.001h-147v143h147v-143zM984 -550.001h-147v143h147v-143zM852 854.999h-147v143h147v-143zM1112 854.999h-147v143h147v-143zM982 1086h-147v143h147v-143z" />
    <glyph glyph-name="uni069C.medi" unicode="&#x69c;" horiz-adv-x="1710" 
d="M436 572v-209.001c0 -42 3.33301 -78.5 10 -109.5s17.834 -56.5 33.501 -76.5s36.5 -35 62.5 -45s58 -15 96 -15c28.667 0 55.5 3.66699 80.5 11s46.667 19.333 65 36s32.666 38.667 42.999 66s15.5 60.666 15.5 99.999v242h120v-207
c0 -43.333 3.66699 -80.666 11 -111.999s19.333 -57 36 -77s38.667 -34.833 66 -44.5s61 -14.5 101 -14.5c31.333 0 59 3.5 83 10.5s44 18.833 60 35.5s28.167 38.167 36.5 64.5s12.5 59.166 12.5 98.499v373h120v-358c0 -38.667 4 -72.167 12 -100.5
s20.833 -51.666 38.5 -69.999s40.5 -31.833 68.5 -40.5s62.333 -13 103 -13v-131h-35c-61.333 0 -112.5 10.167 -153.5 30.5s-71.167 49.833 -90.5 88.5h-6c-28 -43.333 -64 -74 -108 -92s-92 -27 -144 -27c-134 0 -224.333 45.667 -271 137h-4
c-31.333 -48 -69.833 -82.833 -115.5 -104.5s-95.5 -32.5 -149.5 -32.5c-64.667 0 -118.834 10.667 -162.501 32s-76.167 55 -97.5 101h-4c-28.667 -48 -65.167 -82.167 -109.5 -102.5s-92.166 -30.5 -143.499 -30.5h-116c-23.333 0 -40.833 6.33301 -52.5 19
s-17.5 28.334 -17.5 47.001c0 18 5.83301 33.333 17.5 46s29.167 19 52.5 19h109c28.667 0 55.5 3.66699 80.5 11s46.833 19.166 65.5 35.499s33.5 37.833 44.5 64.5s16.5 59.334 16.5 98.001v246h120zM852 854.999h-147v143h147v-143zM1112 854.999h-147v143h147v-143z
M982 1086h-147v143h147v-143zM854 -327.001h-148v143h148v-143zM1113 -327.001h-147v143h147v-143zM984 -550.001h-147v143h147v-143z" />
    <glyph glyph-name="uni069C.fina" unicode="&#x69c;" horiz-adv-x="2394" 
d="M289 245c-8.66699 -47.333 -14.834 -90.999 -18.501 -130.999s-5.5 -78 -5.5 -114c0 -63.333 6.5 -117.5 19.5 -162.5s33.667 -81.667 62 -110s64.833 -49.166 109.5 -62.499s99 -20 163 -20c64.667 0 121 7.83301 169 23.5s87.833 41 119.5 76
s55.334 80.167 71.001 135.5s23.5 122.666 23.5 201.999c0 55.333 -3.5 114.833 -10.5 178.5s-17.167 133.167 -30.5 208.5h119l9 -53.5l7.5 -48c2.33301 -15.667 4.5 -31.334 6.5 -47.001s4 -32.5 6 -50.5c6.66699 -52.667 28.167 -91.334 64.5 -116.001
s87.5 -37 153.5 -37c28 0 54.167 3.66699 78.5 11s45.5 19.333 63.5 36s32 38.667 42 66s15 60.666 15 99.999v242h120v-207c0 -43.333 3.5 -80.666 10.5 -111.999s18.833 -57 35.5 -77s38.667 -34.833 66 -44.5s61.333 -14.5 102 -14.5c30.667 0 58 3.5 82 10.5
s44.167 18.833 60.5 35.5s28.666 38.167 36.999 64.5s12.5 59.166 12.5 98.499v373h120v-358c0 -38.667 4 -72.167 12 -100.5s20.833 -51.666 38.5 -69.999s40.667 -31.833 69 -40.5s62.5 -13 102.5 -13v-131h-30c-61.333 0 -113.333 9.83301 -156 29.5s-74 49.5 -94 89.5
h-6c-28 -43.333 -63.833 -74 -107.5 -92s-91.5 -27 -143.5 -27c-134 0 -224.333 45.667 -271 137h-4c-28.667 -46.667 -65.667 -81.167 -111 -103.5s-95 -33.5 -149 -33.5c-48 0 -88.333 6.83301 -121 20.5s-58.667 31.5 -78 53.5
c-1.33301 0 -2.16602 -0.166992 -2.49902 -0.5s-1.16602 -0.5 -2.49902 -0.5c-2 -181.333 -44.833 -317.833 -128.5 -409.5s-210.5 -137.5 -380.5 -137.5c-81.333 0 -151.333 10.333 -210 31s-106.834 50.834 -144.501 90.501s-65.5 88.5 -83.5 146.5s-27 124.667 -27 200
c0 40 2.66699 81.833 8 125.5s13 90.167 23 139.5h114zM1539 -326.999h-148v143h148v-143zM1798 -326.999h-147v143h147v-143zM1669 -549.999h-147v143h147v-143zM1535 855.001h-147v143h147v-143zM1795 855.001h-147v143h147v-143zM1665 1086h-147v143h147v-143z" />
    <glyph glyph-name="uni069D.init" unicode="&#x69d;" horiz-adv-x="1950" 
d="M397 469l10.501 -54.4971c3 -16.333 5.66699 -32.333 8 -48l7 -47.5l7.5 -51c6 -42.667 21.167 -77.5 45.5 -104.5s62.166 -42.167 113.499 -45.5c24 55.333 51.333 109.666 82 162.999s64.667 103.666 102 150.999s77.666 91.166 120.999 131.499s89.333 75 138 104
s99.834 51.667 153.501 68s109.5 24.5 167.5 24.5c68 0 128.5 -10.667 181.5 -32s97.667 -51 134 -89s64 -83.333 83 -136s28.5 -110.667 28.5 -174c0 -74 -11.667 -133.667 -35 -179s-57.666 -80.5 -102.999 -105.5s-101.5 -41.667 -168.5 -50s-143.833 -12.5 -230.5 -12.5
c-108 0 -203.5 0.166992 -286.5 0.5s-154.667 1.16602 -215 2.49902s-109.666 3.66602 -147.999 6.99902s-66.5 8 -84.5 14c-32 9.33301 -58.333 22.5 -79 39.5s-38.334 38.167 -53.001 63.5h-4c-26.667 -44 -61.834 -75.5 -105.501 -94.5s-92.5 -28.5 -146.5 -28.5h-121
c-23.333 0 -40.833 6.33301 -52.5 19s-17.5 28.334 -17.5 47.001c0 18 5.83301 33.333 17.5 46s29.167 19 52.5 19h114c30 0 57 3.5 81 10.5s44.5 16.5 61.5 28.5s30.167 26 39.5 42s14 33.333 14 52c0 32 -3 66.333 -9 103s-13.333 75.334 -22 116.001h118zM1285 114.003
c65.333 0 121.668 2.5 169.001 7.5s86.166 15 116.499 30s52.833 35.833 67.5 62.5s22 61 22 103c0 54 -8 100.5 -24 139.5s-38.333 71.167 -67 96.5s-62.667 44.166 -102 56.499s-82.333 18.5 -129 18.5c-70 0 -136.5 -13.333 -199.5 -40s-121.167 -63 -174.5 -109
s-101.333 -100.167 -144 -162.5s-79 -129.166 -109 -200.499zM1061 -326.997h-147v143h147v-143zM1321 -326.997h-147v143h147v-143z" />
    <glyph glyph-name="uni069D.medi" unicode="&#x69d;" horiz-adv-x="1950" 
d="M397 469l10.501 -54.498c3 -16.333 5.66699 -32.333 8 -48l7 -47.5l7.5 -51c6 -42.667 21.167 -77.5 45.5 -104.5s62.166 -42.167 113.499 -45.5c24 55.333 51.333 109.666 82 162.999s64.667 103.666 102 150.999s77.666 91.166 120.999 131.499s89.333 75 138 104
s99.834 51.667 153.501 68s109.5 24.5 167.5 24.5c68 0 128.333 -10.5 181 -31.5s97.167 -50.167 133.5 -87.5s64 -81.833 83 -133.5s28.833 -108.5 29.5 -170.5c0.666992 -40.667 3.83398 -75 9.50098 -103s15 -50.667 28 -68s30.333 -29.833 52 -37.5
s48.5 -11.5 80.5 -11.5v-131h-17c-108 0 -178.667 42.333 -212 127h-6c-22 -28 -48 -50.5 -78 -67.5s-64.667 -30.167 -104 -39.5s-83 -15.666 -131 -18.999s-101 -5 -159 -5c-108 0 -203.5 0.166992 -286.5 0.5s-154.667 1.16602 -215 2.49902
s-109.666 3.66602 -147.999 6.99902s-66.5 8 -84.5 14c-32 9.33301 -58.333 22.5 -79 39.5s-38.334 38.167 -53.001 63.5h-4c-26.667 -44 -61.834 -75.5 -105.501 -94.5s-92.5 -28.5 -146.5 -28.5h-121c-23.333 0 -40.833 6.33301 -52.5 19s-17.5 28.334 -17.5 47.001
c0 18 5.83301 33.333 17.5 46s29.167 19 52.5 19h115c30 0 57 3.33301 81 10s44.5 16 61.5 28s30 26.167 39 42.5s13.5 33.833 13.5 52.5c0 32 -3 66.333 -9 103s-13.333 75.334 -22 116.001h118zM1285 114.002c65.333 0 121.668 2.66602 169.001 7.99902
s86.166 15.333 116.499 30s52.833 35.334 67.5 62.001s22 61 22 103c0 54 -8 100.5 -24 139.5s-38.333 71.167 -67 96.5s-62.667 44.166 -102 56.499s-82.333 18.5 -129 18.5c-70 0 -136.5 -13.333 -199.5 -40s-121.167 -63 -174.5 -109s-101.333 -100.167 -144 -162.5
s-79 -129.166 -109 -200.499zM1061 -326.999h-147v143h147v-143zM1321 -326.999h-147v143h147v-143z" />
    <glyph glyph-name="uni069D.fina" unicode="&#x69d;" horiz-adv-x="2638" 
d="M299 245c-8.66699 -47.333 -14.832 -90.9951 -18.499 -130.995s-5.5 -78 -5.5 -114c0 -63.333 6.5 -117.5 19.5 -162.5s33.667 -81.667 62 -110s64.833 -49.166 109.5 -62.499s99 -20 163 -20c64.667 0 121 7.83301 169 23.5s87.833 41 119.5 76
s55.334 80.167 71.001 135.5s23.5 122.666 23.5 201.999c0 55.333 -3.5 115.666 -10.5 180.999s-18.167 134 -33.5 206h118l10.5 -54.5c3 -16.333 5.66699 -32.333 8 -48l7 -47.5l7.5 -51c6 -42.667 21 -77.5 45 -104.5s61.667 -42.167 113 -45.5
c23.333 55.333 50.5 109.666 81.5 162.999s65.167 103.666 102.5 150.999s77.666 91.166 120.999 131.499s89.333 75 138 104s99.834 51.667 153.501 68s109.5 24.5 167.5 24.5c68 0 128.333 -10.5 181 -31.5s97.167 -50.333 133.5 -88s64.166 -82.334 83.499 -134.001
s29.333 -108.167 30 -169.5c0 -40.667 2.83301 -75 8.5 -103s15 -50.667 28 -68s30.333 -29.833 52 -37.5s48.5 -11.5 80.5 -11.5v-131h-17c-107.333 0 -178 42.333 -212 127h-6c-22 -28 -48 -50.5 -78 -67.5s-64.5 -30.167 -103.5 -39.5s-82.5 -15.666 -130.5 -18.999
s-101 -5 -159 -5c-202.667 0 -361 0.666992 -475 2s-188 6.66602 -222 15.999c-23.333 6 -43.333 14.167 -60 24.5s-30.667 22.166 -42 35.499l-5 -1c-2 -181.333 -45 -317.833 -129 -409.5s-211.667 -137.5 -383 -137.5c-81.333 0 -151 10.333 -209 31
s-105.833 50.834 -143.5 90.501s-65.334 88.5 -83.001 146.5s-26.5 124.667 -26.5 200c0 40 2.66699 81.833 8 125.5s13 90.167 23 139.5h114zM1973 114.005c66 0 122.502 2.50098 169.502 7.50098s85.833 15 116.5 30s53.167 35.833 67.5 62.5s21.5 61 21.5 103
c0 54 -8 100.5 -24 139.5s-38.167 71.167 -66.5 96.5s-62.333 44.166 -102 56.499s-82.834 18.5 -129.5 18.5c-70 0 -136.333 -13.167 -199 -39.5s-120.834 -62.5 -174.501 -108.5s-101.834 -100.167 -144.501 -162.5s-79 -129.5 -109 -201.5zM1755 -326.994h-147v143h147
v-143zM2015 -326.994h-147v143h147v-143z" />
    <glyph glyph-name="uni069E.init" unicode="&#x69e;" horiz-adv-x="1950" 
d="M397 469l10.501 -54.4971c3 -16.333 5.66699 -32.333 8 -48l7 -47.5l7.5 -51c6 -42.667 21.167 -77.5 45.5 -104.5s62.166 -42.167 113.499 -45.5c24 55.333 51.333 109.666 82 162.999s64.667 103.666 102 150.999s77.666 91.166 120.999 131.499s89.333 75 138 104
s99.834 51.667 153.501 68s109.5 24.5 167.5 24.5c68 0 128.5 -10.667 181.5 -32s97.667 -51 134 -89s64 -83.333 83 -136s28.5 -110.667 28.5 -174c0 -74 -11.667 -133.667 -35 -179s-57.666 -80.5 -102.999 -105.5s-101.5 -41.667 -168.5 -50s-143.833 -12.5 -230.5 -12.5
c-108 0 -203.5 0.166992 -286.5 0.5s-154.667 1.16602 -215 2.49902s-109.666 3.66602 -147.999 6.99902s-66.5 8 -84.5 14c-32 9.33301 -58.333 22.5 -79 39.5s-38.334 38.167 -53.001 63.5h-4c-26.667 -44 -61.834 -75.5 -105.501 -94.5s-92.5 -28.5 -146.5 -28.5h-121
c-23.333 0 -40.833 6.33301 -52.5 19s-17.5 28.334 -17.5 47.001c0 18 5.83301 33.333 17.5 46s29.167 19 52.5 19h114c30 0 57 3.5 81 10.5s44.5 16.5 61.5 28.5s30.167 26 39.5 42s14 33.333 14 52c0 32 -3 66.333 -9 103s-13.333 75.334 -22 116.001h118zM1285 114.003
c65.333 0 121.668 2.5 169.001 7.5s86.166 15 116.499 30s52.833 35.833 67.5 62.5s22 61 22 103c0 54 -8 100.5 -24 139.5s-38.333 71.167 -67 96.5s-62.667 44.166 -102 56.499s-82.333 18.5 -129 18.5c-70 0 -136.5 -13.333 -199.5 -40s-121.167 -63 -174.5 -109
s-101.333 -100.167 -144 -162.5s-79 -129.166 -109 -200.499zM932.003 934.003h-147v143h147v-143zM1192 934.003h-147v143h147v-143zM1062 1165h-147v143h147v-143z" />
    <glyph glyph-name="uni069E.medi" unicode="&#x69e;" horiz-adv-x="1950" 
d="M397 469l10.501 -54.498c3 -16.333 5.66699 -32.333 8 -48l7 -47.5l7.5 -51c6 -42.667 21.167 -77.5 45.5 -104.5s62.166 -42.167 113.499 -45.5c24 55.333 51.333 109.666 82 162.999s64.667 103.666 102 150.999s77.666 91.166 120.999 131.499s89.333 75 138 104
s99.834 51.667 153.501 68s109.5 24.5 167.5 24.5c68 0 128.333 -10.5 181 -31.5s97.167 -50.167 133.5 -87.5s64 -81.833 83 -133.5s28.833 -108.5 29.5 -170.5c0.666992 -40.667 3.83398 -75 9.50098 -103s15 -50.667 28 -68s30.333 -29.833 52 -37.5
s48.5 -11.5 80.5 -11.5v-131h-17c-108 0 -178.667 42.333 -212 127h-6c-22 -28 -48 -50.5 -78 -67.5s-64.667 -30.167 -104 -39.5s-83 -15.666 -131 -18.999s-101 -5 -159 -5c-108 0 -203.5 0.166992 -286.5 0.5s-154.667 1.16602 -215 2.49902
s-109.666 3.66602 -147.999 6.99902s-66.5 8 -84.5 14c-32 9.33301 -58.333 22.5 -79 39.5s-38.334 38.167 -53.001 63.5h-4c-26.667 -44 -61.834 -75.5 -105.501 -94.5s-92.5 -28.5 -146.5 -28.5h-121c-23.333 0 -40.833 6.33301 -52.5 19s-17.5 28.334 -17.5 47.001
c0 18 5.83301 33.333 17.5 46s29.167 19 52.5 19h115c30 0 57 3.33301 81 10s44.5 16 61.5 28s30 26.167 39 42.5s13.5 33.833 13.5 52.5c0 32 -3 66.333 -9 103s-13.333 75.334 -22 116.001h118zM1285 114.002c65.333 0 121.668 2.66602 169.001 7.99902
s86.166 15.333 116.499 30s52.833 35.334 67.5 62.001s22 61 22 103c0 54 -8 100.5 -24 139.5s-38.333 71.167 -67 96.5s-62.667 44.166 -102 56.499s-82.333 18.5 -129 18.5c-70 0 -136.5 -13.333 -199.5 -40s-121.167 -63 -174.5 -109s-101.333 -100.167 -144 -162.5
s-79 -129.166 -109 -200.499zM932.003 934.001h-147v143h147v-143zM1192 934.001h-147v143h147v-143zM1062 1165h-147v143h147v-143z" />
    <glyph glyph-name="uni069E.fina" unicode="&#x69e;" horiz-adv-x="2638" 
d="M299 245c-8.66699 -47.333 -14.832 -90.9951 -18.499 -130.995s-5.5 -78 -5.5 -114c0 -63.333 6.5 -117.5 19.5 -162.5s33.667 -81.667 62 -110s64.833 -49.166 109.5 -62.499s99 -20 163 -20c64.667 0 121 7.83301 169 23.5s87.833 41 119.5 76
s55.334 80.167 71.001 135.5s23.5 122.666 23.5 201.999c0 55.333 -3.5 115.666 -10.5 180.999s-18.167 134 -33.5 206h118l10.5 -54.5c3 -16.333 5.66699 -32.333 8 -48l7 -47.5l7.5 -51c6 -42.667 21 -77.5 45 -104.5s61.667 -42.167 113 -45.5
c23.333 55.333 50.5 109.666 81.5 162.999s65.167 103.666 102.5 150.999s77.666 91.166 120.999 131.499s89.333 75 138 104s99.834 51.667 153.501 68s109.5 24.5 167.5 24.5c68 0 128.333 -10.5 181 -31.5s97.167 -50.333 133.5 -88s64.166 -82.334 83.499 -134.001
s29.333 -108.167 30 -169.5c0 -40.667 2.83301 -75 8.5 -103s15 -50.667 28 -68s30.333 -29.833 52 -37.5s48.5 -11.5 80.5 -11.5v-131h-17c-107.333 0 -178 42.333 -212 127h-6c-22 -28 -48 -50.5 -78 -67.5s-64.5 -30.167 -103.5 -39.5s-82.5 -15.666 -130.5 -18.999
s-101 -5 -159 -5c-202.667 0 -361 0.666992 -475 2s-188 6.66602 -222 15.999c-23.333 6 -43.333 14.167 -60 24.5s-30.667 22.166 -42 35.499l-5 -1c-2 -181.333 -45 -317.833 -129 -409.5s-211.667 -137.5 -383 -137.5c-81.333 0 -151 10.333 -209 31
s-105.833 50.834 -143.5 90.501s-65.334 88.5 -83.001 146.5s-26.5 124.667 -26.5 200c0 40 2.66699 81.833 8 125.5s13 90.167 23 139.5h114zM1973 114.005c66 0 122.502 2.50098 169.502 7.50098s85.833 15 116.5 30s53.167 35.833 67.5 62.5s21.5 61 21.5 103
c0 54 -8 100.5 -24 139.5s-38.167 71.167 -66.5 96.5s-62.333 44.166 -102 56.499s-82.834 18.5 -129.5 18.5c-70 0 -136.333 -13.167 -199 -39.5s-120.834 -62.5 -174.501 -108.5s-101.834 -100.167 -144.501 -162.5s-79 -129.5 -109 -201.5zM1621 934.006h-147v143h147
v-143zM1881 934.006h-147v143h147v-143zM1751 1165.01h-147v143h147v-143z" />
    <glyph glyph-name="uni069F.init" unicode="&#x69f;" horiz-adv-x="1624" 
d="M433 1516v-1098l3 -1c33.333 48 70.833 93.667 112.5 137s87.334 81.333 137.001 114s103.167 58.5 160.5 77.5s118 28.5 182 28.5c68 0 128.5 -11 181.5 -33s97.667 -52.667 134 -92s64 -86.166 83 -140.499s28.5 -114.166 28.5 -179.499
c0 -74 -11.667 -133.5 -35 -178.5s-57.5 -80 -102.5 -105s-101 -41.667 -168 -50s-143.833 -12.5 -230.5 -12.5h-102c-42.667 0 -90 0.166992 -142 0.5s-106.667 0.666016 -164 0.999023l-168 1c-54.667 0.333008 -105.834 0.5 -153.501 0.5h-121.5h-68
c-23.333 0 -40.833 6.33301 -52.5 19s-17.5 28.334 -17.5 47.001c0 18 5.83301 33.333 17.5 46s29.167 19 52.5 19h266c6 15.333 13.167 31.833 21.5 49.5l24.5 51.5v1298h121zM389 115.998c30.667 -0.666992 68.002 -1.16895 112.002 -1.50195s91.5 -0.5 142.5 -0.5h158
h158.5c65.333 0 121.666 2.66699 168.999 8s86.166 15.333 116.499 30s52.833 35.334 67.5 62.001s22 61 22 103c0 56 -8 104.5 -24 145.5s-38.333 74.833 -67 101.5s-62.667 46.334 -102 59.001s-82.333 19 -129 19c-70 0 -136.333 -13.833 -199 -41.5
s-120.5 -65.167 -173.5 -112.5s-100.833 -103 -143.5 -167s-78.667 -132.333 -108 -205zM866.002 933.996h-147v143h147v-143zM1126 933.996h-147v143h147v-143zM996.002 1165h-147v143h147v-143z" />
    <glyph glyph-name="uni069F.medi" unicode="&#x69f;" horiz-adv-x="1625" 
d="M433 1516l-0.00195312 -1098l3 -1c33.333 48 70.833 93.667 112.5 137s87.334 81.333 137.001 114s103.167 58.5 160.5 77.5s118 28.5 182 28.5c68 0 128.333 -10.833 181 -32.5s97.167 -52 133.5 -91s64 -85.167 83 -138.5s28.833 -111.666 29.5 -174.999
c0.666992 -40.667 3.83398 -75 9.50098 -103s15 -50.667 28 -68s30.333 -29.833 52 -37.5s48.5 -11.5 80.5 -11.5v-131h-17c-108 0 -178.667 42.333 -212 127h-6c-22 -27.333 -48 -49.5 -78 -66.5s-64.5 -30.167 -103.5 -39.5s-82.5 -15.666 -130.5 -18.999s-101 -5 -159 -5
c-66.667 0 -134.667 0.166992 -204 0.5l-207.5 1l-204.5 1c-67.333 0.333008 -132 0.5 -194 0.5h-109c-23.333 0 -40.833 6.33301 -52.5 19s-17.5 28.334 -17.5 47.001c0 18 5.83301 33.333 17.5 46s29.167 19 52.5 19h266l22 49l24 52v1298h121zM388.998 115.997
c30.667 -0.666992 68.002 -1.16602 112.002 -1.49902s91.5 -0.5 142.5 -0.5h158h158.5c65.333 0 121.666 2.66699 168.999 8s86.166 15.333 116.499 30s52.833 35.334 67.5 62.001s22 61 22 103c0 56 -8 104.5 -24 145.5s-38.333 74.833 -67 101.5
s-62.667 46.334 -102 59.001s-82.333 19 -129 19c-70 0 -136.333 -13.833 -199 -41.5s-120.5 -65.334 -173.5 -113.001s-100.833 -103.334 -143.5 -167.001s-78.667 -131.834 -108 -204.501zM866 933.998h-147v143h147v-143zM1126 933.998h-147v143h147v-143zM996 1165h-147
v143h147v-143z" />
    <glyph glyph-name="uni069F.fina" unicode="&#x69f;" horiz-adv-x="1663" 
d="M463 1516l-0.000976562 -1098c0.666992 0 1.16699 -0.166992 1.5 -0.5s0.833008 -0.5 1.5 -0.5c32.667 48 70 93.667 112 137s87.833 81.333 137.5 114s103 58.5 160 77.5s117.5 28.5 181.5 28.5c68 0 128.667 -10.833 182 -32.5s98.333 -51.834 135 -90.501
s64.834 -84.834 84.501 -138.501s29.834 -112.167 30.501 -175.5c0 -40.667 3.16699 -75 9.5 -103s16.333 -50.667 30 -68s31.5 -29.833 53.5 -37.5s49 -11.5 81 -11.5v-131h-17c-54 0 -99.333 10.667 -136 32s-63.667 53 -81 95h-6c-22 -28 -48.167 -50.5 -78.5 -67.5
s-65.333 -30.167 -105 -39.5s-83.667 -15.666 -132 -18.999s-101.5 -5 -159.5 -5c-91.333 0 -172.666 0.166992 -243.999 0.5s-135.333 0.833008 -192 1.5s-106.834 1.5 -150.501 2.5s-83.334 2.16699 -119.001 3.5s-68.334 3 -98.001 5l-86.5 6l-32 135
c14.667 -2 32.334 -3.66699 53.001 -5s42.667 -2.66602 66 -3.99902s47.833 -2.5 73.5 -3.5s51.5 -1.83301 77.5 -2.5l22 47l24 50v1298h121zM417.999 116c30.667 -0.666992 67.998 -1.16602 111.998 -1.49902s91.5 -0.5 142.5 -0.5h158h158.5c66 0 122.833 2.66699 170.5 8
s87 15.333 118 30s53.833 35.334 68.5 62.001s22 61 22 103c0 56 -8.16699 104.5 -24.5 145.5s-39 74.833 -68 101.5s-63.5 46.334 -103.5 59.001s-83.333 19 -130 19c-70 0 -136.167 -13.833 -198.5 -41.5s-120.166 -65.334 -173.499 -113.001
s-101.166 -103.334 -143.499 -167.001s-78.5 -131.834 -108.5 -204.501zM922.997 934.001h-147v143h147v-143zM1183 934.001h-147v143h147v-143zM1053 1165h-147v143h147v-143z" />
    <glyph glyph-name="uni06A0.init" unicode="&#x6a0;" horiz-adv-x="1197" 
d="M1026 162c-64.667 -31.333 -125.499 -57.9961 -182.499 -79.9961s-114.833 -40.167 -173.5 -54.5s-120.167 -24.833 -184.5 -31.5s-136.5 -10 -216.5 -10h-269c-23.333 0 -40.833 6.33301 -52.5 19s-17.5 28.334 -17.5 47.001c0 18 5.83301 33.333 17.5 46
s29.167 19 52.5 19h360c0 1.33301 0.166992 2.33301 0.5 3s0.5 1.66699 0.5 3c-69.333 48 -119.833 102 -151.5 162s-47.5 120.333 -47.5 181c0 56.667 11.667 109.167 35 157.5s56 90.166 98 125.499s91.833 63.166 149.5 83.499s121.167 30.5 190.5 30.5
c29.333 0 58.166 -1.5 86.499 -4.5s58.5 -7.5 90.5 -13.5v-134c-30.667 5.33301 -60.834 10 -90.501 14s-64.167 6 -103.5 6c-45.333 0 -88.166 -5.66699 -128.499 -17s-75.5 -28.333 -105.5 -51s-53.833 -50.834 -71.5 -84.501s-26.5 -72.834 -26.5 -117.501
c0 -62 21.5 -121.667 64.5 -179s107.833 -105.666 194.5 -144.999c76.667 13.333 153.5 33.166 230.5 59.499s160.5 61.166 250.5 104.499v-139zM464.001 1031h-147v143h147v-143zM724.001 1031h-147v143h147v-143zM594.001 1262h-147v143h147v-143z" />
    <glyph glyph-name="uni06A0.medi" unicode="&#x6a0;" horiz-adv-x="1137" 
d="M171 721c76 15.333 153.497 28.4971 232.497 39.4971s158.167 16.5 237.5 16.5c44 0 85.833 -3 125.5 -9s74.334 -16.167 104.001 -30.5s53.334 -33.333 71.001 -57s26.5 -52.834 26.5 -87.501c0 -25.333 -5 -54.5 -15 -87.5s-25.167 -67.5 -45.5 -103.5
s-45.666 -72.5 -75.999 -109.5s-65.833 -72.5 -106.5 -106.5c46.667 -21.333 105.167 -38.166 175.5 -50.499s149.166 -18.5 236.499 -18.5v-131h-69c-171.333 0 -323.666 39.333 -456.999 118c-67.333 -37.333 -142.666 -66.333 -225.999 -87s-179 -31 -287 -31h-98
c-23.333 0 -40.833 6.33301 -52.5 19s-17.5 28.334 -17.5 47.001c0 18 5.83301 33.333 17.5 46s29.167 19 52.5 19h95c88.667 0 166.167 5.83301 232.5 17.5s123.833 27.834 172.5 48.501c-26.667 22.667 -55.167 50.167 -85.5 82.5s-60.333 66.833 -90 103.5
s-57.834 74.334 -84.501 113.001s-49.667 76 -69 112v127zM617.997 244.997c34 23.333 65.168 49.833 93.501 79.5s52.5 59.167 72.5 88.5s35.5 57.333 46.5 84s16.5 49 16.5 67c0 30.667 -19 53.334 -57 68.001s-94 22 -168 22c-56 0 -112.667 -3.16699 -170 -9.5
s-110 -13.833 -158 -22.5v-11c20 -33.333 43.667 -68 71 -104s55.833 -70.667 85.5 -104s59.167 -63.833 88.5 -91.5s55.666 -49.834 78.999 -66.501zM529.998 933.997h-147v143h147v-143zM789.998 933.997h-147v143h147v-143zM659.998 1165h-147v143h147v-143z" />
    <glyph glyph-name="uni06A0.fina" unicode="&#x6a0;" horiz-adv-x="1137" 
d="M162 804c71.333 15.333 147.999 28.5 229.999 39.5s166.667 16.5 254 16.5c43.333 0 84.5 -3.16699 123.5 -9.5s73.167 -16.666 102.5 -30.999s52.666 -33.166 69.999 -56.499s26 -51.666 26 -84.999c0 -24 -5.16699 -51.167 -15.5 -81.5
s-28.666 -62.166 -54.999 -95.499s-61.833 -67.833 -106.5 -103.5s-101 -71.167 -169 -106.5c34 -30 68.333 -56 103 -78s71 -40 109 -54s78.5 -24.5 121.5 -31.5s89.833 -10.5 140.5 -10.5h41v-131h-81c-51.333 0 -100 4.33301 -146 13s-91.333 22.834 -136 42.501
s-89.334 45.5 -134.001 77.5s-91 71.333 -139 118c-95.333 -38.667 -164.833 -84.167 -208.5 -136.5s-65.5 -110.833 -65.5 -175.5c0 -39.333 8.16699 -77.333 24.5 -114s41.833 -69 76.5 -97s78.834 -50.333 132.501 -67s117.834 -25 192.501 -25
c70.667 0 136.5 6 197.5 18s119.5 29 175.5 51v-122c-60.667 -24 -121 -42 -181 -54s-124.667 -18 -194 -18c-94 0 -175.5 11 -244.5 33s-126.167 51.667 -171.5 89s-79 81.166 -101 131.499s-33 103.833 -33 160.5c0 40 6 78.667 18 116s31 73.166 57 107.499
s59.5 67 100.5 98s90.5 60.5 148.5 88.5c-23.333 25.333 -47.333 53.666 -72 84.999l-72.5 95.5c-23.667 32.333 -45.667 64.166 -66 95.499s-37.833 59.666 -52.5 84.999v122zM540.999 370c58.667 28.667 107.667 56.668 147 84.001s70.833 52.833 94.5 76.5
s40.334 45.5 50.001 65.5s14.5 37.333 14.5 52c0 28.667 -18.833 50.667 -56.5 66s-92.167 23 -163.5 23c-58.667 0 -118.334 -3 -179.001 -9s-115 -13.667 -163 -23v-12c16.667 -26.667 35.667 -54.834 57 -84.501l65.5 -88c22.333 -29 45 -56.5 68 -82.5
s44.833 -48.667 65.5 -68zM512.999 1031h-147v143h147v-143zM772.999 1031h-147v143h147v-143zM642.999 1262h-147v143h147v-143z" />
    <glyph glyph-name="uni06A1.init" unicode="&#x6a1;" horiz-adv-x="936" 
d="M401 127c-82 36.667 -140.832 79.167 -176.499 127.5s-53.5 102.5 -53.5 162.5c0 43.333 7.83301 87.666 23.5 132.999s37 86.5 64 123.5s58.167 67.167 93.5 90.5s72.666 35 111.999 35c41.333 0 81.333 -13 120 -39s75 -65 109 -117
c27.333 -41.333 50.5 -87.166 69.5 -137.499s28.5 -102.833 28.5 -157.5c0 -74 -15 -134.5 -45 -181.5s-71.167 -83.833 -123.5 -110.5s-113.833 -45 -184.5 -55s-146.667 -15 -228 -15h-210c-23.333 0 -40.833 6.33301 -52.5 19s-17.5 28.334 -17.5 47.001
c0 18 5.83301 33.333 17.5 46s29.167 19 52.5 19h171c36 0 74.5 0.166992 115.5 0.5s78.5 1.16602 112.5 2.49902zM670.001 344c0 21.333 -2.83203 43.999 -8.49902 67.999s-13.667 47.833 -24 71.5s-22.333 46.5 -36 68.5s-28.5 41.333 -44.5 58s-32.667 30 -50 40
s-34.666 15 -51.999 15c-19.333 0 -38.833 -7.16699 -58.5 -21.5s-37.5 -33 -53.5 -56s-29 -48.5 -39 -76.5s-15 -56 -15 -84c0 -21.333 4.66699 -42.666 14 -63.999s24.666 -43 45.999 -65s49.666 -44.5 84.999 -67.5s79 -46.833 131 -71.5c32 16 57.5 39.833 76.5 71.5
s28.5 69.5 28.5 113.5z" />
    <glyph glyph-name="uni06A1.medi" unicode="&#x6a1;" horiz-adv-x="936" 
d="M406 126c-83.333 34.667 -143.328 76.666 -179.995 125.999s-55 104.333 -55 165c0 43.333 7.83301 87.666 23.5 132.999s37 86.5 64 123.5s58.167 67.167 93.5 90.5s72.666 35 111.999 35c41.333 0 81.333 -13 120 -39s75 -64.667 109 -116
c28 -41.333 51.333 -87.5 70 -138.5s28 -104.167 28 -159.5c0 -45.333 -7.16699 -86.166 -21.5 -122.499s-36.5 -68.166 -66.5 -95.499c14.667 -2.66699 29.5 -4.66699 44.5 -6s31.667 -2.33301 50 -3s38.666 -1.16699 60.999 -1.5s48.166 -0.5 77.499 -0.5v-131h-27
c-59.333 0 -117.833 4.16699 -175.5 12.5s-109.834 22.166 -156.501 41.499c-26 -11.333 -54.5 -20.5 -85.5 -27.5s-63.5 -12.5 -97.5 -16.5s-69 -6.66699 -105 -8s-72.333 -2 -109 -2h-180c-23.333 0 -40.833 6.33301 -52.5 19s-17.5 28.334 -17.5 47.001
c0 18 5.83301 33.333 17.5 46s29.167 19 52.5 19h196c40.667 0 79.167 0.166992 115.5 0.5s67.166 0.833008 92.499 1.5zM670.005 343.999c0 21.333 -2.83398 44 -8.50098 68s-13.667 47.833 -24 71.5s-22.333 46.5 -36 68.5s-28.5 41.333 -44.5 58s-32.667 30 -50 40
s-34.666 15 -51.999 15c-19.333 0 -38.833 -7.16699 -58.5 -21.5s-37.5 -33 -53.5 -56s-29 -48.5 -39 -76.5s-15 -56 -15 -84c0 -21.333 4.66699 -42.833 14 -64.5s25 -43.667 47 -66s50.833 -45 86.5 -68s79.5 -46.5 131.5 -70.5c34 17.333 59.5 41.833 76.5 73.5
s25.5 69.167 25.5 112.5z" />
    <glyph glyph-name="uni06A1.fina" unicode="&#x6a1;" horiz-adv-x="2027" 
d="M1211 417c0 43.333 7.83398 87.6699 23.501 133.003s37 86.5 64 123.5s58.167 67.167 93.5 90.5s72.666 35 111.999 35c41.333 0 81.333 -13.167 120 -39.5s75 -64.833 109 -115.5c28 -42 51.333 -88.167 70 -138.5s28 -103.5 28 -159.5
c0 -90.667 -29.667 -163.334 -89 -218.001c36 -5.33301 76 -8.5 120 -9.5s99 -1.5 165 -1.5v-131h-66c-61.333 0 -122 4 -182 12s-114 21.667 -162 41c-28 -12.667 -59.667 -23 -95 -31s-73.333 -14.167 -114 -18.5s-83.5 -7.33301 -128.5 -9s-90.5 -2.5 -136.5 -2.5h-195
c-93.333 0 -175.166 1.5 -245.499 4.5s-131.666 8.33301 -183.999 16s-97 18.167 -134 31.5s-68.5 30.666 -94.5 51.999c-40.667 32 -70.667 71.5 -90 118.5s-29 100.833 -29 161.5c0 36 2.83301 72.167 8.5 108.5s12.5 70.5 20.5 102.5h118
c-7.33301 -26.667 -13.5 -56 -18.5 -88s-7.5 -65.667 -7.5 -101c0 -46 6.83301 -85.667 20.5 -119s35.5 -60.333 65.5 -81c20.667 -14 46.667 -25.833 78 -35.5s72.666 -17.334 123.999 -23.001s115.333 -9.66699 192 -12s171 -3.5 283 -3.5c56 0 104.667 0.166992 146 0.5
s77.166 0.833008 107.499 1.5s56.333 1.5 78 2.5s41.167 2.16699 58.5 3.5c0.666992 1.33301 1 2.33301 1 3s0.333008 1.66699 1 3c-84.667 36.667 -145.167 79.667 -181.5 129s-54.5 104 -54.5 164zM1710 344.004c0 21.333 -2.83301 44.002 -8.5 68.002
s-13.667 47.833 -24 71.5s-22.333 46.5 -36 68.5s-28.5 41.333 -44.5 58s-32.667 30 -50 40s-34.666 15 -51.999 15c-19.333 0 -38.833 -7.16699 -58.5 -21.5s-37.5 -33 -53.5 -56s-29 -48.5 -39 -76.5s-15 -56 -15 -84c0 -21.333 4.5 -42.833 13.5 -64.5
s24.333 -43.5 46 -65.5s50.167 -44.5 85.5 -67.5s79 -46.5 131 -70.5c35.333 17.333 61.666 41.666 78.999 72.999s26 68.666 26 111.999z" />
    <glyph glyph-name="uni06A2.init" unicode="&#x6a2;" horiz-adv-x="936" 
d="M401 127c-82 36.667 -140.832 79.167 -176.499 127.5s-53.5 102.5 -53.5 162.5c0 43.333 7.83301 87.666 23.5 132.999s37 86.5 64 123.5s58.167 67.167 93.5 90.5s72.666 35 111.999 35c41.333 0 81.333 -13 120 -39s75 -65 109 -117
c27.333 -41.333 50.5 -87.166 69.5 -137.499s28.5 -102.833 28.5 -157.5c0 -74 -15 -134.5 -45 -181.5s-71.167 -83.833 -123.5 -110.5s-113.833 -45 -184.5 -55s-146.667 -15 -228 -15h-210c-23.333 0 -40.833 6.33301 -52.5 19s-17.5 28.334 -17.5 47.001
c0 18 5.83301 33.333 17.5 46s29.167 19 52.5 19h171c36 0 74.5 0.166992 115.5 0.5s78.5 1.16602 112.5 2.49902zM670.001 344c0 21.333 -2.83203 43.999 -8.49902 67.999s-13.667 47.833 -24 71.5s-22.333 46.5 -36 68.5s-28.5 41.333 -44.5 58s-32.667 30 -50 40
s-34.666 15 -51.999 15c-19.333 0 -38.833 -7.16699 -58.5 -21.5s-37.5 -33 -53.5 -56s-29 -48.5 -39 -76.5s-15 -56 -15 -84c0 -21.333 4.66699 -42.666 14 -63.999s24.666 -43 45.999 -65s49.666 -44.5 84.999 -67.5s79 -46.833 131 -71.5c32 16 57.5 39.833 76.5 71.5
s28.5 69.5 28.5 113.5zM595.002 -327.001h-147v143h147v-143z" />
    <glyph glyph-name="uni06A2.medi" unicode="&#x6a2;" horiz-adv-x="936" 
d="M406 126c-83.333 34.667 -143.328 76.666 -179.995 125.999s-55 104.333 -55 165c0 43.333 7.83301 87.666 23.5 132.999s37 86.5 64 123.5s58.167 67.167 93.5 90.5s72.666 35 111.999 35c41.333 0 81.333 -13 120 -39s75 -64.667 109 -116
c28 -41.333 51.333 -87.5 70 -138.5s28 -104.167 28 -159.5c0 -45.333 -7.16699 -86.166 -21.5 -122.499s-36.5 -68.166 -66.5 -95.499c14.667 -2.66699 29.5 -4.66699 44.5 -6s31.667 -2.33301 50 -3s38.666 -1.16699 60.999 -1.5s48.166 -0.5 77.499 -0.5v-131h-27
c-59.333 0 -117.833 4.16699 -175.5 12.5s-109.834 22.166 -156.501 41.499c-26 -11.333 -54.5 -20.5 -85.5 -27.5s-63.5 -12.5 -97.5 -16.5s-69 -6.66699 -105 -8s-72.333 -2 -109 -2h-180c-23.333 0 -40.833 6.33301 -52.5 19s-17.5 28.334 -17.5 47.001
c0 18 5.83301 33.333 17.5 46s29.167 19 52.5 19h196c40.667 0 79.167 0.166992 115.5 0.5s67.166 0.833008 92.499 1.5zM670.005 343.999c0 21.333 -2.83398 44 -8.50098 68s-13.667 47.833 -24 71.5s-22.333 46.5 -36 68.5s-28.5 41.333 -44.5 58s-32.667 30 -50 40
s-34.666 15 -51.999 15c-19.333 0 -38.833 -7.16699 -58.5 -21.5s-37.5 -33 -53.5 -56s-29 -48.5 -39 -76.5s-15 -56 -15 -84c0 -21.333 4.66699 -42.833 14 -64.5s25 -43.667 47 -66s50.833 -45 86.5 -68s79.5 -46.5 131.5 -70.5c34 17.333 59.5 41.833 76.5 73.5
s25.5 69.167 25.5 112.5zM595.004 -327.001h-147v143h147v-143z" />
    <glyph glyph-name="uni06A2.fina" unicode="&#x6a2;" horiz-adv-x="2027" 
d="M1211 417c0 43.333 7.83398 87.6699 23.501 133.003s37 86.5 64 123.5s58.167 67.167 93.5 90.5s72.666 35 111.999 35c41.333 0 81.333 -13.167 120 -39.5s75 -64.833 109 -115.5c28 -42 51.333 -88.167 70 -138.5s28 -103.5 28 -159.5
c0 -90.667 -29.667 -163.334 -89 -218.001c36 -5.33301 76 -8.5 120 -9.5s99 -1.5 165 -1.5v-131h-66c-61.333 0 -122 4 -182 12s-114 21.667 -162 41c-28 -12.667 -59.667 -23 -95 -31s-73.333 -14.167 -114 -18.5s-83.5 -7.33301 -128.5 -9s-90.5 -2.5 -136.5 -2.5h-195
c-93.333 0 -175.166 1.5 -245.499 4.5s-131.666 8.33301 -183.999 16s-97 18.167 -134 31.5s-68.5 30.666 -94.5 51.999c-40.667 32 -70.667 71.5 -90 118.5s-29 100.833 -29 161.5c0 36 2.83301 72.167 8.5 108.5s12.5 70.5 20.5 102.5h118
c-7.33301 -26.667 -13.5 -56 -18.5 -88s-7.5 -65.667 -7.5 -101c0 -46 6.83301 -85.667 20.5 -119s35.5 -60.333 65.5 -81c20.667 -14 46.667 -25.833 78 -35.5s72.666 -17.334 123.999 -23.001s115.333 -9.66699 192 -12s171 -3.5 283 -3.5c56 0 104.667 0.166992 146 0.5
s77.166 0.833008 107.499 1.5s56.333 1.5 78 2.5s41.167 2.16699 58.5 3.5c0.666992 1.33301 1 2.33301 1 3s0.333008 1.66699 1 3c-84.667 36.667 -145.167 79.667 -181.5 129s-54.5 104 -54.5 164zM1710 344.004c0 21.333 -2.83301 44.002 -8.5 68.002
s-13.667 47.833 -24 71.5s-22.333 46.5 -36 68.5s-28.5 41.333 -44.5 58s-32.667 30 -50 40s-34.666 15 -51.999 15c-19.333 0 -38.833 -7.16699 -58.5 -21.5s-37.5 -33 -53.5 -56s-29 -48.5 -39 -76.5s-15 -56 -15 -84c0 -21.333 4.5 -42.833 13.5 -64.5
s24.333 -43.5 46 -65.5s50.167 -44.5 85.5 -67.5s79 -46.5 131 -70.5c35.333 17.333 61.666 41.666 78.999 72.999s26 68.666 26 111.999zM1630 -326.994h-147v143h147v-143z" />
    <glyph glyph-name="uni06A3.init" unicode="&#x6a3;" horiz-adv-x="936" 
d="M401 127c-82 36.667 -140.832 79.167 -176.499 127.5s-53.5 102.5 -53.5 162.5c0 43.333 7.83301 87.666 23.5 132.999s37 86.5 64 123.5s58.167 67.167 93.5 90.5s72.666 35 111.999 35c41.333 0 81.333 -13 120 -39s75 -65 109 -117
c27.333 -41.333 50.5 -87.166 69.5 -137.499s28.5 -102.833 28.5 -157.5c0 -74 -15 -134.5 -45 -181.5s-71.167 -83.833 -123.5 -110.5s-113.833 -45 -184.5 -55s-146.667 -15 -228 -15h-210c-23.333 0 -40.833 6.33301 -52.5 19s-17.5 28.334 -17.5 47.001
c0 18 5.83301 33.333 17.5 46s29.167 19 52.5 19h171c36 0 74.5 0.166992 115.5 0.5s78.5 1.16602 112.5 2.49902zM670.001 344c0 21.333 -2.83203 43.999 -8.49902 67.999s-13.667 47.833 -24 71.5s-22.333 46.5 -36 68.5s-28.5 41.333 -44.5 58s-32.667 30 -50 40
s-34.666 15 -51.999 15c-19.333 0 -38.833 -7.16699 -58.5 -21.5s-37.5 -33 -53.5 -56s-29 -48.5 -39 -76.5s-15 -56 -15 -84c0 -21.333 4.66699 -42.666 14 -63.999s24.666 -43 45.999 -65s49.666 -44.5 84.999 -67.5s79 -46.833 131 -71.5c32 16 57.5 39.833 76.5 71.5
s28.5 69.5 28.5 113.5zM595.002 -327.001h-147v143h147v-143zM513.002 1031h-147v143h147v-143z" />
    <glyph glyph-name="uni06A3.medi" unicode="&#x6a3;" horiz-adv-x="936" 
d="M406 126c-83.333 34.667 -143.328 76.666 -179.995 125.999s-55 104.333 -55 165c0 43.333 7.83301 87.666 23.5 132.999s37 86.5 64 123.5s58.167 67.167 93.5 90.5s72.666 35 111.999 35c41.333 0 81.333 -13 120 -39s75 -64.667 109 -116
c28 -41.333 51.333 -87.5 70 -138.5s28 -104.167 28 -159.5c0 -45.333 -7.16699 -86.166 -21.5 -122.499s-36.5 -68.166 -66.5 -95.499c14.667 -2.66699 29.5 -4.66699 44.5 -6s31.667 -2.33301 50 -3s38.666 -1.16699 60.999 -1.5s48.166 -0.5 77.499 -0.5v-131h-27
c-59.333 0 -117.833 4.16699 -175.5 12.5s-109.834 22.166 -156.501 41.499c-26 -11.333 -54.5 -20.5 -85.5 -27.5s-63.5 -12.5 -97.5 -16.5s-69 -6.66699 -105 -8s-72.333 -2 -109 -2h-180c-23.333 0 -40.833 6.33301 -52.5 19s-17.5 28.334 -17.5 47.001
c0 18 5.83301 33.333 17.5 46s29.167 19 52.5 19h196c40.667 0 79.167 0.166992 115.5 0.5s67.166 0.833008 92.499 1.5zM670.005 343.999c0 21.333 -2.83398 44 -8.50098 68s-13.667 47.833 -24 71.5s-22.333 46.5 -36 68.5s-28.5 41.333 -44.5 58s-32.667 30 -50 40
s-34.666 15 -51.999 15c-19.333 0 -38.833 -7.16699 -58.5 -21.5s-37.5 -33 -53.5 -56s-29 -48.5 -39 -76.5s-15 -56 -15 -84c0 -21.333 4.66699 -42.833 14 -64.5s25 -43.667 47 -66s50.833 -45 86.5 -68s79.5 -46.5 131.5 -70.5c34 17.333 59.5 41.833 76.5 73.5
s25.5 69.167 25.5 112.5zM595.004 -327.001h-147v143h147v-143zM513.004 1031h-147v143h147v-143z" />
    <glyph glyph-name="uni06A3.fina" unicode="&#x6a3;" horiz-adv-x="2027" 
d="M1211 417c0 43.333 7.83398 87.6699 23.501 133.003s37 86.5 64 123.5s58.167 67.167 93.5 90.5s72.666 35 111.999 35c41.333 0 81.333 -13.167 120 -39.5s75 -64.833 109 -115.5c28 -42 51.333 -88.167 70 -138.5s28 -103.5 28 -159.5
c0 -90.667 -29.667 -163.334 -89 -218.001c36 -5.33301 76 -8.5 120 -9.5s99 -1.5 165 -1.5v-131h-66c-61.333 0 -122 4 -182 12s-114 21.667 -162 41c-28 -12.667 -59.667 -23 -95 -31s-73.333 -14.167 -114 -18.5s-83.5 -7.33301 -128.5 -9s-90.5 -2.5 -136.5 -2.5h-195
c-93.333 0 -175.166 1.5 -245.499 4.5s-131.666 8.33301 -183.999 16s-97 18.167 -134 31.5s-68.5 30.666 -94.5 51.999c-40.667 32 -70.667 71.5 -90 118.5s-29 100.833 -29 161.5c0 36 2.83301 72.167 8.5 108.5s12.5 70.5 20.5 102.5h118
c-7.33301 -26.667 -13.5 -56 -18.5 -88s-7.5 -65.667 -7.5 -101c0 -46 6.83301 -85.667 20.5 -119s35.5 -60.333 65.5 -81c20.667 -14 46.667 -25.833 78 -35.5s72.666 -17.334 123.999 -23.001s115.333 -9.66699 192 -12s171 -3.5 283 -3.5c56 0 104.667 0.166992 146 0.5
s77.166 0.833008 107.499 1.5s56.333 1.5 78 2.5s41.167 2.16699 58.5 3.5c0.666992 1.33301 1 2.33301 1 3s0.333008 1.66699 1 3c-84.667 36.667 -145.167 79.667 -181.5 129s-54.5 104 -54.5 164zM1710 344.004c0 21.333 -2.83301 44.002 -8.5 68.002
s-13.667 47.833 -24 71.5s-22.333 46.5 -36 68.5s-28.5 41.333 -44.5 58s-32.667 30 -50 40s-34.666 15 -51.999 15c-19.333 0 -38.833 -7.16699 -58.5 -21.5s-37.5 -33 -53.5 -56s-29 -48.5 -39 -76.5s-15 -56 -15 -84c0 -21.333 4.5 -42.833 13.5 -64.5
s24.333 -43.5 46 -65.5s50.167 -44.5 85.5 -67.5s79 -46.5 131 -70.5c35.333 17.333 61.666 41.666 78.999 72.999s26 68.666 26 111.999zM1571 1031.01h-147v143h147v-143zM1062 -326.994h-147v143h147v-143z" />
    <glyph glyph-name="afii57505" unicode="&#x6a4;" horiz-adv-x="1988" arabic-form="isolated" 
d="M318 573c-7.33301 -26.667 -13.5 -55.9961 -18.5 -87.9961s-7.5 -65.667 -7.5 -101c0 -46 6.83301 -85.667 20.5 -119s35.5 -60.333 65.5 -81c20.667 -14 46.667 -25.833 78 -35.5s72.666 -17.334 123.999 -23.001s115.333 -9.66699 192 -12s171 -3.5 283 -3.5
c56 0 104.5 0.166992 145.5 0.5s76.667 0.666016 107 0.999023s56.333 1 78 2s41.167 2.16699 58.5 3.5c0.666992 1.33301 1 2.33301 1 3s0.333008 1.66699 1 3c-82 36.667 -140.833 79.167 -176.5 127.5s-53.5 102.5 -53.5 162.5c0 43.333 7.83301 87.666 23.5 132.999
s37 86.5 64 123.5s58.167 67.167 93.5 90.5s72.666 35 111.999 35c83.333 0 160 -51.667 230 -155c28 -41.333 50.333 -87.5 67 -138.5s25 -103.5 25 -157.5c0 -70 -14 -128.5 -42 -175.5s-68.167 -84.5 -120.5 -112.5s-116 -48 -191 -60s-159.5 -18 -253.5 -18h-276
c-93.333 0 -175.166 1.5 -245.499 4.5s-131.666 8.33301 -183.999 16s-97 18.167 -134 31.5s-68.5 30.666 -94.5 51.999c-40.667 32 -70.667 71.5 -90 118.5s-29 100.833 -29 161.5c0 36 2.83301 72.167 8.5 108.5s12.5 70.5 20.5 102.5h118zM1710 340.004
c0 32 -5.99902 66.667 -17.999 104s-28 72 -48 104s-42.5 58.833 -67.5 80.5s-50.5 32.5 -76.5 32.5c-20 0 -39.833 -7.16699 -59.5 -21.5s-37.334 -33 -53.001 -56s-28.5 -48.5 -38.5 -76.5s-15 -56 -15 -84c0 -26 4.33301 -50 13 -72s23.5 -43.333 44.5 -64
s48.833 -41.667 83.5 -63s78 -44.333 130 -69c32 16 57.5 39.833 76.5 71.5s28.5 69.5 28.5 113.5zM1442 1031h-147v143h147v-143zM1702 1031h-147v143h147v-143zM1572 1262h-147v143h147v-143z" />
    <glyph glyph-name="uni06A5.init" unicode="&#x6a5;" horiz-adv-x="936" 
d="M401 127c-82 36.667 -140.832 79.167 -176.499 127.5s-53.5 102.5 -53.5 162.5c0 43.333 7.83301 87.666 23.5 132.999s37 86.5 64 123.5s58.167 67.167 93.5 90.5s72.666 35 111.999 35c41.333 0 81.333 -13 120 -39s75 -65 109 -117
c27.333 -41.333 50.5 -87.166 69.5 -137.499s28.5 -102.833 28.5 -157.5c0 -74 -15 -134.5 -45 -181.5s-71.167 -83.833 -123.5 -110.5s-113.833 -45 -184.5 -55s-146.667 -15 -228 -15h-210c-23.333 0 -40.833 6.33301 -52.5 19s-17.5 28.334 -17.5 47.001
c0 18 5.83301 33.333 17.5 46s29.167 19 52.5 19h171c36 0 74.5 0.166992 115.5 0.5s78.5 1.16602 112.5 2.49902zM670.001 344c0 21.333 -2.83203 43.999 -8.49902 67.999s-13.667 47.833 -24 71.5s-22.333 46.5 -36 68.5s-28.5 41.333 -44.5 58s-32.667 30 -50 40
s-34.666 15 -51.999 15c-19.333 0 -38.833 -7.16699 -58.5 -21.5s-37.5 -33 -53.5 -56s-29 -48.5 -39 -76.5s-15 -56 -15 -84c0 -21.333 4.66699 -42.666 14 -63.999s24.666 -43 45.999 -65s49.666 -44.5 84.999 -67.5s79 -46.833 131 -71.5c32 16 57.5 39.833 76.5 71.5
s28.5 69.5 28.5 113.5zM458.002 -327.001h-148v143h148v-143zM717.002 -327.001h-147v143h147v-143zM588.002 -550.001h-147v143h147v-143z" />
    <glyph glyph-name="uni06A5.medi" unicode="&#x6a5;" horiz-adv-x="936" 
d="M406 126c-83.333 34.667 -143.328 76.666 -179.995 125.999s-55 104.333 -55 165c0 43.333 7.83301 87.666 23.5 132.999s37 86.5 64 123.5s58.167 67.167 93.5 90.5s72.666 35 111.999 35c41.333 0 81.333 -13 120 -39s75 -64.667 109 -116
c28 -41.333 51.333 -87.5 70 -138.5s28 -104.167 28 -159.5c0 -45.333 -7.16699 -86.166 -21.5 -122.499s-36.5 -68.166 -66.5 -95.499c14.667 -2.66699 29.5 -4.66699 44.5 -6s31.667 -2.33301 50 -3s38.666 -1.16699 60.999 -1.5s48.166 -0.5 77.499 -0.5v-131h-27
c-59.333 0 -117.833 4.16699 -175.5 12.5s-109.834 22.166 -156.501 41.499c-26 -11.333 -54.5 -20.5 -85.5 -27.5s-63.5 -12.5 -97.5 -16.5s-69 -6.66699 -105 -8s-72.333 -2 -109 -2h-180c-23.333 0 -40.833 6.33301 -52.5 19s-17.5 28.334 -17.5 47.001
c0 18 5.83301 33.333 17.5 46s29.167 19 52.5 19h196c40.667 0 79.167 0.166992 115.5 0.5s67.166 0.833008 92.499 1.5zM670.005 343.999c0 21.333 -2.83398 44 -8.50098 68s-13.667 47.833 -24 71.5s-22.333 46.5 -36 68.5s-28.5 41.333 -44.5 58s-32.667 30 -50 40
s-34.666 15 -51.999 15c-19.333 0 -38.833 -7.16699 -58.5 -21.5s-37.5 -33 -53.5 -56s-29 -48.5 -39 -76.5s-15 -56 -15 -84c0 -21.333 4.66699 -42.833 14 -64.5s25 -43.667 47 -66s50.833 -45 86.5 -68s79.5 -46.5 131.5 -70.5c34 17.333 59.5 41.833 76.5 73.5
s25.5 69.167 25.5 112.5zM458.004 -327.001h-148v143h148v-143zM717.004 -327.001h-147v143h147v-143zM588.004 -550.001h-147v143h147v-143z" />
    <glyph glyph-name="uni06A5.fina" unicode="&#x6a5;" horiz-adv-x="2027" 
d="M1211 417c0 43.333 7.83398 87.6699 23.501 133.003s37 86.5 64 123.5s58.167 67.167 93.5 90.5s72.666 35 111.999 35c41.333 0 81.333 -13.167 120 -39.5s75 -64.833 109 -115.5c28 -42 51.333 -88.167 70 -138.5s28 -103.5 28 -159.5
c0 -90.667 -29.667 -163.334 -89 -218.001c36 -5.33301 76 -8.5 120 -9.5s99 -1.5 165 -1.5v-131h-66c-61.333 0 -122 4 -182 12s-114 21.667 -162 41c-28 -12.667 -59.667 -23 -95 -31s-73.333 -14.167 -114 -18.5s-83.5 -7.33301 -128.5 -9s-90.5 -2.5 -136.5 -2.5h-195
c-93.333 0 -175.166 1.5 -245.499 4.5s-131.666 8.33301 -183.999 16s-97 18.167 -134 31.5s-68.5 30.666 -94.5 51.999c-40.667 32 -70.667 71.5 -90 118.5s-29 100.833 -29 161.5c0 36 2.83301 72.167 8.5 108.5s12.5 70.5 20.5 102.5h118
c-7.33301 -26.667 -13.5 -56 -18.5 -88s-7.5 -65.667 -7.5 -101c0 -46 6.83301 -85.667 20.5 -119s35.5 -60.333 65.5 -81c20.667 -14 46.667 -25.833 78 -35.5s72.666 -17.334 123.999 -23.001s115.333 -9.66699 192 -12s171 -3.5 283 -3.5c56 0 104.667 0.166992 146 0.5
s77.166 0.833008 107.499 1.5s56.333 1.5 78 2.5s41.167 2.16699 58.5 3.5c0.666992 1.33301 1 2.33301 1 3s0.333008 1.66699 1 3c-84.667 36.667 -145.167 79.667 -181.5 129s-54.5 104 -54.5 164zM1710 344.004c0 21.333 -2.83301 44.002 -8.5 68.002
s-13.667 47.833 -24 71.5s-22.333 46.5 -36 68.5s-28.5 41.333 -44.5 58s-32.667 30 -50 40s-34.666 15 -51.999 15c-19.333 0 -38.833 -7.16699 -58.5 -21.5s-37.5 -33 -53.5 -56s-29 -48.5 -39 -76.5s-15 -56 -15 -84c0 -21.333 4.5 -42.833 13.5 -64.5
s24.333 -43.5 46 -65.5s50.167 -44.5 85.5 -67.5s79 -46.5 131 -70.5c35.333 17.333 61.666 41.666 78.999 72.999s26 68.666 26 111.999zM1516 -326.994h-148v143h148v-143zM1775 -326.994h-147v143h147v-143zM1646 -549.994h-147v143h147v-143z" />
    <glyph glyph-name="uni06A6" unicode="&#x6a6;" horiz-adv-x="1988" arabic-form="isolated" 
d="M318 573c-7.33301 -26.667 -13.5 -55.9961 -18.5 -87.9961s-7.5 -65.667 -7.5 -101c0 -46 6.83301 -85.667 20.5 -119s35.5 -60.333 65.5 -81c20.667 -14 46.667 -25.833 78 -35.5s72.666 -17.334 123.999 -23.001s115.333 -9.66699 192 -12s171 -3.5 283 -3.5
c56 0 104.5 0.166992 145.5 0.5s76.667 0.666016 107 0.999023s56.333 1 78 2s41.167 2.16699 58.5 3.5c0.666992 1.33301 1 2.33301 1 3s0.333008 1.66699 1 3c-82 36.667 -140.833 79.167 -176.5 127.5s-53.5 102.5 -53.5 162.5c0 43.333 7.83301 87.666 23.5 132.999
s37 86.5 64 123.5s58.167 67.167 93.5 90.5s72.666 35 111.999 35c83.333 0 160 -51.667 230 -155c28 -41.333 50.333 -87.5 67 -138.5s25 -103.5 25 -157.5c0 -70 -14 -128.5 -42 -175.5s-68.167 -84.5 -120.5 -112.5s-116 -48 -191 -60s-159.5 -18 -253.5 -18h-276
c-93.333 0 -175.166 1.5 -245.499 4.5s-131.666 8.33301 -183.999 16s-97 18.167 -134 31.5s-68.5 30.666 -94.5 51.999c-40.667 32 -70.667 71.5 -90 118.5s-29 100.833 -29 161.5c0 36 2.83301 72.167 8.5 108.5s12.5 70.5 20.5 102.5h118zM1710 340.004
c0 32 -5.99902 66.667 -17.999 104s-28 72 -48 104s-42.5 58.833 -67.5 80.5s-50.5 32.5 -76.5 32.5c-20 0 -39.833 -7.16699 -59.5 -21.5s-37.334 -33 -53.001 -56s-28.5 -48.5 -38.5 -76.5s-15 -56 -15 -84c0 -26 4.33301 -50 13 -72s23.5 -43.333 44.5 -64
s48.833 -41.667 83.5 -63s78 -44.333 130 -69c32 16 57.5 39.833 76.5 71.5s28.5 69.5 28.5 113.5zM1442 1031h-147v143h147v-143zM1702 1031h-147v143h147v-143zM1442 1272h-147v143h147v-143zM1702 1272h-147v143h147v-143z" />
    <glyph glyph-name="uni06A7.init" unicode="&#x6a7;" horiz-adv-x="936" 
d="M401 127c-82 36.667 -140.832 79.167 -176.499 127.5s-53.5 102.5 -53.5 162.5c0 43.333 7.83301 87.666 23.5 132.999s37 86.5 64 123.5s58.167 67.167 93.5 90.5s72.666 35 111.999 35c41.333 0 81.333 -13 120 -39s75 -65 109 -117
c27.333 -41.333 50.5 -87.166 69.5 -137.499s28.5 -102.833 28.5 -157.5c0 -74 -15 -134.5 -45 -181.5s-71.167 -83.833 -123.5 -110.5s-113.833 -45 -184.5 -55s-146.667 -15 -228 -15h-210c-23.333 0 -40.833 6.33301 -52.5 19s-17.5 28.334 -17.5 47.001
c0 18 5.83301 33.333 17.5 46s29.167 19 52.5 19h171c36 0 74.5 0.166992 115.5 0.5s78.5 1.16602 112.5 2.49902zM670.001 344c0 21.333 -2.83203 43.999 -8.49902 67.999s-13.667 47.833 -24 71.5s-22.333 46.5 -36 68.5s-28.5 41.333 -44.5 58s-32.667 30 -50 40
s-34.666 15 -51.999 15c-19.333 0 -38.833 -7.16699 -58.5 -21.5s-37.5 -33 -53.5 -56s-29 -48.5 -39 -76.5s-15 -56 -15 -84c0 -21.333 4.66699 -42.666 14 -63.999s24.666 -43 45.999 -65s49.666 -44.5 84.999 -67.5s79 -46.833 131 -71.5c32 16 57.5 39.833 76.5 71.5
s28.5 69.5 28.5 113.5zM513.002 1031h-147v143h147v-143z" />
    <glyph glyph-name="uni06A7.medi" unicode="&#x6a7;" horiz-adv-x="936" 
d="M406 126c-83.333 34.667 -143.328 76.666 -179.995 125.999s-55 104.333 -55 165c0 43.333 7.83301 87.666 23.5 132.999s37 86.5 64 123.5s58.167 67.167 93.5 90.5s72.666 35 111.999 35c41.333 0 81.333 -13 120 -39s75 -64.667 109 -116
c28 -41.333 51.333 -87.5 70 -138.5s28 -104.167 28 -159.5c0 -45.333 -7.16699 -86.166 -21.5 -122.499s-36.5 -68.166 -66.5 -95.499c14.667 -2.66699 29.5 -4.66699 44.5 -6s31.667 -2.33301 50 -3s38.666 -1.16699 60.999 -1.5s48.166 -0.5 77.499 -0.5v-131h-27
c-59.333 0 -117.833 4.16699 -175.5 12.5s-109.834 22.166 -156.501 41.499c-26 -11.333 -54.5 -20.5 -85.5 -27.5s-63.5 -12.5 -97.5 -16.5s-69 -6.66699 -105 -8s-72.333 -2 -109 -2h-180c-23.333 0 -40.833 6.33301 -52.5 19s-17.5 28.334 -17.5 47.001
c0 18 5.83301 33.333 17.5 46s29.167 19 52.5 19h196c40.667 0 79.167 0.166992 115.5 0.5s67.166 0.833008 92.499 1.5zM670.005 343.999c0 21.333 -2.83398 44 -8.50098 68s-13.667 47.833 -24 71.5s-22.333 46.5 -36 68.5s-28.5 41.333 -44.5 58s-32.667 30 -50 40
s-34.666 15 -51.999 15c-19.333 0 -38.833 -7.16699 -58.5 -21.5s-37.5 -33 -53.5 -56s-29 -48.5 -39 -76.5s-15 -56 -15 -84c0 -21.333 4.66699 -42.833 14 -64.5s25 -43.667 47 -66s50.833 -45 86.5 -68s79.5 -46.5 131.5 -70.5c34 17.333 59.5 41.833 76.5 73.5
s25.5 69.167 25.5 112.5zM513.004 1031h-147v143h147v-143z" />
    <glyph glyph-name="uni06A7.fina" unicode="&#x6a7;" horiz-adv-x="1462" 
d="M1051 -14c-59.333 0 -111.667 7.49707 -157 22.4971s-83.666 35.833 -114.999 62.5s-55 58.334 -71 95.001s-24 76.667 -24 120c0 42 7.83301 84.833 23.5 128.5s37.167 83.334 64.5 119.001s59.333 64.834 96 87.501s75.667 34 117 34c50.667 0 95.5 -15 134.5 -45
s74.833 -73 107.5 -129c14 -24.667 26.5 -51.5 37.5 -80.5s20.167 -59.333 27.5 -91s13.166 -63.834 17.499 -96.501s7.16602 -64.667 8.49902 -96h144v-131h-144c-7.33301 -84.667 -24 -157 -50 -217s-63.167 -109 -111.5 -147s-109.166 -65.833 -182.499 -83.5
s-161.333 -26.5 -264 -26.5c-95.333 0 -177 10 -245 30s-123.833 49.667 -167.5 89s-75.667 88 -96 146s-30.5 125 -30.5 201c0 42 2.5 86.333 7.5 133s12.167 96 21.5 148h115c-7.33301 -50 -13 -95.833 -17 -137.5s-6 -80.5 -6 -116.5c0 -64 7.66699 -118.667 23 -164
s40 -82.666 74 -111.999s78.333 -50.833 133 -64.5s121.667 -20.5 201 -20.5c90.667 0 165.5 7 224.5 21s106.167 35.167 141.5 63.5s61 63.833 77 106.5s26 93 30 151h-145zM1197 116.997c-1.33301 29.333 -4.66602 61.668 -9.99902 97.001s-13.666 69 -24.999 101
c-10 26.667 -21.5 52.5 -34.5 77.5s-27.333 47 -43 66s-32.334 34.167 -50.001 45.5s-36.167 17 -55.5 17c-22 0 -43.333 -6.33301 -64 -19s-38.834 -29.334 -54.501 -50.001s-28.334 -44.5 -38.001 -71.5s-14.5 -54.5 -14.5 -82.5c0 -57.333 20.333 -101.833 61 -133.5
s103.334 -47.5 188.001 -47.5h140zM1036 854.999h-147v143h147v-143z" />
    <glyph glyph-name="uni06A8.init" unicode="&#x6a8;" horiz-adv-x="936" 
d="M401 127c-82 36.667 -140.832 79.167 -176.499 127.5s-53.5 102.5 -53.5 162.5c0 43.333 7.83301 87.666 23.5 132.999s37 86.5 64 123.5s58.167 67.167 93.5 90.5s72.666 35 111.999 35c41.333 0 81.333 -13 120 -39s75 -65 109 -117
c27.333 -41.333 50.5 -87.166 69.5 -137.499s28.5 -102.833 28.5 -157.5c0 -74 -15 -134.5 -45 -181.5s-71.167 -83.833 -123.5 -110.5s-113.833 -45 -184.5 -55s-146.667 -15 -228 -15h-210c-23.333 0 -40.833 6.33301 -52.5 19s-17.5 28.334 -17.5 47.001
c0 18 5.83301 33.333 17.5 46s29.167 19 52.5 19h171c36 0 74.5 0.166992 115.5 0.5s78.5 1.16602 112.5 2.49902zM670.001 344c0 21.333 -2.83203 43.999 -8.49902 67.999s-13.667 47.833 -24 71.5s-22.333 46.5 -36 68.5s-28.5 41.333 -44.5 58s-32.667 30 -50 40
s-34.666 15 -51.999 15c-19.333 0 -38.833 -7.16699 -58.5 -21.5s-37.5 -33 -53.5 -56s-29 -48.5 -39 -76.5s-15 -56 -15 -84c0 -21.333 4.66699 -42.666 14 -63.999s24.666 -43 45.999 -65s49.666 -44.5 84.999 -67.5s79 -46.833 131 -71.5c32 16 57.5 39.833 76.5 71.5
s28.5 69.5 28.5 113.5zM370.002 1031h-147v143h147v-143zM630.002 1031h-147v143h147v-143zM500.002 1262h-147v143h147v-143z" />
    <glyph glyph-name="uni06A8.medi" unicode="&#x6a8;" horiz-adv-x="936" 
d="M406 126c-83.333 34.667 -143.328 76.666 -179.995 125.999s-55 104.333 -55 165c0 43.333 7.83301 87.666 23.5 132.999s37 86.5 64 123.5s58.167 67.167 93.5 90.5s72.666 35 111.999 35c41.333 0 81.333 -13 120 -39s75 -64.667 109 -116
c28 -41.333 51.333 -87.5 70 -138.5s28 -104.167 28 -159.5c0 -45.333 -7.16699 -86.166 -21.5 -122.499s-36.5 -68.166 -66.5 -95.499c14.667 -2.66699 29.5 -4.66699 44.5 -6s31.667 -2.33301 50 -3s38.666 -1.16699 60.999 -1.5s48.166 -0.5 77.499 -0.5v-131h-27
c-59.333 0 -117.833 4.16699 -175.5 12.5s-109.834 22.166 -156.501 41.499c-26 -11.333 -54.5 -20.5 -85.5 -27.5s-63.5 -12.5 -97.5 -16.5s-69 -6.66699 -105 -8s-72.333 -2 -109 -2h-180c-23.333 0 -40.833 6.33301 -52.5 19s-17.5 28.334 -17.5 47.001
c0 18 5.83301 33.333 17.5 46s29.167 19 52.5 19h196c40.667 0 79.167 0.166992 115.5 0.5s67.166 0.833008 92.499 1.5zM670.005 343.999c0 21.333 -2.83398 44 -8.50098 68s-13.667 47.833 -24 71.5s-22.333 46.5 -36 68.5s-28.5 41.333 -44.5 58s-32.667 30 -50 40
s-34.666 15 -51.999 15c-19.333 0 -38.833 -7.16699 -58.5 -21.5s-37.5 -33 -53.5 -56s-29 -48.5 -39 -76.5s-15 -56 -15 -84c0 -21.333 4.66699 -42.833 14 -64.5s25 -43.667 47 -66s50.833 -45 86.5 -68s79.5 -46.5 131.5 -70.5c34 17.333 59.5 41.833 76.5 73.5
s25.5 69.167 25.5 112.5zM370.004 1031h-147v143h147v-143zM630.004 1031h-147v143h147v-143zM500.004 1262h-147v143h147v-143z" />
    <glyph glyph-name="uni06A8.fina" unicode="&#x6a8;" horiz-adv-x="1462" 
d="M1051 -14c-59.333 0 -111.667 7.49707 -157 22.4971s-83.666 35.833 -114.999 62.5s-55 58.334 -71 95.001s-24 76.667 -24 120c0 42 7.83301 84.833 23.5 128.5s37.167 83.334 64.5 119.001s59.333 64.834 96 87.501s75.667 34 117 34c50.667 0 95.5 -15 134.5 -45
s74.833 -73 107.5 -129c14 -24.667 26.5 -51.5 37.5 -80.5s20.167 -59.333 27.5 -91s13.166 -63.834 17.499 -96.501s7.16602 -64.667 8.49902 -96h144v-131h-144c-7.33301 -84.667 -24 -157 -50 -217s-63.167 -109 -111.5 -147s-109.166 -65.833 -182.499 -83.5
s-161.333 -26.5 -264 -26.5c-95.333 0 -177 10 -245 30s-123.833 49.667 -167.5 89s-75.667 88 -96 146s-30.5 125 -30.5 201c0 42 2.5 86.333 7.5 133s12.167 96 21.5 148h115c-7.33301 -50 -13 -95.833 -17 -137.5s-6 -80.5 -6 -116.5c0 -64 7.66699 -118.667 23 -164
s40 -82.666 74 -111.999s78.333 -50.833 133 -64.5s121.667 -20.5 201 -20.5c90.667 0 165.5 7 224.5 21s106.167 35.167 141.5 63.5s61 63.833 77 106.5s26 93 30 151h-145zM1197 116.997c-1.33301 29.333 -4.66602 61.668 -9.99902 97.001s-13.666 69 -24.999 101
c-10 26.667 -21.5 52.5 -34.5 77.5s-27.333 47 -43 66s-32.334 34.167 -50.001 45.5s-36.167 17 -55.5 17c-22 0 -43.333 -6.33301 -64 -19s-38.834 -29.334 -54.501 -50.001s-28.334 -44.5 -38.001 -71.5s-14.5 -54.5 -14.5 -82.5c0 -57.333 20.333 -101.833 61 -133.5
s103.334 -47.5 188.001 -47.5h140zM894.999 854.999h-147v143h147v-143zM1155 854.999h-147v143h147v-143zM1025 1086h-147v143h147v-143z" />
    <glyph glyph-name="uni06A9" unicode="&#x6a9;" horiz-adv-x="1826" arabic-form="isolated" 
d="M318 573c-7.33301 -26.667 -13.499 -56.001 -18.499 -88.001s-7.5 -65.667 -7.5 -101c0 -46 6.83301 -85.5 20.5 -118.5s35.5 -60.167 65.5 -81.5c18 -12.667 41 -23.667 69 -33s64.167 -17 108.5 -23s98.166 -10.5 161.499 -13.5s139.666 -4.5 228.999 -4.5
c103.333 0 188.666 2 255.999 6s122 12.667 164 26c48.667 15.333 84.334 37.333 107.001 66s34 65.334 34 110.001c0 45.333 -12.333 89.666 -37 132.999s-63.167 87.5 -115.5 132.5s-119.666 91.333 -201.999 139s-181.5 98.834 -297.5 153.501v117l855 546v-141
l-728 -455c118 -57.333 218.167 -111.666 300.5 -162.999s149 -102 200 -152s88 -99.833 111 -149.5s34.5 -101.5 34.5 -155.5c0 -28.667 -3.5 -57.834 -10.5 -87.501s-19 -57.834 -36 -84.501s-39.333 -51 -67 -73s-62.5 -40 -104.5 -54c-28 -9.33301 -58.5 -17 -91.5 -23
s-69.5 -10.667 -109.5 -14s-84.333 -5.66602 -133 -6.99902s-103 -2 -163 -2c-86.667 0 -163 1.5 -229 4.5s-124 8.5 -174 16.5s-92.833 18.667 -128.5 32s-66.167 30.333 -91.5 51c-40.667 32 -70.667 71.5 -90 118.5s-29 100.833 -29 161.5c0 36 2.83301 72.167 8.5 108.5
s12.5 70.5 20.5 102.5h118z" />
    <glyph glyph-name="uni06AA.init" unicode="&#x6aa;" horiz-adv-x="2053" 
d="M0 -14c-21.333 0 -37.502 6.32812 -48.502 18.9951s-16.5 28.334 -16.5 47.001c0 17.333 5.5 32.5 16.5 45.5s27.167 19.5 48.5 19.5h68c36 0 84.333 -0.333008 145 -1s130.334 -1.33398 209.001 -2.00098s164.5 -1.33398 257.5 -2.00098s189.833 -1 290.5 -1
c78.667 0 156.167 0.333008 232.5 1s149.166 1.83398 218.499 3.50098s133.833 3.66699 193.5 6s111.5 5.16602 155.5 8.49902c4 12.667 7.33301 24.834 10 36.501s4 25.167 4 40.5c0 22.667 -5.16699 43.334 -15.5 62.001s-25 34.834 -44 48.501
s-42.167 24.334 -69.5 32.001s-58 11.5 -92 11.5h-1103c-44 0 -83.833 2.16699 -119.5 6.5s-66 12.166 -91 23.499s-44.333 26.5 -58 45.5s-20.5 43.167 -20.5 72.5c0 48 15.833 98.667 47.5 152s78.5 104.333 140.5 153s138.667 92 230 130s196.666 65 315.999 81v-131
c-96.667 -13.333 -183.167 -34 -259.5 -62s-141 -58.833 -194 -92.5s-93.667 -67.5 -122 -101.5s-42.5 -63.667 -42.5 -89c0 -12 3.66699 -21.833 11 -29.5s20.5 -13.667 39.5 -18s44.833 -7.16602 77.5 -8.49902s74.667 -2 126 -2h1020
c54.667 0 103.334 -6.83301 146.001 -20.5s78.5 -32.5 107.5 -56.5s51 -52.167 66 -84.5s22.5 -66.833 22.5 -103.5c0 -37.333 -7.83301 -76.166 -23.5 -116.499s-40.5 -76.5 -74.5 -108.5c-33.333 -2.66699 -80.666 -5.33398 -141.999 -8.00098
s-131.333 -5.16699 -210 -7.5s-163.167 -4.16602 -253.5 -5.49902s-180.5 -2 -270.5 -2c-50.667 0 -106.5 0.166992 -167.5 0.5s-122.833 0.833008 -185.5 1.5l-183.5 2c-59.667 0.666992 -113.5 1.33398 -161.5 2.00098s-88.167 1.16699 -120.5 1.5
s-52.166 0.5 -59.499 0.5h-51z" />
    <glyph glyph-name="uni06AA.medi" unicode="&#x6aa;" horiz-adv-x="2052" 
d="M0 -14c-21.333 0 -37.499 6.32715 -48.499 18.9941s-16.5 28.334 -16.5 47.001c0 17.333 5.5 32.5 16.5 45.5s27.167 19.5 48.5 19.5h68c35.333 0 83 -0.333008 143 -1s129 -1.33398 207 -2.00098s163 -1.33398 255 -2.00098s187.667 -1 287 -1
c78.667 0 156.834 0.333008 234.501 1s151.667 1.83398 222 3.50098s135.833 3.66699 196.5 6s113 5.16602 157 8.49902c4 12.667 7.33301 24.834 10 36.501s4 25.167 4 40.5c0 22.667 -5.16699 43.334 -15.5 62.001s-25 34.834 -44 48.501s-42.167 24.334 -69.5 32.001
s-58 11.5 -92 11.5h-1103c-44 0 -83.833 2.16699 -119.5 6.5s-66 12.166 -91 23.499s-44.333 26.5 -58 45.5s-20.5 43.167 -20.5 72.5c0 48 15.833 98.667 47.5 152s78.334 104.333 140.001 153s138.167 92 229.5 130s196.666 65 315.999 81v-131
c-96.667 -13.333 -183.167 -34 -259.5 -62s-141 -58.833 -194 -92.5s-93.5 -67.5 -121.5 -101.5s-42 -63.667 -42 -89c0 -12 3.83301 -21.833 11.5 -29.5s21.167 -13.667 40.5 -18s45.666 -7.16602 78.999 -8.49902s75.666 -2 126.999 -2h1016
c54.667 0 103.334 -6.83301 146.001 -20.5s78.5 -32.5 107.5 -56.5s51 -52.167 66 -84.5s22.5 -66.833 22.5 -103.5c0 -31.333 -5.66699 -64.666 -17 -99.999c21.333 -3.33301 45.666 -5.66602 72.999 -6.99902s58.333 -2 93 -2v-131h-22c-38 0 -71.667 5.66699 -101 17
s-53.666 30 -72.999 56h-3c-6.66699 -11.333 -14 -21.666 -22 -30.999s-16.667 -18.333 -26 -27l-86 -5c-35.333 -2 -75.833 -3.83301 -121.5 -5.5s-95.334 -3.33398 -149.001 -5.00098s-109.667 -3 -168 -4s-118.166 -1.83301 -179.499 -2.5s-122 -1 -182 -1
c-50 0 -105.333 0.166992 -166 0.5s-121.834 0.833008 -183.501 1.5l-181 2c-59 0.666992 -112.167 1.33398 -159.5 2.00098s-87 1.16699 -119 1.5s-51.667 0.5 -59 0.5h-51z" />
    <glyph glyph-name="uni06AA.fina" unicode="&#x6aa;" horiz-adv-x="2224" 
d="M272.5 122c79 -2.66699 159.663 -4.67383 241.996 -6.00684s164.5 -2.16602 246.5 -2.49902s161 -0.5 237 -0.5h170c58 0 115.833 0.333008 173.5 1l169.5 2c55.333 0.666992 107.833 1.66699 157.5 3s95.834 2.83301 138.501 4.5s80 3.83398 112 6.50098
c4.66699 12.667 8.16699 24.834 10.5 36.501s3.5 25.167 3.5 40.5c0 22.667 -5.16699 43.334 -15.5 62.001s-25 34.834 -44 48.501s-42 24.334 -69 32.001s-57.5 11.5 -91.5 11.5h-1101c-44 0 -83.833 2.16699 -119.5 6.5s-66 12.166 -91 23.499s-44.333 26.5 -58 45.5
s-20.5 43.167 -20.5 72.5c0 48 15.833 98.667 47.5 152s78.334 104.333 140.001 153s138.167 92 229.5 130s196.666 65 315.999 81v-131c-96.667 -13.333 -183.167 -34 -259.5 -62s-141 -58.833 -194 -92.5s-93.5 -67.5 -121.5 -101.5s-42 -63.667 -42 -89
c0 -12 3.83301 -21.833 11.5 -29.5s21.167 -13.667 40.5 -18s45.5 -7.16602 78.5 -8.49902s75.167 -2 126.5 -2h1014c54.667 0 103.334 -6.83301 146.001 -20.5s78.5 -32.5 107.5 -56.5s51 -52.167 66 -84.5s22.5 -66.833 22.5 -103.5c0 -16 -1.33301 -32.333 -4 -49
s-7 -33.667 -13 -51c24.667 -3.33301 52.834 -5.66602 84.5 -6.99902c31.667 -1.33301 66.5 -2 104.5 -2v-131h-47c-34.667 0 -67 5.66699 -97 17s-55 30 -75 56h-3c-12.667 -22 -28.667 -41.333 -48 -58c-23.333 -2 -55.166 -3.83301 -95.499 -5.5
s-86.833 -3.16699 -139.5 -4.5s-110.167 -2.5 -172.5 -3.5l-193 -3c-66.333 -1 -133.666 -1.66699 -201.999 -2s-134.833 -0.5 -199.5 -0.5c-191.333 0 -359 1 -503 3s-266 7.33301 -366 16l-32 131c68.667 -4 142.5 -7.33301 221.5 -10z" />
    <glyph glyph-name="uni06AB.init" unicode="&#x6ab;" horiz-adv-x="975" 
d="M0 -14c-20 0 -35 6.33301 -45 19s-15 28 -15 46c0 18.667 5 34.334 15 47.001s25 19 45 19h289c72.667 0 132.667 4.5 180 13.5s84.833 22 112.5 39s47 38 58 63s16.5 53.167 16.5 84.5c0 45.333 -12.5 89.666 -37.5 132.999s-64.167 87.333 -117.5 132
s-121.333 91 -204 139s-181.667 99.333 -297 154v117l855 547v-141l-728 -457c120 -56 221.333 -109.667 304 -161s149.667 -102 201 -152s88.333 -100 111 -150s34 -102 34 -156c0 -42 -7 -83 -21 -123s-38.833 -75.833 -74.5 -107.5s-84 -57.167 -145 -76.5
s-138.833 -29 -233.5 -29h-303zM563 1270c21.333 0 41.6641 -4.16797 60.9971 -12.501s36.166 -19.666 50.499 -33.999s25.833 -31.5 34.5 -51.5s13 -41.333 13 -64c0 -21.333 -4.33301 -41.666 -13 -60.999s-20.167 -36.333 -34.5 -51s-31.166 -26.167 -50.499 -34.5
s-39.666 -12.5 -60.999 -12.5c-23.333 0 -44.833 4.16699 -64.5 12.5s-36.667 19.833 -51 34.5s-25.666 31.5 -33.999 50.5s-12.5 39.5 -12.5 61.5c0 22.667 4 44 12 64s19.333 37.167 34 51.5s31.834 25.666 51.501 33.999s41.167 12.5 64.5 12.5zM562.998 1024
c23.333 0 43.166 8.16699 59.499 24.5s24.5 36.166 24.5 59.499c0 24.667 -8.16699 45.334 -24.5 62.001s-36.166 25 -59.499 25c-24.667 0 -45.334 -8.33301 -62.001 -25s-25 -37.334 -25 -62.001c0 -23.333 8.33301 -43.166 25 -59.499s37.334 -24.5 62.001 -24.5z" />
    <glyph glyph-name="uni06AB.medi" unicode="&#x6ab;" horiz-adv-x="1026" 
d="M-44.5 5c-10.333 12.667 -15.499 28.335 -15.499 47.002c0 16 4.83301 30.833 14.5 44.5s24.834 20.5 45.501 20.5h289c68 0 125.5 4.16699 172.5 12.5s84.833 21 113.5 38s49.334 37.833 62.001 62.5s19 53.667 19 87c0 45.333 -12.5 89.666 -37.5 132.999
s-64.167 87.333 -117.5 132s-121.333 91 -204 139s-181.667 99.333 -297 154v117l855 547v-141l-728 -457c87.333 -41.333 163.166 -80 227.499 -116s119.666 -70.667 165.999 -104s84.666 -65.333 114.999 -96s55.166 -61.334 74.499 -92.001s34.166 -61.667 44.499 -93
s18.5 -64 24.5 -98c5.33301 -30 12.666 -58.5 21.999 -85.5s23 -50.833 41 -71.5s41.833 -37.167 71.5 -49.5s67.167 -18.5 112.5 -18.5v-131h-35c-59.333 0 -111.833 13.167 -157.5 39.5s-80.5 67.5 -104.5 123.5h-4c-15.333 -24.667 -35.166 -47 -59.499 -67
s-53.833 -37.167 -88.5 -51.5s-74.667 -25.333 -120 -33s-96.666 -11.5 -153.999 -11.5h-303c-19.333 0 -34.166 6.33301 -44.499 19zM563.001 1270c21.333 0 41.6641 -4.16797 60.9971 -12.501s36.166 -19.666 50.499 -33.999s25.833 -31.5 34.5 -51.5s13 -41.333 13 -64
c0 -21.333 -4.33301 -41.666 -13 -60.999s-20.167 -36.333 -34.5 -51s-31.166 -26.167 -50.499 -34.5s-39.666 -12.5 -60.999 -12.5c-23.333 0 -44.833 4.16699 -64.5 12.5s-36.667 19.833 -51 34.5s-25.666 31.5 -33.999 50.5s-12.5 39.5 -12.5 61.5c0 22.667 4 44 12 64
s19.333 37.167 34 51.5s31.834 25.666 51.501 33.999s41.167 12.5 64.5 12.5zM562.999 1024c23.333 0 43.166 8.16699 59.499 24.5s24.5 36.166 24.5 59.499c0 24.667 -8.16699 45.334 -24.5 62.001s-36.166 25 -59.499 25c-24.667 0 -45.334 -8.33301 -62.001 -25
s-25 -37.334 -25 -62.001c0 -23.333 8.33301 -43.166 25 -59.499s37.334 -24.5 62.001 -24.5z" />
    <glyph glyph-name="uni06AB.fina" unicode="&#x6ab;" horiz-adv-x="1881" 
d="M1366 142c48.667 15.333 84.3369 37.332 107.004 65.999s34 65 34 109c0 45.333 -12.333 89.666 -37 132.999s-63.334 87.5 -116.001 132.5s-120.167 91.667 -202.5 140s-181.166 99.5 -296.499 153.5v117l855 546v-141l-728 -455
c87.333 -41.333 163.166 -80.166 227.499 -116.499s119.5 -71 165.5 -104s84 -65.167 114 -96.5s54.333 -62.333 73 -93s33.167 -61.667 43.5 -93s18.5 -64 24.5 -98c5.33301 -30 12.666 -58.5 21.999 -85.5s23.333 -50.833 42 -71.5s43 -37.167 73 -49.5
s68 -18.5 114 -18.5v-131h-38c-59.333 0 -112 13.167 -158 39.5s-81 67.5 -105 123.5h-4c-20 -29.333 -43.5 -54.166 -70.5 -74.499s-60.5 -37.166 -100.5 -50.499c-27.333 -9.33301 -56.5 -16.833 -87.5 -22.5s-66 -10.334 -105 -14.001s-83 -6.16699 -132 -7.5
s-104.833 -2 -167.5 -2c-86.667 0 -163 1.5 -229 4.5s-124 8.5 -174 16.5s-92.833 18.667 -128.5 32s-66.167 30.333 -91.5 51c-40.667 32 -70.667 71.5 -90 118.5s-29 100.833 -29 161.5c0 36 2.83301 72.167 8.5 108.5s12.5 70.5 20.5 102.5h118
c-7.33301 -26.667 -13.5 -56 -18.5 -88s-7.5 -65.667 -7.5 -101c0 -46 6.83301 -85.5 20.5 -118.5s35.5 -60.167 65.5 -81.5c18 -12.667 41 -23.667 69 -33s64.167 -17 108.5 -23s98.166 -10.5 161.499 -13.5s139.666 -4.5 228.999 -4.5c52 0 99.333 0.5 142 1.5
s81 2.66699 115 5s64.333 5.5 91 9.5s50.667 9.33301 72 16zM1414 1270c21.333 0 41.6641 -4.16797 60.9971 -12.501s36.166 -19.666 50.499 -33.999s25.833 -31.5 34.5 -51.5s13 -41.333 13 -64c0 -21.333 -4.33301 -41.666 -13 -60.999s-20.167 -36.333 -34.5 -51
s-31.166 -26.167 -50.499 -34.5s-39.666 -12.5 -60.999 -12.5c-23.333 0 -44.833 4.16699 -64.5 12.5s-36.667 19.833 -51 34.5s-25.666 31.5 -33.999 50.5s-12.5 39.5 -12.5 61.5c0 22.667 4 44 12 64s19.333 37.167 34 51.5s31.834 25.666 51.501 33.999
s41.167 12.5 64.5 12.5zM1414 1024c23.333 0 43.166 8.16699 59.499 24.5s24.5 36.166 24.5 59.499c0 24.667 -8.16699 45.334 -24.5 62.001s-36.166 25 -59.499 25c-24.667 0 -45.334 -8.33301 -62.001 -25s-25 -37.334 -25 -62.001c0 -23.333 8.33301 -43.166 25 -59.499
s37.334 -24.5 62.001 -24.5z" />
    <glyph glyph-name="uni06AC.init" unicode="&#x6ac;" horiz-adv-x="975" 
d="M0 -14c-20 0 -35 6.33301 -45 19s-15 28 -15 46c0 18.667 5 34.334 15 47.001s25 19 45 19h289c72.667 0 132.667 4.5 180 13.5s84.833 22 112.5 39s47 38 58 63s16.5 53.167 16.5 84.5c0 45.333 -12.5 89.666 -37.5 132.999s-64.167 87.333 -117.5 132
s-121.333 91 -204 139s-181.667 99.333 -297 154v117l855 547v-141l-728 -457c120 -56 221.333 -109.667 304 -161s149.667 -102 201 -152s88.333 -100 111 -150s34 -102 34 -156c0 -42 -7 -83 -21 -123s-38.833 -75.833 -74.5 -107.5s-84 -57.167 -145 -76.5
s-138.833 -29 -233.5 -29h-303zM411 1498h-147v143h147v-143z" />
    <glyph glyph-name="uni06AC.medi" unicode="&#x6ac;" horiz-adv-x="1026" 
d="M-44.5 5c-10.333 12.667 -15.499 28.335 -15.499 47.002c0 16 4.83301 30.833 14.5 44.5s24.834 20.5 45.501 20.5h289c68 0 125.5 4.16699 172.5 12.5s84.833 21 113.5 38s49.334 37.833 62.001 62.5s19 53.667 19 87c0 45.333 -12.5 89.666 -37.5 132.999
s-64.167 87.333 -117.5 132s-121.333 91 -204 139s-181.667 99.333 -297 154v117l855 547v-141l-728 -457c87.333 -41.333 163.166 -80 227.499 -116s119.666 -70.667 165.999 -104s84.666 -65.333 114.999 -96s55.166 -61.334 74.499 -92.001s34.166 -61.667 44.499 -93
s18.5 -64 24.5 -98c5.33301 -30 12.666 -58.5 21.999 -85.5s23 -50.833 41 -71.5s41.833 -37.167 71.5 -49.5s67.167 -18.5 112.5 -18.5v-131h-35c-59.333 0 -111.833 13.167 -157.5 39.5s-80.5 67.5 -104.5 123.5h-4c-15.333 -24.667 -35.166 -47 -59.499 -67
s-53.833 -37.167 -88.5 -51.5s-74.667 -25.333 -120 -33s-96.666 -11.5 -153.999 -11.5h-303c-19.333 0 -34.166 6.33301 -44.499 19zM411.001 1498h-147v143h147v-143z" />
    <glyph glyph-name="uni06AC.fina" unicode="&#x6ac;" horiz-adv-x="1710" 
d="M318 573c-7.33301 -26.667 -13.5059 -56.001 -18.5059 -88.001s-7.5 -65.667 -7.5 -101c0 -46 6.83301 -85.5 20.5 -118.5s35.5 -60.167 65.5 -81.5c18 -12.667 39.5 -23.5 64.5 -32.5s57.5 -16.167 97.5 -21.5s89.333 -9.33301 148 -12s130.334 -4 215.001 -4
s156.667 3.16699 216 9.5s107.333 18 144 35s63.334 40.833 80.001 71.5s25 70.667 25 120v1163h120v-1144c0 -44 3.66699 -81.833 11 -113.5s19.666 -57.667 36.999 -78s40.166 -35.5 68.499 -45.5s63.5 -15 105.5 -15v-131h-53c-56.667 0 -105.667 11.667 -147 35
s-70.666 60 -87.999 110h-3c-23.333 -31.333 -51.666 -56.666 -84.999 -75.999s-72.166 -34.5 -116.499 -45.5s-94.5 -18.333 -150.5 -22s-118.333 -5.5 -187 -5.5c-84 0 -157.167 1.33301 -219.5 4s-116.666 7.66699 -162.999 15s-86.166 17.5 -119.499 30.5
s-62.666 29.833 -87.999 50.5c-40.667 32 -70.667 71.5 -90 118.5s-29 100.833 -29 161.5c0 36 2.83301 72.167 8.5 108.5s12.5 70.5 20.5 102.5h118zM683.994 684.999c72.667 2 126.504 11.6689 161.504 29.002s52.5 36.666 52.5 57.999c0 11.333 -5.33301 21.333 -16 30
s-29.334 20 -56.001 34c-28 15.333 -50.5 31.333 -67.5 48s-25.5 39 -25.5 67c0 22 6.83301 42.667 20.5 62s33.167 36.833 58.5 52.5s56 29.334 92 41.001s76.333 20.5 121 26.5v-85c-70 -9.33301 -120.5 -22 -151.5 -38s-46.5 -33 -46.5 -51
c0 -12.667 5.16699 -23.334 15.5 -32.001s28.166 -20 53.499 -34c29.333 -16 52.666 -32.333 69.999 -49s26 -38.334 26 -65.001c0 -22 -6.33301 -43.167 -19 -63.5s-31.834 -38.666 -57.501 -54.999s-57.667 -29.833 -96 -40.5s-83.5 -17.334 -135.5 -20.001v85z
M937.998 1498h-147v143h147v-143z" />
    <glyph glyph-name="uni06AD" unicode="&#x6ad;" horiz-adv-x="1663" arabic-form="isolated" 
d="M318 573c-7.33301 -26.667 -13.5049 -56.002 -18.5049 -88.002s-7.5 -65.667 -7.5 -101c0 -46 6.66699 -85.5 20 -118.5s35.333 -60.167 66 -81.5c18 -12.667 39.5 -23.5 64.5 -32.5s57.5 -16.167 97.5 -21.5s89.333 -9.33301 148 -12s130.334 -4 215.001 -4
c84 0 155.5 3 214.5 9s107 17.667 144 35s64 41.666 81 72.999s25.5 72.333 25.5 123v1159h120v-1172c0 -78 -13.833 -140.667 -41.5 -188s-67.5 -83.666 -119.5 -108.999s-115.667 -42 -191 -50s-160.666 -12 -255.999 -12c-84 0 -157.167 1.33301 -219.5 4
s-116.666 7.66699 -162.999 15s-86.166 17.5 -119.499 30.5s-62.666 29.833 -87.999 50.5c-41.333 32.667 -71.5 72.334 -90.5 119.001s-28.5 100.334 -28.5 161.001c0 36 2.66699 72.167 8 108.5s12.333 70.5 21 102.5h118zM683.995 684.998
c72.667 2 126.504 11.6689 161.504 29.002s52.5 36.666 52.5 57.999c0 11.333 -5.33301 21.333 -16 30s-29.334 20 -56.001 34c-28 15.333 -50.5 31.333 -67.5 48s-25.5 39 -25.5 67c0 22 6.83301 42.667 20.5 62s33.167 36.833 58.5 52.5s56 29.334 92 41.001
s76.333 20.5 121 26.5v-85c-70 -9.33301 -120.5 -22 -151.5 -38s-46.5 -33 -46.5 -51c0 -12.667 5.16699 -23.334 15.5 -32.001s28.166 -20 53.499 -34c29.333 -16 52.666 -32.333 69.999 -49s26 -38.334 26 -65.001c0 -22 -6.33301 -43.167 -19 -63.5
s-31.834 -38.666 -57.501 -54.999s-57.667 -29.833 -96 -40.5s-83.5 -17.334 -135.5 -20.001v85zM807.999 1498h-147v143h147v-143zM1068 1498h-147v143h147v-143zM937.999 1729h-147v143h147v-143z" />
    <glyph glyph-name="uni06AE.init" unicode="&#x6ae;" horiz-adv-x="975" 
d="M0 -14c-20 0 -35 6.33301 -45 19s-15 28 -15 46c0 18.667 5 34.334 15 47.001s25 19 45 19h289c72.667 0 132.667 4.5 180 13.5s84.833 22 112.5 39s47 38 58 63s16.5 53.167 16.5 84.5c0 45.333 -12.5 89.666 -37.5 132.999s-64.167 87.333 -117.5 132
s-121.333 91 -204 139s-181.667 99.333 -297 154v117l855 547v-141l-728 -457c120 -56 221.333 -109.667 304 -161s149.667 -102 201 -152s88.333 -100 111 -150s34 -102 34 -156c0 -42 -7 -83 -21 -123s-38.833 -75.833 -74.5 -107.5s-84 -57.167 -145 -76.5
s-138.833 -29 -233.5 -29h-303zM384 -327h-148v143h148v-143zM643 -327h-147v143h147v-143zM514 -550h-147v143h147v-143z" />
    <glyph glyph-name="uni06AE.medi" unicode="&#x6ae;" horiz-adv-x="1026" 
d="M-44.5 5c-10.333 12.667 -15.499 28.335 -15.499 47.002c0 16 4.83301 30.833 14.5 44.5s24.834 20.5 45.501 20.5h289c68 0 125.5 4.16699 172.5 12.5s84.833 21 113.5 38s49.334 37.833 62.001 62.5s19 53.667 19 87c0 45.333 -12.5 89.666 -37.5 132.999
s-64.167 87.333 -117.5 132s-121.333 91 -204 139s-181.667 99.333 -297 154v117l855 547v-141l-728 -457c87.333 -41.333 163.166 -80 227.499 -116s119.666 -70.667 165.999 -104s84.666 -65.333 114.999 -96s55.166 -61.334 74.499 -92.001s34.166 -61.667 44.499 -93
s18.5 -64 24.5 -98c5.33301 -30 12.666 -58.5 21.999 -85.5s23 -50.833 41 -71.5s41.833 -37.167 71.5 -49.5s67.167 -18.5 112.5 -18.5v-131h-35c-59.333 0 -111.833 13.167 -157.5 39.5s-80.5 67.5 -104.5 123.5h-4c-15.333 -24.667 -35.166 -47 -59.499 -67
s-53.833 -37.167 -88.5 -51.5s-74.667 -25.333 -120 -33s-96.666 -11.5 -153.999 -11.5h-303c-19.333 0 -34.166 6.33301 -44.499 19zM384.001 -326.999h-148v143h148v-143zM643.001 -326.999h-147v143h147v-143zM514.001 -549.999h-147v143h147v-143z" />
    <glyph glyph-name="uni06AE.fina" unicode="&#x6ae;" horiz-adv-x="1710" 
d="M318 573c-7.33301 -26.667 -13.5059 -56.001 -18.5059 -88.001s-7.5 -65.667 -7.5 -101c0 -46 6.83301 -85.5 20.5 -118.5s35.5 -60.167 65.5 -81.5c18 -12.667 39.5 -23.5 64.5 -32.5s57.5 -16.167 97.5 -21.5s89.333 -9.33301 148 -12s130.334 -4 215.001 -4
s156.667 3.16699 216 9.5s107.333 18 144 35s63.334 40.833 80.001 71.5s25 70.667 25 120v1163h120v-1144c0 -44 3.66699 -81.833 11 -113.5s19.666 -57.667 36.999 -78s40.166 -35.5 68.499 -45.5s63.5 -15 105.5 -15v-131h-53c-56.667 0 -105.667 11.667 -147 35
s-70.666 60 -87.999 110h-3c-23.333 -31.333 -51.666 -56.666 -84.999 -75.999s-72.166 -34.5 -116.499 -45.5s-94.5 -18.333 -150.5 -22s-118.333 -5.5 -187 -5.5c-84 0 -157.167 1.33301 -219.5 4s-116.666 7.66699 -162.999 15s-86.166 17.5 -119.499 30.5
s-62.666 29.833 -87.999 50.5c-40.667 32 -70.667 71.5 -90 118.5s-29 100.833 -29 161.5c0 36 2.83301 72.167 8.5 108.5s12.5 70.5 20.5 102.5h118zM683.994 684.999c72.667 2 126.504 11.6689 161.504 29.002s52.5 36.666 52.5 57.999c0 11.333 -5.33301 21.333 -16 30
s-29.334 20 -56.001 34c-28 15.333 -50.5 31.333 -67.5 48s-25.5 39 -25.5 67c0 22 6.83301 42.667 20.5 62s33.167 36.833 58.5 52.5s56 29.334 92 41.001s76.333 20.5 121 26.5v-85c-70 -9.33301 -120.5 -22 -151.5 -38s-46.5 -33 -46.5 -51
c0 -12.667 5.16699 -23.334 15.5 -32.001s28.166 -20 53.499 -34c29.333 -16 52.666 -32.333 69.999 -49s26 -38.334 26 -65.001c0 -22 -6.33301 -43.167 -19 -63.5s-31.834 -38.666 -57.501 -54.999s-57.667 -29.833 -96 -40.5s-83.5 -17.334 -135.5 -20.001v85z
M799.998 -326.999h-148v143h148v-143zM1059 -326.999h-147v143h147v-143zM929.998 -549.999h-147v143h147v-143z" />
    <glyph glyph-name="afii57509" unicode="&#x6af;" horiz-adv-x="1826" arabic-form="isolated" 
d="M318 573c-7.33301 -26.667 -13.499 -56.001 -18.499 -88.001s-7.5 -65.667 -7.5 -101c0 -46 6.83301 -85.5 20.5 -118.5s35.5 -60.167 65.5 -81.5c18 -12.667 41 -23.667 69 -33s64.167 -17 108.5 -23s98.166 -10.5 161.499 -13.5s139.666 -4.5 228.999 -4.5
c103.333 0 188.666 2 255.999 6s122 12.667 164 26c48.667 15.333 84.334 37.333 107.001 66s34 65.334 34 110.001c0 45.333 -12.333 89.666 -37 132.999s-63.167 87.5 -115.5 132.5s-119.666 91.333 -201.999 139s-181.5 98.834 -297.5 153.501v117l855 546v-141
l-728 -455c118 -57.333 218.167 -111.666 300.5 -162.999s149 -102 200 -152s88 -99.833 111 -149.5s34.5 -101.5 34.5 -155.5c0 -28.667 -3.5 -57.834 -10.5 -87.501s-19 -57.834 -36 -84.501s-39.333 -51 -67 -73s-62.5 -40 -104.5 -54c-28 -9.33301 -58.5 -17 -91.5 -23
s-69.5 -10.667 -109.5 -14s-84.333 -5.66602 -133 -6.99902s-103 -2 -163 -2c-86.667 0 -163 1.5 -229 4.5s-124 8.5 -174 16.5s-92.833 18.667 -128.5 32s-66.167 30.333 -91.5 51c-40.667 32 -70.667 71.5 -90 118.5s-29 100.833 -29 161.5c0 36 2.83301 72.167 8.5 108.5
s12.5 70.5 20.5 102.5h118zM855.001 1154v124l855 548v-124z" />
    <glyph glyph-name="uni06B0.init" unicode="&#x6b0;" horiz-adv-x="975" 
d="M0 -14c-20 0 -35 6.33301 -45 19s-15 28 -15 46c0 18.667 5 34.334 15 47.001s25 19 45 19h289c72.667 0 132.667 4.5 180 13.5s84.833 22 112.5 39s47 38 58 63s16.5 53.167 16.5 84.5c0 45.333 -12.5 89.666 -37.5 132.999s-64.167 87.333 -117.5 132
s-121.333 91 -204 139s-181.667 99.333 -297 154v117l855 547v-141l-728 -457c120 -56 221.333 -109.667 304 -161s149.667 -102 201 -152s88.333 -100 111 -150s34 -102 34 -156c0 -42 -7 -83 -21 -123s-38.833 -75.833 -74.5 -107.5s-84 -57.167 -145 -76.5
s-138.833 -29 -233.5 -29h-303zM0 1154v124l855 548v-124zM563 1270c21.333 0 41.6641 -4.16797 60.9971 -12.501s36.166 -19.666 50.499 -33.999s25.833 -31.5 34.5 -51.5s13 -41.333 13 -64c0 -21.333 -4.33301 -41.666 -13 -60.999s-20.167 -36.333 -34.5 -51
s-31.166 -26.167 -50.499 -34.5s-39.666 -12.5 -60.999 -12.5c-23.333 0 -44.833 4.16699 -64.5 12.5s-36.667 19.833 -51 34.5s-25.666 31.5 -33.999 50.5s-12.5 39.5 -12.5 61.5c0 22.667 4 44 12 64s19.333 37.167 34 51.5s31.834 25.666 51.501 33.999
s41.167 12.5 64.5 12.5zM562.998 1024c23.333 0 43.166 8.16699 59.499 24.5s24.5 36.166 24.5 59.499c0 24.667 -8.16699 45.334 -24.5 62.001s-36.166 25 -59.499 25c-24.667 0 -45.334 -8.33301 -62.001 -25s-25 -37.334 -25 -62.001
c0 -23.333 8.33301 -43.166 25 -59.499s37.334 -24.5 62.001 -24.5z" />
    </font>
</defs>
</svg>
